<svg width="41" height="40" viewBox="0 0 41 40" fill="none" xmlns="http://www.w3.org/2000/svg">
<mask id="path-1-outside-1_5_2764" maskUnits="userSpaceOnUse" x="-1" y="-0.961914" width="42" height="42" fill="black">
<rect fill="white" x="-1" y="-0.961914" width="42" height="42"/>
<path d="M40 20.1039C40 20.047 40 20.047 40 19.9901C40 19.9332 40 19.8763 40 19.8763L34.3101 6.10675C34.2532 5.99296 34.1394 5.87916 34.0256 5.82226L20.256 0.132359C20.0853 0.0185613 19.9147 0.0185613 19.8009 0.0754603L6.03129 5.76536C5.9175 5.82226 5.8037 5.93606 5.7468 6.04986L0.056899 19.8194C0 19.8763 0 19.9332 0 19.9332C0 19.9901 0 19.9901 0 20.047C0 20.1039 0 20.1608 0 20.1608L5.6899 33.9304C5.7468 34.0442 5.8606 34.158 5.9744 34.2149L19.744 39.9048C19.8009 39.9048 19.8578 39.9617 19.9147 39.9617C19.9715 39.9617 20.0285 39.9617 20.0853 39.9048L33.8549 34.2149C33.9687 34.158 34.0825 34.0442 34.1394 33.9304L39.8293 20.1608C40 20.1608 40 20.1039 40 20.1039ZM16.9559 35.7511H17.0128C18.9474 35.7511 20.4836 34.158 20.4836 32.2803V27.7853L27.6529 20.616H32.1479C33.5135 20.616 34.5946 21.6971 34.5946 23.0627C34.5946 24.4282 33.5135 25.5093 32.1479 25.5093C30.7824 25.5093 29.7013 24.4282 29.7013 23.0627C29.7013 22.7782 29.4737 22.5506 29.1892 22.5506C28.9047 22.5506 28.6771 22.7782 28.6771 23.0627C28.6771 24.9972 30.2703 26.5335 32.1479 26.5335H32.2048L19.9715 38.7668L16.9559 35.7511ZM23.0441 4.28599H22.9872C21.0526 4.28599 19.5164 5.87916 19.5164 7.75683V12.2518L12.2902 19.478H7.79516C6.42959 19.478 5.34851 18.3969 5.34851 17.0314C5.34851 15.6658 6.42959 14.5847 7.79516 14.5847C9.16074 14.5847 10.2418 15.6658 10.2418 17.0314C10.2418 17.3159 10.4694 17.5435 10.7539 17.5435C11.0384 17.5435 11.266 17.3159 11.266 17.0314C11.266 15.0968 9.67283 13.5605 7.79516 13.5605H7.73827L19.9715 1.27034L23.0441 4.28599ZM19.4595 20.5591V26.3059L13.7696 20.5591H19.4595ZM13.7696 19.478L19.5164 13.7312V19.478H13.7696ZM20.5405 20.5591H26.2873L20.5405 26.249V20.5591ZM20.5405 19.478V13.7881L26.2873 19.5349H20.5405V19.478ZM7.79516 20.5591H12.2902L19.4595 27.7284V32.2234C19.4595 33.589 18.3784 34.6701 17.0128 34.6701C15.6472 34.6701 14.5661 33.589 14.5661 32.2234C14.5661 30.8578 15.6472 29.7767 17.0128 29.7767C17.2973 29.7767 17.5249 29.5491 17.5249 29.2646C17.5249 28.9802 17.2973 28.7526 17.0128 28.7526C15.0782 28.7526 13.542 30.3457 13.542 32.2234V32.2803L1.25178 20.047L4.26743 17.0314V17.0883C4.26743 18.9659 5.8606 20.5591 7.79516 20.5591ZM32.2048 19.478H27.7098L20.5405 12.3087V7.81372C20.5405 6.44815 21.6216 5.36707 22.9872 5.36707C24.3528 5.36707 25.4339 6.44815 25.4339 7.81372C25.4339 9.1793 24.3528 10.2604 22.9872 10.2604C22.7027 10.2604 22.4751 10.488 22.4751 10.7725C22.4751 11.057 22.7027 11.2846 22.9872 11.2846C24.9218 11.2846 26.458 9.69139 26.458 7.81372V7.75683L38.7482 20.047L35.7326 23.0627V23.0058C35.7326 21.0712 34.1394 19.478 32.2048 19.478ZM38.0085 17.8279L22.1906 2.01003L33.3428 6.61885L38.0085 17.8279ZM6.60028 6.61885L17.7525 2.01003L1.99147 17.8279L6.60028 6.61885ZM1.99147 22.2092L17.8094 38.0271L6.65718 33.4183L1.99147 22.2092ZM33.3997 33.4183L22.1906 38.0271L38.0085 22.2092L33.3997 33.4183Z"/>
</mask>
<path d="M40 20.1039C40 20.047 40 20.047 40 19.9901C40 19.9332 40 19.8763 40 19.8763L34.3101 6.10675C34.2532 5.99296 34.1394 5.87916 34.0256 5.82226L20.256 0.132359C20.0853 0.0185613 19.9147 0.0185613 19.8009 0.0754603L6.03129 5.76536C5.9175 5.82226 5.8037 5.93606 5.7468 6.04986L0.056899 19.8194C0 19.8763 0 19.9332 0 19.9332C0 19.9901 0 19.9901 0 20.047C0 20.1039 0 20.1608 0 20.1608L5.6899 33.9304C5.7468 34.0442 5.8606 34.158 5.9744 34.2149L19.744 39.9048C19.8009 39.9048 19.8578 39.9617 19.9147 39.9617C19.9715 39.9617 20.0285 39.9617 20.0853 39.9048L33.8549 34.2149C33.9687 34.158 34.0825 34.0442 34.1394 33.9304L39.8293 20.1608C40 20.1608 40 20.1039 40 20.1039ZM16.9559 35.7511H17.0128C18.9474 35.7511 20.4836 34.158 20.4836 32.2803V27.7853L27.6529 20.616H32.1479C33.5135 20.616 34.5946 21.6971 34.5946 23.0627C34.5946 24.4282 33.5135 25.5093 32.1479 25.5093C30.7824 25.5093 29.7013 24.4282 29.7013 23.0627C29.7013 22.7782 29.4737 22.5506 29.1892 22.5506C28.9047 22.5506 28.6771 22.7782 28.6771 23.0627C28.6771 24.9972 30.2703 26.5335 32.1479 26.5335H32.2048L19.9715 38.7668L16.9559 35.7511ZM23.0441 4.28599H22.9872C21.0526 4.28599 19.5164 5.87916 19.5164 7.75683V12.2518L12.2902 19.478H7.79516C6.42959 19.478 5.34851 18.3969 5.34851 17.0314C5.34851 15.6658 6.42959 14.5847 7.79516 14.5847C9.16074 14.5847 10.2418 15.6658 10.2418 17.0314C10.2418 17.3159 10.4694 17.5435 10.7539 17.5435C11.0384 17.5435 11.266 17.3159 11.266 17.0314C11.266 15.0968 9.67283 13.5605 7.79516 13.5605H7.73827L19.9715 1.27034L23.0441 4.28599ZM19.4595 20.5591V26.3059L13.7696 20.5591H19.4595ZM13.7696 19.478L19.5164 13.7312V19.478H13.7696ZM20.5405 20.5591H26.2873L20.5405 26.249V20.5591ZM20.5405 19.478V13.7881L26.2873 19.5349H20.5405V19.478ZM7.79516 20.5591H12.2902L19.4595 27.7284V32.2234C19.4595 33.589 18.3784 34.6701 17.0128 34.6701C15.6472 34.6701 14.5661 33.589 14.5661 32.2234C14.5661 30.8578 15.6472 29.7767 17.0128 29.7767C17.2973 29.7767 17.5249 29.5491 17.5249 29.2646C17.5249 28.9802 17.2973 28.7526 17.0128 28.7526C15.0782 28.7526 13.542 30.3457 13.542 32.2234V32.2803L1.25178 20.047L4.26743 17.0314V17.0883C4.26743 18.9659 5.8606 20.5591 7.79516 20.5591ZM32.2048 19.478H27.7098L20.5405 12.3087V7.81372C20.5405 6.44815 21.6216 5.36707 22.9872 5.36707C24.3528 5.36707 25.4339 6.44815 25.4339 7.81372C25.4339 9.1793 24.3528 10.2604 22.9872 10.2604C22.7027 10.2604 22.4751 10.488 22.4751 10.7725C22.4751 11.057 22.7027 11.2846 22.9872 11.2846C24.9218 11.2846 26.458 9.69139 26.458 7.81372V7.75683L38.7482 20.047L35.7326 23.0627V23.0058C35.7326 21.0712 34.1394 19.478 32.2048 19.478ZM38.0085 17.8279L22.1906 2.01003L33.3428 6.61885L38.0085 17.8279ZM6.60028 6.61885L17.7525 2.01003L1.99147 17.8279L6.60028 6.61885ZM1.99147 22.2092L17.8094 38.0271L6.65718 33.4183L1.99147 22.2092ZM33.3997 33.4183L22.1906 38.0271L38.0085 22.2092L33.3997 33.4183Z" fill="white"/>
<path d="M40 20.1039C40 20.047 40 20.047 40 19.9901C40 19.9332 40 19.8763 40 19.8763L34.3101 6.10675C34.2532 5.99296 34.1394 5.87916 34.0256 5.82226L20.256 0.132359C20.0853 0.0185613 19.9147 0.0185613 19.8009 0.0754603L6.03129 5.76536C5.9175 5.82226 5.8037 5.93606 5.7468 6.04986L0.056899 19.8194C0 19.8763 0 19.9332 0 19.9332C0 19.9901 0 19.9901 0 20.047C0 20.1039 0 20.1608 0 20.1608L5.6899 33.9304C5.7468 34.0442 5.8606 34.158 5.9744 34.2149L19.744 39.9048C19.8009 39.9048 19.8578 39.9617 19.9147 39.9617C19.9715 39.9617 20.0285 39.9617 20.0853 39.9048L33.8549 34.2149C33.9687 34.158 34.0825 34.0442 34.1394 33.9304L39.8293 20.1608C40 20.1608 40 20.1039 40 20.1039ZM16.9559 35.7511H17.0128C18.9474 35.7511 20.4836 34.158 20.4836 32.2803V27.7853L27.6529 20.616H32.1479C33.5135 20.616 34.5946 21.6971 34.5946 23.0627C34.5946 24.4282 33.5135 25.5093 32.1479 25.5093C30.7824 25.5093 29.7013 24.4282 29.7013 23.0627C29.7013 22.7782 29.4737 22.5506 29.1892 22.5506C28.9047 22.5506 28.6771 22.7782 28.6771 23.0627C28.6771 24.9972 30.2703 26.5335 32.1479 26.5335H32.2048L19.9715 38.7668L16.9559 35.7511ZM23.0441 4.28599H22.9872C21.0526 4.28599 19.5164 5.87916 19.5164 7.75683V12.2518L12.2902 19.478H7.79516C6.42959 19.478 5.34851 18.3969 5.34851 17.0314C5.34851 15.6658 6.42959 14.5847 7.79516 14.5847C9.16074 14.5847 10.2418 15.6658 10.2418 17.0314C10.2418 17.3159 10.4694 17.5435 10.7539 17.5435C11.0384 17.5435 11.266 17.3159 11.266 17.0314C11.266 15.0968 9.67283 13.5605 7.79516 13.5605H7.73827L19.9715 1.27034L23.0441 4.28599ZM19.4595 20.5591V26.3059L13.7696 20.5591H19.4595ZM13.7696 19.478L19.5164 13.7312V19.478H13.7696ZM20.5405 20.5591H26.2873L20.5405 26.249V20.5591ZM20.5405 19.478V13.7881L26.2873 19.5349H20.5405V19.478ZM7.79516 20.5591H12.2902L19.4595 27.7284V32.2234C19.4595 33.589 18.3784 34.6701 17.0128 34.6701C15.6472 34.6701 14.5661 33.589 14.5661 32.2234C14.5661 30.8578 15.6472 29.7767 17.0128 29.7767C17.2973 29.7767 17.5249 29.5491 17.5249 29.2646C17.5249 28.9802 17.2973 28.7526 17.0128 28.7526C15.0782 28.7526 13.542 30.3457 13.542 32.2234V32.2803L1.25178 20.047L4.26743 17.0314V17.0883C4.26743 18.9659 5.8606 20.5591 7.79516 20.5591ZM32.2048 19.478H27.7098L20.5405 12.3087V7.81372C20.5405 6.44815 21.6216 5.36707 22.9872 5.36707C24.3528 5.36707 25.4339 6.44815 25.4339 7.81372C25.4339 9.1793 24.3528 10.2604 22.9872 10.2604C22.7027 10.2604 22.4751 10.488 22.4751 10.7725C22.4751 11.057 22.7027 11.2846 22.9872 11.2846C24.9218 11.2846 26.458 9.69139 26.458 7.81372V7.75683L38.7482 20.047L35.7326 23.0627V23.0058C35.7326 21.0712 34.1394 19.478 32.2048 19.478ZM38.0085 17.8279L22.1906 2.01003L33.3428 6.61885L38.0085 17.8279ZM6.60028 6.61885L17.7525 2.01003L1.99147 17.8279L6.60028 6.61885ZM1.99147 22.2092L17.8094 38.0271L6.65718 33.4183L1.99147 22.2092ZM33.3997 33.4183L22.1906 38.0271L38.0085 22.2092L33.3997 33.4183Z" stroke="white" stroke-width="0.5" mask="url(#path-1-outside-1_5_2764)"/>
</svg>
