<svg width="20" height="20" viewBox="0 0 20 20" fill="none" xmlns="http://www.w3.org/2000/svg">
<g clip-path="url(#clip0_5_2771)">
<path d="M9.99999 0.800049C4.91999 0.800049 0.799988 4.92005 0.799988 10C0.799988 11.92 1.37999 13.74 2.47999 15.3L0.839988 18.9C0.799988 18.98 0.819988 19.06 0.879988 19.12C0.939988 19.18 1.01999 19.2001 1.09999 19.18L5.03999 17.74C6.51999 18.7 8.23999 19.2 9.99999 19.2H10.02C15.1 19.2 19.22 15.08 19.22 10C19.22 4.92005 15.08 0.800049 9.99999 0.800049ZM15.12 13.54C15.06 13.7 14.92 13.88 14.84 14.02C14.66 14.26 14.44 14.5 14.24 14.66C14.2 14.7 14.16 14.72 14.12 14.76C14.08 14.78 14.06 14.8 14.02 14.82C13.86 14.94 13.7 15.0201 13.56 15.0601C13.46 15.1 13.34 15.12 13.22 15.12C13.18 15.12 13.14 15.12 13.12 15.12C12.92 15.12 12.8 15.08 12.52 14.98C12.3 14.88 12.06 14.78 11.8 14.68L11.74 14.64C11.52 14.54 11.3 14.42 11.08 14.32L11 14.26C10.78 14.14 10.58 14.02 10.38 13.9L10.34 13.86C8.95999 13 7.79999 11.96 6.79999 10.66C6.69999 10.54 6.61999 10.42 6.51999 10.3C6.47999 10.24 6.43999 10.18 6.39999 10.12L6.27999 9.94005C6.19999 9.82005 6.13999 9.72005 6.05999 9.60005L6.03999 9.58005C5.97999 9.46005 5.89999 9.36005 5.83999 9.24005C5.83999 9.24005 5.81999 9.22005 5.81999 9.20005C5.49999 8.64005 5.21999 8.06005 5.01999 7.50005C4.79999 6.90005 4.73999 6.52005 4.97999 6.10005C5.07999 5.92005 5.45999 5.56005 5.71999 5.38005C6.17999 5.04005 6.37999 4.92005 6.57999 4.88005C6.71999 4.86005 6.93999 4.86005 7.09999 4.92005C7.17999 4.94005 7.27999 5.00005 7.33999 5.04005C7.71999 5.28005 8.59999 6.42005 8.87999 6.96005C9.07999 7.32005 9.11999 7.60005 9.05999 7.82005C8.99999 8.06005 8.85999 8.20005 8.45999 8.50005C8.37999 8.58005 8.27999 8.64005 8.21999 8.70005C8.19999 8.72005 8.19999 8.72005 8.17999 8.74005L8.15999 8.76005C8.11999 8.80005 8.09999 8.92005 8.09999 9.00005C8.09999 9.20005 8.23999 9.66005 8.47999 10.02C8.65999 10.3 8.95999 10.66 9.27999 10.94C9.63999 11.26 9.95999 11.48 10.32 11.66C10.74 11.86 11 11.92 11.14 11.86C11.16 11.84 11.2 11.84 11.22 11.82C11.26 11.78 11.34 11.68 11.48 11.52C11.68 11.26 11.78 11.16 11.94 11.08C11.98 11.06 12.04 11.04 12.08 11.02C12.36 10.92 12.66 10.94 12.94 11.1C13.14 11.2 13.54 11.44 13.8 11.62C14.12 11.84 14.88 12.44 15 12.58C15.12 12.72 15.2 12.9 15.2 13.1C15.22 13.22 15.18 13.38 15.12 13.54Z" fill="white"/>
</g>
<defs>
<clipPath id="clip0_5_2771">
<rect width="20" height="20" fill="white"/>
</clipPath>
</defs>
</svg>
