<svg width="20" height="20" viewBox="0 0 20 20" fill="none" xmlns="http://www.w3.org/2000/svg">
<path d="M19 1.98003C18.74 1.76003 18.32 1.74003 17.6 1.96003C17.1 2.12003 12.66 3.80003 8.73999 5.42003C5.21999 6.88003 2.35999 8.16003 2.01999 8.32003C1.63999 8.44003 0.819991 8.80003 0.779991 9.36003C0.759991 9.72003 1.05999 10.04 1.63999 10.3C2.25999 10.62 4.99999 11.54 5.57999 11.72C5.77999 12.4 6.95999 16.38 7.01999 16.62C7.09999 16.98 7.33999 17.18 7.45999 17.26C7.47999 17.28 7.51999 17.32 7.55999 17.34C7.61999 17.38 7.69999 17.4 7.79999 17.4C7.93999 17.4 8.09999 17.34 8.23999 17.24C8.97999 16.64 10.26 15.3 10.62 14.92C12.2 16.16 13.92 17.54 14.08 17.7L14.1 17.72C14.48 18.04 14.88 18.22 15.24 18.22C15.36 18.22 15.48 18.2 15.6 18.16C16.02 18.02 16.32 17.62 16.42 17.08C16.42 17.06 16.44 16.98 16.48 16.84C17.16 13.88 17.7 11.28 18.14 9.10003C18.56 6.96003 18.9 4.86003 19.1 3.74003C19.14 3.46003 19.18 3.24003 19.2 3.10003C19.26 2.70003 19.3 2.24003 19 1.98003ZM5.99999 11.66L15.54 5.34003C15.56 5.32003 15.6 5.30003 15.62 5.28003C15.64 5.28003 15.64 5.26003 15.66 5.26003C15.68 5.26003 15.68 5.26003 15.7 5.24003C15.68 5.26003 15.66 5.32003 15.62 5.36003L13.2 7.62003C11.52 9.16003 9.31999 11.18 7.85999 12.5C7.85999 12.5 7.85999 12.5 7.85999 12.52L7.83999 12.54C7.83999 12.54 7.83999 12.56 7.81999 12.56C7.81999 12.58 7.81999 12.58 7.79999 12.6V12.62C7.79999 12.62 7.79999 12.62 7.79999 12.64C7.69999 13.76 7.51999 15.68 7.43999 16.54C7.43999 16.54 7.43999 16.54 7.43999 16.52C7.35999 16.28 6.23999 12.46 5.99999 11.66Z" fill="white"/>
</svg>
