<svg width="20" height="20" viewBox="0 0 20 20" fill="none" xmlns="http://www.w3.org/2000/svg">
<path d="M18.52 5.9599C18.3 5.0799 17.56 4.4199 16.66 4.3199C12.24 3.7599 7.75999 3.7599 3.33999 4.3199C2.43999 4.4399 1.69999 5.0999 1.47999 5.9599C1.03999 7.7399 1.03999 12.2799 1.47999 14.0599C1.69999 14.9399 2.43999 15.5999 3.33999 15.6999C5.55999 15.9799 7.77999 16.1199 9.99999 16.1199C12.22 16.1199 14.46 15.9799 16.66 15.6999C17.56 15.5799 18.3 14.9199 18.52 14.0599C18.98 12.2799 18.98 7.7199 18.52 5.9599ZM13.1 10.1799L8.09999 13.1799C8.07999 13.1999 8.03999 13.1999 7.99999 13.1999C7.95999 13.1999 7.93999 13.1999 7.89999 13.1799C7.83999 13.1399 7.79999 13.0799 7.79999 12.9999V6.9999C7.79999 6.9199 7.83999 6.8599 7.89999 6.8199C7.95999 6.7799 8.03999 6.7799 8.09999 6.8199L13.1 9.8199C13.16 9.8599 13.2 9.9199 13.2 9.9999C13.2 10.0799 13.16 10.1399 13.1 10.1799Z" fill="white"/>
</svg>
