<svg width="32" height="32" viewBox="0 0 32 32" fill="none" xmlns="http://www.w3.org/2000/svg">
<mask id="mask0_5_2474" style="mask-type:alpha" maskUnits="userSpaceOnUse" x="0" y="0" width="32" height="32">
<rect width="32" height="32" fill="#D9D9D9"/>
</mask>
<g mask="url(#mask0_5_2474)">
<path d="M26.3538 27.4154L17.7026 18.7642C17.0393 19.3511 16.2658 19.8034 15.3822 20.1211C14.4986 20.4387 13.584 20.5975 12.6385 20.5975C10.3746 20.5975 8.45866 19.814 6.8906 18.247C5.32253 16.6801 4.5385 14.7801 4.5385 12.5471C4.5385 10.3141 5.32199 8.41338 6.88896 6.845C8.45594 5.27662 10.3584 4.49243 12.5963 4.49243C14.8342 4.49243 16.737 5.27613 18.3048 6.84353C19.8725 8.41091 20.6564 10.3115 20.6564 12.5453C20.6564 13.4793 20.4965 14.3886 20.1769 15.2732C19.8572 16.1578 19.3948 16.9591 18.7897 17.677L27.4615 26.295L26.3538 27.4154ZM12.618 19.0847C14.4392 19.0847 15.9821 18.4501 17.2467 17.1809C18.5113 15.9116 19.1436 14.3663 19.1436 12.545C19.1436 10.7236 18.5113 9.17831 17.2467 7.90906C15.9821 6.63984 14.4392 6.00523 12.618 6.00523C10.7853 6.00523 9.23274 6.63984 7.96016 7.90906C6.68759 9.17831 6.0513 10.7236 6.0513 12.545C6.0513 14.3663 6.68759 15.9116 7.96016 17.1809C9.23274 18.4501 10.7853 19.0847 12.618 19.0847Z" fill="#1C1C1C"/>
</g>
</svg>
