<svg width="142" height="143" viewBox="0 0 142 143" fill="none" xmlns="http://www.w3.org/2000/svg">
<g clip-path="url(#clip0_5_2386)">
<path d="M71 130.5C103.585 130.5 130 104.085 130 71.5C130 38.9152 103.585 12.5 71 12.5C38.4152 12.5 12 38.9152 12 71.5C12 104.085 38.4152 130.5 71 130.5Z" fill="#323231"/>
<path d="M83.3535 60.8741L83.3127 86.6482H85.6461V56.9497H55.9476L55.9476 59.2832L81.7217 59.2423L55.1317 85.8323L56.7635 87.4641L83.3535 60.8741Z" fill="#D39C4A"/>
<path d="M71 142.5C56.9576 142.5 43.2304 138.336 31.5545 130.534C19.8787 122.733 10.7784 111.644 5.40459 98.6706C0.0307636 85.697 -1.37527 71.4213 1.36428 57.6486C4.10383 43.876 10.8659 31.225 20.7955 21.2955C30.725 11.3659 43.376 4.60383 57.1486 1.86428C70.9213 -0.875274 85.197 0.530764 98.1706 5.90459C111.144 11.2784 122.233 20.3787 130.034 32.0545C137.836 43.7304 142 57.4576 142 71.5C141.979 90.3239 134.492 108.371 121.181 121.681C107.871 134.992 89.8239 142.479 71 142.5ZM71 24.5C61.7043 24.5 52.6173 27.2565 44.8882 32.421C37.1591 37.5854 31.135 44.9258 27.5777 53.5139C24.0204 62.102 23.0896 71.5522 24.9031 80.6693C26.7166 89.7864 31.1929 98.161 37.766 104.734C44.3391 111.307 52.7137 115.783 61.8308 117.597C70.9479 119.41 80.398 118.48 88.9862 114.922C97.5743 111.365 104.915 105.341 110.079 97.6118C115.244 89.8827 118 80.7958 118 71.5C118 59.0349 113.048 47.0802 104.234 38.266C95.4198 29.4518 83.4652 24.5 71 24.5Z" fill="#D39C4A"/>
<path d="M10.0505 72.67C10.4182 72.618 10.793 72.6574 11.1418 72.7847C11.4906 72.912 11.8027 73.1233 12.0505 73.4C12.5828 74.0719 12.875 74.9027 12.8805 75.76L12.9405 76.69L16.0905 76.5L16.1605 77.5L8.00047 78.05L7.86047 75.89C7.72047 73.85 8.46047 72.77 10.0505 72.67ZM12.0505 76.75L12.0005 75.93C12.014 75.3113 11.8359 74.7035 11.4905 74.19C11.3279 74.0128 11.1244 73.8783 10.8978 73.7981C10.6711 73.7179 10.4283 73.6945 10.1905 73.73C9.95864 73.7212 9.72829 73.7706 9.52044 73.8736C9.31258 73.9767 9.13383 74.1301 9.00047 74.32C8.73032 74.8105 8.62845 75.376 8.71047 75.93L8.78047 76.93L12.0505 76.75Z" fill="#231F20"/>
<path d="M9.73275 67.83C9.73921 67.5876 9.76936 67.3465 9.82275 67.11L10.7527 67.27C10.6935 67.4856 10.6566 67.7068 10.6427 67.93C10.6319 68.2534 10.7153 68.573 10.8827 68.85C11.0555 69.1362 11.3049 69.3683 11.6027 69.52C11.9112 69.6864 12.2528 69.7821 12.6027 69.8L15.8727 69.92V70.92L9.74275 70.7V69.87L10.8627 69.8C10.4985 69.5848 10.1902 69.2867 9.96275 68.93C9.78253 68.5928 9.70271 68.2111 9.73275 67.83Z" fill="#231F20"/>
<path d="M13.7438 60.8099C14.607 60.8616 15.4168 61.245 16.0038 61.8799C16.2501 62.1845 16.4269 62.5392 16.5219 62.9192C16.6169 63.2992 16.6278 63.6953 16.5538 64.0799C16.4853 64.6023 16.2704 65.0946 15.9338 65.4999C15.6092 65.8905 15.1786 66.1788 14.6938 66.3299C14.1324 66.4946 13.5415 66.5322 12.9638 66.4399C12.1199 66.3775 11.3307 65.9989 10.7538 65.3799C10.5098 65.0742 10.3351 64.7192 10.2419 64.3393C10.1487 63.9595 10.1391 63.5639 10.2138 63.1799C10.2474 62.796 10.3663 62.4244 10.5618 62.0922C10.7573 61.7601 11.0244 61.4757 11.3438 61.2599C12.0564 60.8076 12.9157 60.6465 13.7438 60.8099ZM13.1138 65.3999C13.7205 65.5306 14.3534 65.4568 14.9138 65.1899C15.1291 65.049 15.3117 64.8635 15.4492 64.6461C15.5868 64.4286 15.6761 64.1841 15.7112 63.9292C15.7462 63.6742 15.7262 63.4147 15.6525 63.1682C15.5788 62.9216 15.453 62.6938 15.2838 62.4999C14.8144 62.0923 14.2242 61.8499 13.6038 61.8099C12.9996 61.6743 12.3671 61.752 11.8138 62.0299C11.5841 62.1605 11.3901 62.3455 11.2488 62.5687C11.1076 62.792 11.0234 63.0465 11.0038 63.3099C10.8838 64.4999 11.5738 65.1899 13.1138 65.3999Z" fill="#231F20"/>
<path d="M17.7431 57.82C17.6695 58.1656 17.5152 58.489 17.2927 58.7636C17.0703 59.0382 16.786 59.2563 16.4631 59.4C15.6775 59.6808 14.8188 59.6808 14.0331 59.4C13.2136 59.2408 12.4729 58.8069 11.9331 58.17C11.7298 57.8744 11.5935 57.538 11.5339 57.1843C11.4743 56.8305 11.4928 56.468 11.5881 56.1222C11.6833 55.7763 11.8531 55.4555 12.0855 55.1822C12.3178 54.9089 12.6071 54.6897 12.9331 54.54L13.0031 54.5L12.5631 54.43L12.1131 54.34L9.70312 53.72L9.95312 52.72L18.3731 54.93L18.1731 55.72L17.3331 55.66C17.5858 55.9519 17.7568 56.3055 17.8288 56.6848C17.9008 57.0641 17.8713 57.4557 17.7431 57.82ZM17.0031 57.5C17.0877 57.2662 17.119 57.0165 17.0948 56.7691C17.0706 56.5217 16.9914 56.2829 16.8631 56.07C16.478 55.6355 15.9557 55.3461 15.3831 55.25L15.2031 55.2C14.5957 55.0007 13.9405 55.0007 13.3331 55.2C13.1051 55.3099 12.9065 55.4724 12.7535 55.6741C12.6006 55.8757 12.4976 56.1108 12.4531 56.36C12.3845 56.5871 12.3761 56.8282 12.4287 57.0596C12.4813 57.291 12.5931 57.5048 12.7531 57.68C13.1848 58.1251 13.7437 58.4255 14.3531 58.54C14.9321 58.7246 15.5541 58.7246 16.1331 58.54C16.3539 58.4537 16.5493 58.3132 16.7013 58.1314C16.8534 57.9496 16.9572 57.7325 17.0031 57.5Z" fill="#231F20"/>
<path d="M13.5606 50.1701L17.2306 51.6401C17.5892 51.8117 17.9978 51.8472 18.3806 51.7401C18.5532 51.6615 18.7068 51.5468 18.8311 51.4035C18.9553 51.2603 19.0473 51.092 19.1006 50.9101C19.212 50.6811 19.2699 50.4297 19.2699 50.1751C19.2699 49.9204 19.212 49.6691 19.1006 49.4401C18.7567 48.9574 18.2599 48.605 17.6906 48.4401L14.6906 47.2501L15.0706 46.3101L20.7706 48.5901L20.4606 49.3601L19.6506 49.2001C19.8552 49.495 19.973 49.8415 19.9906 50.2001C20.0052 50.6006 19.9336 50.9996 19.7806 51.3701C19.595 51.95 19.1942 52.4367 18.6606 52.7301C18.372 52.8334 18.0653 52.877 17.7593 52.8581C17.4533 52.8391 17.1543 52.7582 16.8806 52.6201L13.1406 51.1201L13.5606 50.1701Z" fill="#231F20"/>
<path d="M22.8632 44.89C22.7018 45.2365 22.4671 45.5439 22.1753 45.7908C21.8835 46.0377 21.5416 46.2182 21.1732 46.32C20.3418 46.481 19.4804 46.3201 18.7632 45.87C17.9766 45.5148 17.3496 44.8806 17.0032 44.09C16.8794 43.715 16.8394 43.3173 16.8861 42.9251C16.9327 42.5328 17.0649 42.1556 17.2732 41.82C17.4129 41.5562 17.5806 41.3082 17.7732 41.0801C17.9332 40.8807 18.118 40.7026 18.3232 40.55L18.9232 41.2201C18.5724 41.501 18.2716 41.8391 18.0332 42.2201C17.895 42.4385 17.8111 42.6868 17.7885 42.9443C17.7659 43.2017 17.8052 43.4609 17.9032 43.7001C18.206 44.2374 18.6718 44.6646 19.2332 44.92C19.7429 45.2402 20.3437 45.3842 20.9432 45.3301C21.1879 45.2956 21.4205 45.202 21.6209 45.0574C21.8213 44.9128 21.9834 44.7215 22.0932 44.5C22.3499 44.011 22.4967 43.4718 22.5232 42.92L23.3132 43.35C23.2874 43.8918 23.1332 44.4197 22.8632 44.89Z" fill="#231F20"/>
<path d="M24.7306 40.2599C24.8107 40.1287 24.8809 39.9916 24.9406 39.8499C25.0025 39.7294 25.0495 39.6018 25.0806 39.4699L25.7306 39.8899C25.7029 40.0375 25.6593 40.1817 25.6006 40.3199C25.5212 40.5036 25.4276 40.6808 25.3206 40.8499C25.2089 41.078 25.0454 41.2768 24.8432 41.4305C24.6411 41.5842 24.4058 41.6885 24.1561 41.7351C23.9065 41.7817 23.6494 41.7694 23.4054 41.699C23.1614 41.6287 22.9371 41.5023 22.7506 41.3299L19.7506 39.3799L19.2806 40.0999L18.8806 39.8399L19.0206 38.8399L18.1406 37.7899L18.4706 37.2899L19.6506 38.0599L20.6506 36.5699L21.3006 36.9999L20.3006 38.4999L23.3006 40.4299C23.5358 40.606 23.8282 40.688 24.1206 40.6599C24.244 40.6378 24.3617 40.591 24.4665 40.5223C24.5713 40.4535 24.6612 40.3643 24.7306 40.2599Z" fill="#231F20"/>
<path d="M27.5308 34.86C27.7401 35.0119 27.9095 35.2122 28.0244 35.4439C28.1394 35.6755 28.1965 35.9315 28.1908 36.19C28.1273 36.8259 27.8689 37.4267 27.4508 37.91C27.0795 38.4489 26.5816 38.8884 26.0008 39.19L25.2708 38.63C25.8916 38.3486 26.4366 37.9236 26.8608 37.39C27.1155 37.1098 27.2854 36.763 27.3508 36.39C27.3611 36.2597 27.3381 36.1289 27.2838 36.0099C27.2296 35.8909 27.146 35.7877 27.0408 35.71C26.9442 35.6354 26.8309 35.5855 26.7107 35.5646C26.5904 35.5436 26.4669 35.5524 26.3508 35.59C25.935 35.7337 25.5386 35.9286 25.1708 36.17C24.7923 36.4131 24.3903 36.6175 23.9708 36.78C23.7347 36.868 23.4803 36.8955 23.2308 36.86C22.8754 36.7892 22.5568 36.5945 22.3315 36.3106C22.1063 36.0268 21.9891 35.6722 22.0008 35.31C22.0661 34.718 22.3103 34.1598 22.7008 33.71C23.1125 33.1754 23.6343 32.7355 24.2308 32.42L24.6508 33.18C24.1336 33.4469 23.6773 33.818 23.3108 34.27C23.0922 34.5163 22.9437 34.8168 22.8808 35.14C22.8615 35.25 22.8727 35.3632 22.9132 35.4672C22.9538 35.5713 23.0221 35.6622 23.1108 35.73C23.1948 35.7986 23.2944 35.8454 23.4008 35.8664C23.5072 35.8873 23.6171 35.8817 23.7208 35.85C24.1742 35.6905 24.6045 35.472 25.0008 35.2C25.3516 34.9686 25.7273 34.7774 26.1208 34.63C26.3673 34.5419 26.6314 34.5145 26.8908 34.55C27.1258 34.601 27.3452 34.7072 27.5308 34.86Z" fill="#231F20"/>
<path d="M50.8413 13.98C50.9964 14.3106 51.071 14.6733 51.0588 15.0384C51.0467 15.4034 50.9481 15.7604 50.7713 16.08C50.2927 16.7976 49.5891 17.3358 48.7713 17.61L47.9013 17.96L49.1012 20.91L48.1012 21.3L45.0312 13.72L47.0312 12.9C49.0013 12.14 50.2313 12.5 50.8413 13.98ZM47.5813 17.14L48.3413 16.83C48.9264 16.6525 49.4453 16.3043 49.8313 15.83C49.9459 15.6181 50.0059 15.3809 50.0059 15.14C50.0059 14.899 49.9459 14.6619 49.8313 14.45C49.7784 14.237 49.6755 14.0398 49.5312 13.8746C49.3868 13.7094 49.2052 13.5809 49.0013 13.5C48.4505 13.4024 47.8831 13.483 47.3813 13.73L46.3813 14.13L47.5813 17.14Z" fill="#231F20"/>
<path d="M55.3438 12.14C55.5753 12.0721 55.8132 12.0285 56.0537 12.01L56.1937 12.93C55.9707 12.9455 55.7497 12.9823 55.5337 13.04C55.2131 13.1414 54.9285 13.333 54.7139 13.5919C54.4993 13.8508 54.3638 14.1661 54.3237 14.5C54.2739 14.8345 54.2978 15.1758 54.3937 15.5L55.3037 18.65L54.3037 18.93L52.5938 13.03L53.3937 12.8L53.8138 13.8C53.9009 13.3886 54.0862 13.0044 54.3537 12.68C54.6251 12.4088 54.9688 12.2213 55.3438 12.14Z" fill="#231F20"/>
<path d="M63.2709 13.75C63.4732 14.5791 63.3553 15.4539 62.9409 16.2C62.7273 16.5327 62.4424 16.8139 62.1069 17.0231C61.7714 17.2324 61.3936 17.3645 61.0009 17.41C60.4896 17.5132 59.9597 17.4717 59.4709 17.29C58.9969 17.1136 58.5885 16.7959 58.3009 16.38C57.9676 15.9017 57.7456 15.3551 57.6509 14.78C57.4582 13.9515 57.5831 13.0809 58.0009 12.34C58.2139 12.0119 58.4962 11.7346 58.8279 11.5272C59.1596 11.3199 59.5326 11.1878 59.9209 11.14C60.2958 11.0524 60.6853 11.0482 61.062 11.1277C61.4387 11.2072 61.7933 11.3684 62.1009 11.6C62.7465 12.1447 63.1641 12.912 63.2709 13.75ZM58.7009 14.59C58.7737 15.2084 59.0437 15.7869 59.4709 16.24C59.6647 16.4068 59.8957 16.5247 60.1445 16.5839C60.3933 16.643 60.6527 16.6417 60.9009 16.58C61.1552 16.5515 61.3985 16.4608 61.6095 16.3161C61.8205 16.1714 61.9927 15.9769 62.1109 15.75C62.3502 15.1769 62.3959 14.5413 62.2409 13.94C62.1777 13.3247 61.906 12.7495 61.4709 12.31C61.2722 12.1377 61.034 12.0174 60.7774 11.9598C60.5209 11.9022 60.2541 11.9091 60.0009 11.98C58.8709 12.19 58.4209 13.06 58.7009 14.59Z" fill="#231F20"/>
<path d="M67.3521 16.62C67.0011 16.6583 66.646 16.613 66.3158 16.4878C65.9856 16.3627 65.6896 16.1613 65.4521 15.9C64.9278 15.2487 64.6452 14.4361 64.6521 13.6C64.5511 12.7675 64.7343 11.9253 65.1721 11.21C65.3931 10.9275 65.6728 10.6963 65.9919 10.5323C66.311 10.3684 66.6618 10.2756 67.0202 10.2604C67.3786 10.2452 67.736 10.3079 68.0678 10.4442C68.3996 10.5805 68.6979 10.7872 68.9421 11.05H69.0021C68.971 10.9013 68.9476 10.7511 68.9321 10.6L68.8721 10.15L68.7421 7.70001L69.7421 7.64001L70.2621 16.33L69.4521 16.38L69.2521 15.57C69.0555 15.8965 68.7764 16.1654 68.4428 16.3497C68.1093 16.534 67.7331 16.6272 67.3521 16.62ZM67.4621 15.78C67.7098 15.7866 67.9559 15.7379 68.1824 15.6376C68.409 15.5373 68.6104 15.3878 68.7721 15.2C69.0744 14.6882 69.1876 14.0867 69.0921 13.5V13.32C69.1076 12.6794 68.9223 12.05 68.5621 11.52C68.3843 11.3399 68.1671 11.2037 67.9276 11.1221C67.688 11.0406 67.4328 11.0159 67.1821 11.05C66.9463 11.0579 66.7163 11.1254 66.5135 11.246C66.3106 11.3666 66.1416 11.5366 66.0221 11.74C65.7371 12.2907 65.6255 12.9147 65.7021 13.53C65.6952 14.1369 65.8769 14.7309 66.2221 15.23C66.3659 15.4186 66.5549 15.5678 66.7716 15.6639C66.9883 15.7601 67.2258 15.8 67.4621 15.78Z" fill="#231F20"/>
<path d="M73.3291 10.27L73.0691 14.27C73.015 14.6626 73.1076 15.0614 73.3291 15.39C73.4565 15.5276 73.6113 15.637 73.7835 15.7111C73.9558 15.7852 74.1416 15.8223 74.3291 15.82C74.5814 15.8595 74.8393 15.8413 75.0835 15.7668C75.3277 15.6924 75.5519 15.5635 75.7391 15.39C76.1015 14.9097 76.2917 14.3215 76.2791 13.72L76.4991 10.5L77.4991 10.57L77.0991 16.7L76.2691 16.64L76.1791 15.82C75.9712 16.1037 75.6868 16.3222 75.3591 16.45C74.983 16.5922 74.5795 16.6469 74.1791 16.61C73.5704 16.6162 72.9828 16.3869 72.5391 15.97C72.3499 15.7277 72.2124 15.4491 72.135 15.1516C72.0576 14.8541 72.042 14.5438 72.0891 14.24L72.3591 10.24L73.3291 10.27Z" fill="#231F20"/>
<path d="M81.2141 17.5C80.8326 17.4547 80.4653 17.3277 80.1374 17.1275C79.8095 16.9273 79.5287 16.6587 79.3141 16.34C78.9022 15.5855 78.7915 14.7029 79.0041 13.87C79.0978 13.0155 79.5081 12.2271 80.1541 11.66C80.4717 11.4253 80.8366 11.2626 81.2234 11.1832C81.6102 11.1037 82.0097 11.1095 82.3941 11.2C82.6877 11.2574 82.9755 11.3411 83.2541 11.45C83.493 11.5385 83.7184 11.6597 83.9241 11.81L83.4741 12.58C83.0918 12.3356 82.6683 12.1628 82.2241 12.07C81.9737 12.0035 81.711 11.9988 81.4584 12.0563C81.2059 12.1138 80.971 12.2317 80.7741 12.4C80.3459 12.8484 80.0755 13.4241 80.0041 14.04C79.8619 14.6266 79.9109 15.2433 80.1441 15.8C80.2608 16.0223 80.4304 16.2124 80.6379 16.3537C80.8454 16.495 81.0845 16.583 81.3341 16.61C81.892 16.6989 82.4627 16.6613 83.0041 16.5L82.8441 17.38C82.3184 17.5511 81.7591 17.5923 81.2141 17.5Z" fill="#231F20"/>
<path d="M86.2016 17.79C86.3532 17.8258 86.5068 17.8525 86.6616 17.87C86.7946 17.8843 86.9287 17.8843 87.0616 17.87L86.8716 18.62C86.722 18.6355 86.5712 18.6355 86.4216 18.62C86.2224 18.6104 86.0247 18.5802 85.8316 18.53C85.5811 18.4933 85.3426 18.399 85.1346 18.2547C84.9266 18.1103 84.7549 17.9198 84.6328 17.698C84.5108 17.4762 84.4418 17.2291 84.4311 16.9762C84.4205 16.7232 84.4686 16.4713 84.5716 16.24L85.4816 12.78L84.6416 12.56L84.7616 12.09L85.7616 11.93L86.4816 10.76L87.0616 10.92L86.7016 12.28L88.4116 12.73L88.2116 13.49L86.5016 13.04L85.5516 16.5C85.4488 16.774 85.4488 17.076 85.5516 17.35C85.6208 17.4667 85.715 17.5667 85.8273 17.6428C85.9397 17.7189 86.0675 17.7691 86.2016 17.79Z" fill="#231F20"/>
<path d="M92.2219 18.76C92.1472 18.9944 92.0174 19.2076 91.8435 19.3816C91.6695 19.5555 91.4563 19.6853 91.2219 19.76C90.6006 19.9058 89.9491 19.8498 89.3619 19.6C88.7242 19.4123 88.1434 19.0686 87.6719 18.6L87.9819 17.73C88.4434 18.2286 89.0154 18.6122 89.6519 18.85C90.0059 19.0092 90.3997 19.058 90.7819 18.99C90.9077 18.961 91.0237 18.8996 91.1184 18.8119C91.2132 18.7242 91.2833 18.6132 91.3219 18.49C91.3641 18.3758 91.377 18.2528 91.3596 18.1323C91.3421 18.0118 91.2948 17.8975 91.2219 17.8C90.9569 17.4484 90.6477 17.1325 90.3019 16.86C89.936 16.5609 89.601 16.2259 89.3019 15.86C89.1479 15.66 89.0418 15.4274 88.9919 15.18C88.96 14.9297 88.9909 14.6754 89.0819 14.44C89.1547 14.2143 89.2854 14.0115 89.4608 13.8519C89.6362 13.6923 89.8503 13.5813 90.0819 13.53C90.6633 13.3967 91.2719 13.4491 91.8219 13.68C92.4552 13.9085 93.034 14.266 93.5219 14.73L92.9019 15.5C92.4916 15.0715 91.9982 14.7312 91.4519 14.5C91.137 14.3649 90.7917 14.3166 90.4519 14.36C90.3425 14.3791 90.2402 14.4272 90.1558 14.4993C90.0714 14.5714 90.0078 14.6649 89.9719 14.77C89.934 14.8716 89.9206 14.9806 89.9328 15.0883C89.945 15.1961 89.9823 15.2994 90.0419 15.39C90.3346 15.7616 90.6703 16.0972 91.0419 16.39C91.3649 16.652 91.6598 16.9469 91.9219 17.27C92.0879 17.4763 92.2012 17.72 92.2519 17.98C92.3139 18.2378 92.3035 18.5077 92.2219 18.76Z" fill="#231F20"/>
<path d="M119.356 34.4001C119.093 34.6497 118.775 34.8333 118.427 34.9359C118.079 35.0385 117.712 35.057 117.356 34.9901C116.528 34.7632 115.8 34.2671 115.286 33.5801L114.686 32.8601L112.246 34.8601L111.586 34.0801L117.836 28.8L119.236 30.4501C120.543 32.0567 120.583 33.3734 119.356 34.4001ZM115.356 32.2901L115.886 32.92C116.248 33.417 116.749 33.7961 117.326 34.01C117.563 34.0591 117.809 34.0482 118.042 33.9783C118.274 33.9085 118.485 33.7819 118.656 33.6101C118.828 33.4807 118.967 33.313 119.062 33.1202C119.158 32.9275 119.207 32.7151 119.206 32.5C119.126 31.9474 118.87 31.4353 118.476 31.0401L117.806 30.24L115.356 32.2901Z" fill="#231F20"/>
<path d="M122.472 38.08C122.617 38.2747 122.738 38.4862 122.832 38.71L121.992 39.13C121.907 38.9243 121.803 38.7269 121.682 38.54C121.505 38.2731 121.25 38.0671 120.952 37.95C120.637 37.8157 120.29 37.7741 119.952 37.83C119.592 37.8831 119.249 38.0201 118.952 38.23L116.242 40.08L115.672 39.24L120.742 35.78L121.212 36.46L120.352 37.19C120.77 37.1492 121.191 37.2075 121.582 37.36C121.947 37.5011 122.258 37.7529 122.472 38.08Z" fill="#231F20"/>
<path d="M123.433 46.11C122.71 46.5658 121.842 46.7302 121.003 46.57C120.624 46.4724 120.27 46.2929 119.968 46.0441C119.666 45.7953 119.422 45.4833 119.253 45.13C118.997 44.68 118.872 44.1673 118.893 43.65C118.918 43.1412 119.092 42.6509 119.393 42.24C119.747 41.7785 120.197 41.3997 120.713 41.13C121.43 40.6793 122.29 40.5151 123.123 40.67C123.501 40.7677 123.853 40.9473 124.153 41.1962C124.454 41.4451 124.696 41.7571 124.863 42.11C125.063 42.4398 125.189 42.8096 125.23 43.1933C125.272 43.577 125.228 43.9651 125.103 44.33C124.792 45.1139 124.195 45.7503 123.433 46.11ZM121.213 42.04C120.647 42.3027 120.18 42.7411 119.883 43.29C119.78 43.526 119.737 43.7836 119.758 44.0401C119.779 44.2966 119.863 44.5439 120.003 44.76C120.113 44.9897 120.277 45.1896 120.481 45.3427C120.684 45.4959 120.922 45.5978 121.173 45.64C121.792 45.6905 122.41 45.5359 122.933 45.2C123.497 44.9471 123.959 44.5099 124.243 43.96C124.339 43.7222 124.378 43.465 124.355 43.2094C124.332 42.9538 124.249 42.7073 124.113 42.49C123.543 41.5 122.573 41.3 121.213 42.04Z" fill="#231F20"/>
<path d="M122.005 50.89C121.86 50.5737 121.793 50.2279 121.806 49.8805C121.82 49.5331 121.916 49.1938 122.085 48.89C122.535 48.1833 123.212 47.6508 124.005 47.38C124.764 47.027 125.62 46.939 126.435 47.13C126.774 47.2338 127.085 47.4166 127.34 47.6635C127.596 47.9103 127.789 48.2141 127.905 48.55C128.057 48.8843 128.124 49.2511 128.099 49.6176C128.075 49.9842 127.96 50.3389 127.765 50.65V50.72L128.165 50.51L128.575 50.32L130.855 49.41L131.225 50.35L123.135 53.57L122.835 52.81L123.545 52.37C123.183 52.2762 122.851 52.0907 122.581 51.8315C122.311 51.5723 122.113 51.2481 122.005 50.89ZM122.835 50.74C122.912 50.9798 123.042 51.1993 123.215 51.3826C123.388 51.5659 123.6 51.7085 123.835 51.8C124.407 51.921 125.003 51.8434 125.525 51.58L125.695 51.51C126.309 51.3271 126.849 50.9521 127.235 50.44C127.347 50.2147 127.405 49.9666 127.405 49.715C127.405 49.4634 127.347 49.2153 127.235 48.99C127.158 48.7685 127.026 48.5704 126.851 48.4145C126.676 48.2587 126.464 48.1504 126.235 48.1C125.622 48.0022 124.994 48.0929 124.435 48.36C123.859 48.5349 123.353 48.8844 122.985 49.36C122.842 49.5571 122.752 49.7875 122.724 50.0291C122.696 50.2707 122.731 50.5155 122.825 50.74H122.835Z" fill="#231F20"/>
<path d="M129.893 54.5699L126.063 55.5699C125.865 55.5987 125.674 55.6665 125.503 55.7695C125.331 55.8725 125.181 56.0086 125.063 56.1699C124.971 56.3346 124.915 56.5172 124.9 56.7052C124.884 56.8932 124.909 57.0824 124.973 57.2599C125.014 57.5113 125.112 57.75 125.26 57.9579C125.407 58.1658 125.599 58.3375 125.823 58.4599C126.39 58.6527 127.005 58.6527 127.573 58.4599L130.673 57.6499L130.923 58.6499L125.003 60.1699L124.793 59.3699L125.543 59.0199V58.9699C125.204 58.8674 124.905 58.6653 124.683 58.3899C124.426 58.0788 124.245 57.7127 124.153 57.3199C123.961 56.7453 123.997 56.1191 124.253 55.5699C124.42 55.3084 124.64 55.0845 124.898 54.9124C125.156 54.7402 125.447 54.6236 125.753 54.5699L129.653 53.5699L129.893 54.5699Z" fill="#231F20"/>
<path d="M125.54 64.32C125.461 63.9446 125.466 63.5564 125.554 63.1831C125.642 62.8097 125.812 62.4604 126.05 62.16C126.622 61.5379 127.408 61.1556 128.25 61.09C129.095 60.9182 129.973 61.0604 130.72 61.49C131.043 61.7212 131.311 62.0199 131.506 62.3653C131.701 62.7107 131.819 63.0945 131.85 63.49C131.88 63.7859 131.88 64.0841 131.85 64.38C131.845 64.6351 131.801 64.8879 131.72 65.13L130.85 64.95C130.961 64.5057 130.995 64.0457 130.95 63.59C130.931 63.3313 130.851 63.0809 130.715 62.8599C130.579 62.6389 130.392 62.4538 130.17 62.32C129.61 62.0642 128.982 61.9975 128.38 62.13C127.783 62.1837 127.217 62.4212 126.76 62.81C126.586 62.9901 126.459 63.21 126.389 63.4505C126.32 63.6909 126.31 63.9448 126.36 64.19C126.444 64.7365 126.646 65.2584 126.95 65.72L126.06 65.85C125.767 65.3888 125.589 64.8642 125.54 64.32Z" fill="#231F20"/>
<path d="M126.781 69.18C126.792 69.3316 126.816 69.4821 126.851 69.63C126.869 69.7645 126.906 69.8958 126.961 70.02H126.191C126.123 69.8834 126.073 69.739 126.041 69.59C125.991 69.397 125.96 69.1993 125.951 69C125.881 67.8 126.481 67.17 127.741 67.09L131.311 66.88L131.261 66.02H131.741L132.191 66.87L133.521 67.2V67.8L132.111 67.88L132.211 69.65H131.431L131.331 67.88L127.791 68.08C127.496 68.0756 127.21 68.1827 126.991 68.38C126.896 68.4881 126.828 68.6166 126.792 68.7554C126.756 68.8942 126.752 69.0395 126.781 69.18Z" fill="#231F20"/>
<path d="M127.73 75.16C127.47 75.1653 127.214 75.1058 126.983 74.9871C126.753 74.8684 126.556 74.6941 126.41 74.48C126.076 73.9346 125.925 73.297 125.98 72.66C125.972 71.9941 126.122 71.3359 126.42 70.74H127.34C127.011 71.3328 126.823 71.9931 126.79 72.67C126.753 73.0568 126.829 73.446 127.01 73.79C127.079 73.9 127.175 73.9906 127.288 74.0536C127.402 74.1165 127.53 74.1497 127.66 74.15C127.782 74.1528 127.903 74.1261 128.013 74.0721C128.122 74.0181 128.217 73.9385 128.29 73.84C128.536 73.4755 128.737 73.0827 128.89 72.67C129.053 72.2605 129.257 71.8685 129.5 71.5C129.641 71.2927 129.83 71.1215 130.05 71C130.274 70.8932 130.522 70.8451 130.77 70.86C131.013 70.8476 131.255 70.9004 131.472 71.0129C131.688 71.1254 131.87 71.2935 132 71.5C132.302 72.0127 132.438 72.6066 132.39 73.2C132.384 73.8922 132.227 74.5749 131.93 75.2L131.13 74.84C131.387 74.3151 131.537 73.7438 131.57 73.16C131.595 72.834 131.536 72.507 131.4 72.21C131.35 72.109 131.273 72.0238 131.178 71.9638C131.082 71.9037 130.972 71.8713 130.86 71.87C130.752 71.8652 130.645 71.8864 130.548 71.9316C130.45 71.9769 130.365 72.0449 130.3 72.13C130.032 72.5322 129.813 72.9654 129.65 73.42C129.475 73.8039 129.257 74.1663 129 74.5C128.854 74.7164 128.658 74.8948 128.43 75.02C128.211 75.1235 127.971 75.1716 127.73 75.16Z" fill="#231F20"/>
<path d="M121.374 105.82C121.053 105.647 120.777 105.4 120.57 105.099C120.363 104.798 120.231 104.452 120.184 104.09C120.14 103.231 120.387 102.382 120.884 101.68L121.374 100.88L118.664 99.22L119.204 98.34L126.204 102.62L125.004 104.5C123.951 106.22 122.741 106.66 121.374 105.82ZM122.124 101.35L121.694 102.05C121.334 102.55 121.129 103.144 121.104 103.76C121.135 103.999 121.224 104.227 121.364 104.424C121.503 104.621 121.689 104.781 121.904 104.89C122.085 105.021 122.296 105.105 122.517 105.136C122.738 105.168 122.964 105.145 123.174 105.07C123.678 104.826 124.086 104.421 124.334 103.92L124.884 103.04L122.124 101.35Z" fill="#231F20"/>
<path d="M118.846 109.96C118.703 110.155 118.538 110.332 118.356 110.49L117.696 109.83C117.866 109.688 118.021 109.527 118.156 109.35C118.352 109.096 118.47 108.79 118.496 108.47C118.527 108.125 118.461 107.779 118.306 107.47C118.14 107.146 117.904 106.862 117.616 106.64L115.016 104.64L115.626 103.84L120.496 107.58L119.996 108.23L118.996 107.64C119.168 108.023 119.247 108.441 119.226 108.86C119.218 109.257 119.085 109.642 118.846 109.96Z" fill="#231F20"/>
<path d="M111.5 113.37C110.842 112.828 110.417 112.055 110.31 111.21C110.285 110.82 110.346 110.429 110.487 110.065C110.629 109.7 110.848 109.371 111.13 109.1C111.478 108.712 111.929 108.431 112.43 108.29C112.916 108.14 113.435 108.14 113.92 108.29C114.47 108.48 114.971 108.787 115.39 109.19C116.043 109.731 116.468 110.499 116.58 111.34C116.604 111.731 116.542 112.122 116.398 112.487C116.255 112.851 116.034 113.18 115.75 113.45C115.502 113.738 115.195 113.969 114.85 114.128C114.505 114.286 114.13 114.369 113.75 114.37C112.901 114.333 112.097 113.976 111.5 113.37ZM114.68 109.99C114.254 109.536 113.693 109.231 113.08 109.12C112.824 109.099 112.567 109.14 112.331 109.239C112.094 109.338 111.884 109.493 111.72 109.69C111.534 109.865 111.393 110.084 111.312 110.326C111.23 110.569 111.208 110.828 111.25 111.08C111.407 111.689 111.758 112.23 112.25 112.62C112.671 113.072 113.23 113.371 113.84 113.47C114.095 113.49 114.351 113.448 114.587 113.347C114.822 113.245 115.029 113.089 115.19 112.89C116 112.02 115.81 111.06 114.68 109.99Z" fill="#231F20"/>
<path d="M106.516 113.5C106.774 113.261 107.086 113.086 107.425 112.991C107.764 112.895 108.121 112.881 108.466 112.95C109.271 113.167 109.977 113.654 110.466 114.33C111.041 114.939 111.393 115.725 111.466 116.56C111.474 116.916 111.396 117.269 111.24 117.589C111.083 117.91 110.852 118.188 110.566 118.4C110.3 118.643 109.979 118.818 109.63 118.908C109.282 118.999 108.916 119.003 108.566 118.92C108.566 118.97 108.726 119.07 108.886 119.24C109.046 119.41 109.146 119.51 109.196 119.57L110.766 121.45L109.996 122.1L104.336 115.5L104.966 114.98L105.606 115.51C105.567 115.124 105.631 114.736 105.791 114.383C105.951 114.03 106.201 113.725 106.516 113.5ZM106.926 114.25C106.722 114.39 106.552 114.574 106.429 114.789C106.306 115.003 106.233 115.243 106.216 115.49C106.273 116.067 106.528 116.608 106.936 117.02L107.056 117.16C107.422 117.687 107.948 118.084 108.556 118.29C108.804 118.331 109.059 118.313 109.299 118.236C109.539 118.16 109.757 118.027 109.936 117.85C110.124 117.707 110.273 117.518 110.365 117.3C110.458 117.083 110.493 116.845 110.466 116.61C110.374 115.997 110.095 115.428 109.666 114.98C109.307 114.49 108.809 114.12 108.236 113.92C108.008 113.859 107.769 113.856 107.54 113.912C107.311 113.968 107.1 114.081 106.926 114.24V114.25Z" fill="#231F20"/>
<path d="M105.481 122.14L103.341 118.81C103.147 118.462 102.835 118.196 102.461 118.06C102.276 118.027 102.086 118.033 101.903 118.078C101.721 118.123 101.549 118.205 101.401 118.32C101.175 118.44 100.978 118.61 100.826 118.815C100.674 119.021 100.569 119.259 100.521 119.51C100.518 120.107 100.715 120.688 101.081 121.16L102.811 123.86L101.961 124.4L98.6406 119.24L99.3306 118.79L99.8906 119.39C99.8806 119.036 99.9783 118.687 100.171 118.39C100.389 118.054 100.679 117.77 101.021 117.56C101.506 117.192 102.116 117.027 102.721 117.1C103.017 117.184 103.293 117.328 103.532 117.522C103.771 117.716 103.968 117.957 104.111 118.23L106.281 121.61L105.481 122.14Z" fill="#231F20"/>
<path d="M94.8494 121.05C95.1828 120.862 95.5526 120.748 95.9338 120.716C96.315 120.683 96.6988 120.732 97.0594 120.86C97.828 121.214 98.4375 121.841 98.7694 122.62C99.1938 123.369 99.3323 124.247 99.1594 125.09C99.042 125.468 98.8433 125.817 98.5773 126.11C98.3113 126.404 97.9844 126.636 97.6194 126.79C97.3534 126.92 97.0754 127.024 96.7894 127.1C96.5412 127.166 96.2861 127.203 96.0294 127.21L95.9294 126.32C96.385 126.286 96.8314 126.175 97.2494 125.99C97.4973 125.898 97.7185 125.745 97.893 125.546C98.0675 125.347 98.19 125.108 98.2494 124.85C98.3112 124.241 98.1781 123.628 97.8694 123.1C97.6374 122.542 97.2302 122.076 96.7094 121.77C96.4885 121.655 96.2433 121.595 95.9944 121.595C95.7455 121.595 95.5002 121.655 95.2794 121.77C94.7897 122.009 94.3567 122.35 94.0094 122.77L93.6094 121.96C93.9499 121.568 94.3735 121.257 94.8494 121.05Z" fill="#231F20"/>
<path d="M90.655 123.75C90.5135 123.81 90.3765 123.88 90.245 123.96C90.1224 124.022 90.0081 124.099 89.905 124.19L89.625 123.47C89.736 123.369 89.8566 123.278 89.985 123.2C90.1519 123.089 90.3294 122.995 90.515 122.92C90.7386 122.802 90.9866 122.736 91.2395 122.73C91.4925 122.723 91.7435 122.775 91.9731 122.882C92.2026 122.988 92.4043 123.146 92.5625 123.344C92.7207 123.541 92.8311 123.773 92.885 124.02L94.205 127.35L95.015 127.03L95.185 127.47L94.525 128.17L94.635 129.54L94.075 129.76L93.555 128.5L91.905 129.15L91.615 128.42L93.265 127.77L92.005 124.42C91.9162 124.139 91.7229 123.903 91.465 123.76C91.3407 123.694 91.2022 123.658 91.0612 123.656C90.9203 123.655 90.7809 123.687 90.655 123.75Z" fill="#231F20"/>
<path d="M85.2388 126.5C85.1516 126.257 85.127 125.996 85.1672 125.741C85.2074 125.485 85.3111 125.245 85.4688 125.04C85.8781 124.545 86.4354 124.195 87.0588 124.04C87.6997 123.813 88.3866 123.748 89.0588 123.85L89.3288 124.73C88.6639 124.608 87.98 124.639 87.3288 124.82C86.948 124.905 86.6004 125.1 86.3288 125.38C86.244 125.479 86.1866 125.598 86.162 125.726C86.1375 125.854 86.1467 125.987 86.1888 126.11C86.2229 126.227 86.2854 126.334 86.3709 126.422C86.4564 126.509 86.5622 126.574 86.6788 126.61C87.1026 126.728 87.539 126.795 87.9788 126.81C88.4274 126.835 88.8728 126.902 89.3088 127.01C89.5513 127.076 89.7743 127.199 89.9588 127.37C90.1376 127.55 90.2653 127.774 90.3288 128.02C90.4053 128.242 90.4235 128.48 90.3814 128.711C90.3394 128.943 90.2386 129.159 90.0888 129.34C89.692 129.781 89.1735 130.094 88.5988 130.24C87.9521 130.44 87.2699 130.498 86.5988 130.41L86.6988 129.55C87.2743 129.627 87.8595 129.586 88.4188 129.43C88.7393 129.358 89.0336 129.199 89.2688 128.97C89.3503 128.892 89.4084 128.792 89.4367 128.683C89.4649 128.573 89.4622 128.458 89.4288 128.35C89.396 128.247 89.3402 128.153 89.2657 128.075C89.1912 127.997 89.0999 127.937 88.9988 127.9C88.5329 127.77 88.0524 127.699 87.5688 127.69C87.1531 127.679 86.7401 127.619 86.3388 127.51C86.0876 127.438 85.8554 127.312 85.6588 127.14C85.4668 126.966 85.3223 126.745 85.2388 126.5Z" fill="#231F20"/>
<path d="M51.1006 129.11C51.1817 128.754 51.3477 128.422 51.5844 128.143C51.8212 127.865 52.1218 127.647 52.4606 127.51C53.2703 127.23 54.1508 127.23 54.9606 127.51L55.8706 127.77L56.7606 124.77L57.7606 125.05L55.4606 132.91L53.3806 132.3C51.4139 131.72 50.6539 130.657 51.1006 129.11ZM55.6206 128.65L54.8306 128.42C54.2469 128.195 53.6086 128.153 53.0006 128.3C52.7772 128.392 52.5801 128.538 52.4266 128.725C52.2731 128.911 52.168 129.133 52.1206 129.37C52.041 129.579 52.0139 129.804 52.0418 130.025C52.0697 130.247 52.1517 130.458 52.2806 130.64C52.6481 131.06 53.1435 131.348 53.6906 131.46L54.6906 131.76L55.6206 128.65Z" fill="#231F20"/>
<path d="M46.4547 127.76C46.2274 127.672 46.0096 127.562 45.8047 127.43L46.2747 126.61C46.4589 126.741 46.6568 126.851 46.8647 126.94C47.1594 127.059 47.4825 127.091 47.7947 127.03C48.1256 126.966 48.4331 126.814 48.6847 126.59C48.954 126.344 49.1628 126.04 49.2947 125.7L50.5347 122.7L51.4647 123.08L49.1447 128.77L48.3847 128.46L48.7047 127.37C48.3779 127.636 47.9949 127.824 47.5847 127.92C47.2005 127.982 46.8066 127.926 46.4547 127.76Z" fill="#231F20"/>
<path d="M41.2156 121.58C41.5726 120.8 42.2124 120.185 43.0056 119.86C43.3751 119.734 43.7675 119.689 44.1558 119.729C44.5441 119.769 44.9193 119.892 45.2556 120.09C45.7153 120.316 46.1057 120.661 46.3857 121.09C46.6398 121.529 46.7614 122.033 46.7356 122.54C46.6994 123.123 46.5319 123.691 46.2457 124.2C45.898 124.97 45.2732 125.58 44.4957 125.91C44.1251 126.035 43.7316 126.077 43.343 126.034C42.9543 125.991 42.5797 125.863 42.2457 125.66C41.8959 125.495 41.5866 125.256 41.3395 124.959C41.0924 124.662 40.9136 124.314 40.8157 123.94C40.6528 123.131 40.7953 122.29 41.2156 121.58ZM45.3056 123.75C45.6394 123.223 45.7905 122.601 45.7356 121.98C45.6889 121.728 45.5817 121.49 45.4232 121.288C45.2648 121.086 45.0597 120.925 44.8256 120.82C44.609 120.685 44.3626 120.606 44.1081 120.588C43.8536 120.571 43.5986 120.616 43.3656 120.72C42.8208 121.021 42.3889 121.491 42.1357 122.06C41.8039 122.583 41.6594 123.204 41.7257 123.82C41.7765 124.071 41.8864 124.306 42.0465 124.506C42.2065 124.706 42.4119 124.865 42.6456 124.97C43.6956 125.5 44.5856 125.12 45.3056 123.75Z" fill="#231F20"/>
<path d="M39.7916 116.79C40.0821 116.982 40.3237 117.24 40.4973 117.542C40.6709 117.844 40.7717 118.182 40.7916 118.53C40.7993 119.366 40.5166 120.179 39.9916 120.83C39.5578 121.548 38.8906 122.095 38.1016 122.38C37.762 122.48 37.4035 122.498 37.0557 122.432C36.7079 122.365 36.3808 122.218 36.1016 122C35.7971 121.801 35.5466 121.53 35.3721 121.21C35.1977 120.891 35.1048 120.534 35.1016 120.17H35.0416L34.8216 120.56L34.5816 120.95L33.1716 122.95L32.3516 122.37L37.3516 115.24L38.0216 115.7L37.6716 116.46C38.0239 116.33 38.4034 116.293 38.7743 116.35C39.1452 116.408 39.4953 116.559 39.7916 116.79ZM39.1816 117.38C38.9909 117.221 38.7673 117.106 38.527 117.044C38.2866 116.982 38.0355 116.974 37.7916 117.02C37.2492 117.235 36.7949 117.626 36.5016 118.13L36.4016 118.28C35.9883 118.77 35.7429 119.38 35.7016 120.02C35.7299 120.271 35.816 120.511 35.9531 120.723C36.0901 120.935 36.2745 121.112 36.4916 121.24C36.6798 121.384 36.9026 121.477 37.1376 121.508C37.3727 121.54 37.6119 121.509 37.8316 121.42C38.3979 121.17 38.8729 120.751 39.1916 120.22C39.5714 119.745 39.7981 119.166 39.8416 118.56C39.8365 118.324 39.7737 118.093 39.6587 117.888C39.5436 117.682 39.3798 117.508 39.1816 117.38Z" fill="#231F20"/>
<path d="M31.1959 118.08L33.8459 115.14C34.1237 114.876 34.2976 114.521 34.3359 114.14C34.3278 113.945 34.277 113.755 34.1871 113.582C34.0973 113.409 33.9705 113.258 33.8159 113.14C33.6411 112.953 33.426 112.808 33.187 112.716C32.9479 112.624 32.6911 112.588 32.4359 112.61C31.8527 112.768 31.3411 113.121 30.9859 113.61L28.8359 115.98L28.0859 115.3L32.2059 110.74L32.8159 111.3L32.3859 112C32.7129 111.908 33.059 111.908 33.3859 112C33.7611 112.12 34.1034 112.325 34.3859 112.6C34.8655 112.973 35.1811 113.518 35.2659 114.12C35.2644 114.427 35.1997 114.73 35.0758 115.01C34.9519 115.29 34.7716 115.542 34.5459 115.75L31.8459 118.75L31.1959 118.08Z" fill="#231F20"/>
<path d="M29.4416 107.5C29.7123 107.773 29.9211 108.101 30.054 108.461C30.1868 108.822 30.2406 109.207 30.2116 109.59C30.0716 110.424 29.6215 111.174 28.9516 111.69C28.3409 112.293 27.5289 112.649 26.6716 112.69C26.286 112.677 25.9078 112.58 25.5627 112.408C25.2176 112.235 24.9137 111.99 24.6716 111.69C24.476 111.467 24.3019 111.226 24.1516 110.97C24.0186 110.752 23.9176 110.516 23.8516 110.27L24.6816 109.94C24.8322 110.373 25.0591 110.776 25.3516 111.13C25.5088 111.335 25.7121 111.499 25.945 111.61C26.1778 111.722 26.4336 111.776 26.6916 111.77C27.2993 111.67 27.8595 111.379 28.2916 110.94C28.775 110.575 29.1262 110.063 29.2916 109.48C29.3392 109.234 29.3249 108.98 29.2498 108.741C29.1748 108.501 29.0413 108.285 28.8616 108.11C28.5016 107.682 28.0506 107.341 27.5416 107.11L28.2116 106.52C28.6917 106.747 29.1127 107.083 29.4416 107.5Z" fill="#231F20"/>
<path d="M25.7537 104.18C25.6568 104.058 25.5533 103.941 25.4438 103.83C25.3477 103.735 25.244 103.648 25.1337 103.57L25.7537 103.11C25.88 103.187 25.9974 103.277 26.1038 103.38C26.2532 103.514 26.3904 103.661 26.5138 103.82C26.6876 104.005 26.8162 104.227 26.8894 104.47C26.9627 104.713 26.9786 104.969 26.936 105.22C26.8934 105.47 26.7933 105.706 26.6437 105.911C26.4941 106.116 26.299 106.283 26.0737 106.4L23.2137 108.5L23.7337 109.2L23.3438 109.49L22.4937 109.02L21.2038 109.5L20.8438 109.02L22.0037 108.2L20.9438 106.78L21.5737 106.31L22.6337 107.73L25.4737 105.61C25.7205 105.45 25.8988 105.204 25.9737 104.92C25.9943 104.788 25.9852 104.653 25.9471 104.525C25.9091 104.397 25.843 104.279 25.7537 104.18Z" fill="#231F20"/>
<path d="M21.6453 99.69C21.858 99.5405 22.1039 99.4451 22.3618 99.412C22.6197 99.3788 22.8817 99.4091 23.1253 99.5C23.6983 99.7784 24.1728 100.225 24.4853 100.78C24.8619 101.332 25.0987 101.967 25.1753 102.63L24.3953 103.11C24.3389 102.435 24.1303 101.782 23.7853 101.2C23.6027 100.858 23.3248 100.577 22.9853 100.39C22.8716 100.329 22.7445 100.297 22.6153 100.297C22.4862 100.297 22.359 100.329 22.2453 100.39C22.1421 100.456 22.0564 100.546 21.9955 100.652C21.9346 100.758 21.9002 100.878 21.8953 101C21.8875 101.441 21.9345 101.881 22.0353 102.31C22.1302 102.751 22.1838 103.199 22.1953 103.65C22.2123 103.946 22.1465 104.24 22.0053 104.5C21.8799 104.715 21.7007 104.895 21.4853 105.02C21.2902 105.152 21.0645 105.231 20.8297 105.251C20.595 105.27 20.3593 105.228 20.1453 105.13C19.6056 104.875 19.1609 104.454 18.8753 103.93C18.5162 103.36 18.2842 102.718 18.1953 102.05L19.0553 101.91C19.1248 102.49 19.3156 103.049 19.6153 103.55C19.7709 103.84 20.0025 104.082 20.2853 104.25C20.3796 104.31 20.4888 104.341 20.6003 104.341C20.7118 104.341 20.821 104.31 20.9153 104.25C21.0071 104.193 21.0845 104.115 21.1417 104.023C21.1989 103.931 21.2343 103.828 21.2453 103.72C21.2437 103.238 21.1866 102.759 21.0753 102.29C20.9795 101.88 20.9292 101.461 20.9253 101.04C20.9281 100.78 20.9896 100.523 21.1053 100.29C21.2311 100.047 21.417 99.8406 21.6453 99.69Z" fill="#231F20"/>
<path d="M13.2325 84.5C13.3335 85.6486 13.1372 86.8038 12.6626 87.8546C12.188 88.9054 11.451 89.8164 10.5225 90.5L10.0625 90.84H10.6425C11.7922 90.8315 12.9248 91.1185 13.9317 91.6736C14.9386 92.2287 15.786 93.0333 16.3925 94.01C16.2906 92.8613 16.4864 91.7058 16.9611 90.6548C17.4357 89.6038 18.1733 88.6929 19.1025 88.01L19.5525 87.67H19.0025C17.8503 87.6772 16.7154 87.3897 15.7055 86.8349C14.6957 86.2801 13.8444 85.4763 13.2325 84.5Z" fill="#323231"/>
<path d="M31.8709 21.11C32.3393 22.1597 32.531 23.312 32.4277 24.4568C32.3244 25.6017 31.9296 26.701 31.2809 27.65L30.9609 28.12L31.4909 27.93C32.5791 27.5386 33.7498 27.4342 34.8901 27.6268C36.0304 27.8195 37.1018 28.3028 38.0009 29.03C37.5301 27.984 37.3343 26.8351 37.4323 25.6922C37.5304 24.5493 37.9188 23.4505 38.5609 22.5L38.8809 22.03L38.3409 22.22C37.258 22.6022 36.0954 22.7017 34.9633 22.5092C33.8311 22.3167 32.7667 21.8386 31.8709 21.12V21.11Z" fill="#323231"/>
<path d="M100.352 20.21C101.099 21.0858 101.608 22.1392 101.831 23.2688C102.053 24.3984 101.981 25.5662 101.622 26.66L101.452 27.2L101.912 26.86C102.844 26.1899 103.932 25.7685 105.073 25.6355C106.214 25.5025 107.37 25.6624 108.432 26.1C107.689 25.2238 107.182 24.1722 106.96 23.045C106.737 21.9179 106.807 20.7527 107.162 19.66L107.342 19.12L106.882 19.45C105.949 20.1245 104.859 20.5485 103.716 20.6816C102.572 20.8146 101.414 20.6523 100.352 20.21Z" fill="#323231"/>
<path d="M129.089 82.55C128.539 83.5585 127.741 84.4096 126.769 85.0222C125.798 85.6349 124.686 85.9887 123.539 86.05H122.969L123.449 86.36C124.401 86.9966 125.176 87.8646 125.7 88.8826C126.225 89.9006 126.483 91.0352 126.449 92.18C126.999 91.1689 127.798 90.3155 128.772 89.701C129.745 89.0866 130.859 88.7317 132.009 88.67H132.579L132.099 88.36C131.134 87.7343 130.347 86.8715 129.811 85.8543C129.275 84.837 129.009 83.6994 129.039 82.55H129.089Z" fill="#323231"/>
<path d="M72.7709 125.31C72.4865 126.423 71.9218 127.445 71.1306 128.278C70.3394 129.112 69.348 129.728 68.2509 130.07L67.7109 130.24L68.2509 130.42C69.3382 130.794 70.3119 131.44 71.0801 132.296C71.8483 133.151 72.3855 134.189 72.6409 135.31C72.9245 134.196 73.4889 133.174 74.2802 132.34C75.0715 131.507 76.0634 130.891 77.1609 130.55L77.7009 130.38L77.1709 130.19C76.0811 129.821 75.1042 129.179 74.3338 128.324C73.5634 127.47 73.0253 126.432 72.7709 125.31Z" fill="#323231"/>
</g>
<defs>
<clipPath id="clip0_5_2386">
<rect width="142" height="142" fill="white" transform="translate(0 0.5)"/>
</clipPath>
</defs>
</svg>
