<svg width="562" height="257" viewBox="0 0 562 257" fill="none" xmlns="http://www.w3.org/2000/svg">
<path d="M469.122 236.994C466.872 248.514 459.672 255.984 448.872 255.984C436.992 255.984 428.172 246.894 428.172 232.854C428.172 218.274 437.712 207.744 451.212 207.744C461.022 207.744 466.692 213.324 469.122 220.974V200.364C469.122 195.864 467.052 194.514 464.532 194.334V193.884L473.802 192.714L475.062 193.164V248.154C475.062 252.564 477.132 253.914 479.562 254.094V254.544L470.562 255.714L469.122 255.264V236.994ZM434.022 232.944C434.022 245.094 441.312 252.744 451.572 252.744C466.242 252.744 469.122 237.174 469.122 229.074V225.114C468.582 217.734 463.182 210.624 453.372 210.624C442.032 210.624 434.022 220.164 434.022 232.944Z" fill="black"/>
<path d="M386.686 247.885C386.686 252.475 388.216 254.815 391.456 255.265V255.715H376.156V255.265C379.396 254.815 380.926 252.565 380.926 248.245V215.125C380.926 210.625 378.856 209.275 376.336 209.095V208.645L385.156 207.475L386.686 207.925V221.785C388.756 212.875 397.756 204.865 407.026 206.575V212.335C405.856 212.155 404.686 212.065 403.516 212.065C394.336 212.065 386.686 218.455 386.686 225.655V247.885Z" fill="black"/>
<path d="M372.142 231.774C372.142 245.364 362.242 256.164 347.032 256.164C331.822 256.164 321.742 245.364 321.742 231.774C321.742 218.274 331.822 207.204 347.032 207.204C362.242 207.204 372.142 218.274 372.142 231.774ZM327.592 231.774C327.592 244.824 335.332 255.264 347.032 255.264C358.552 255.264 366.292 244.824 366.292 231.774C366.292 218.814 358.552 208.104 347.032 208.104C335.332 208.104 327.592 218.814 327.592 231.774Z" fill="black"/>
<path d="M323.493 207.924C320.433 209.004 318.453 210.174 316.113 215.934L300.003 255.714H299.463L283.353 215.304L266.973 255.714H266.433L250.503 215.934C248.163 210.174 246.003 208.644 244.023 207.924V207.474H258.603V207.924C255.003 208.104 254.643 210.444 256.803 215.934L269.223 247.794L285.423 207.474H286.503L302.253 247.794L315.033 215.934C317.283 210.354 316.203 208.104 313.773 207.924V207.474H323.493V207.924Z" fill="black"/>
<path d="M217.96 243.025C216.07 248.155 209.59 255.985 198.07 255.985C185.2 255.985 175.93 246.085 175.93 231.685C175.93 216.295 186.64 207.115 198.43 207.115C208.42 207.115 215.89 213.685 215.89 221.064V222.145H182.77C182.14 224.665 181.78 227.365 181.78 230.155C181.78 244.105 189.97 253.015 200.59 253.015C209.77 253.015 215.62 246.355 217.42 242.755L217.96 243.025ZM197.53 208.015C190.33 208.015 185.11 213.594 182.95 221.424H210.13C210.13 214.314 205.18 208.015 197.53 208.015Z" fill="black"/>
<path d="M133.124 247.884C133.124 252.474 134.654 254.814 137.894 255.264V255.714H122.594V255.264C125.834 254.814 127.364 252.564 127.364 248.244V200.364C127.364 195.864 125.294 194.514 122.774 194.334V193.884L131.594 192.714L133.124 193.164V223.404C135.464 214.764 142.034 207.204 151.574 207.204C161.024 207.204 167.954 214.674 167.954 225.654V247.704C167.954 252.474 169.484 254.814 172.724 255.264V255.714H157.424V255.264C160.664 254.814 162.194 252.564 162.194 247.884V227.184C162.194 216.384 156.794 210.804 149.144 210.804C139.604 210.804 133.124 219.354 133.124 230.154V247.884Z" fill="black"/>
<path d="M30.7253 249.594C30.7253 253.104 32.2553 254.904 35.4953 255.264V255.714H20.1953V255.264C23.4353 254.904 24.9653 253.284 24.9653 250.134V215.124C24.9653 210.624 22.8953 209.274 20.3753 209.094V208.644L29.1953 207.474L30.7253 207.924V223.404C33.0653 214.764 39.6353 207.204 49.1753 207.204C58.6253 207.204 65.5553 214.674 65.5553 225.654V247.704C65.5553 252.474 67.0853 254.814 70.3253 255.264V255.714H55.0253V255.264C58.2653 254.814 59.7953 252.564 59.7953 247.884V227.184C59.7953 216.384 54.3953 210.804 46.7453 210.804C37.2053 210.804 30.7253 219.354 30.7253 230.154V249.594Z" fill="black"/>
<path d="M443.062 153.49C439.462 161.5 433.613 176.17 423.353 176.17C421.913 176.17 420.293 175.9 418.583 175.36V168.88C420.833 170.23 422.993 170.77 424.973 170.77C432.803 170.77 439.013 162.67 442.253 152.95L424.793 113.71C422.273 108.13 420.293 106.42 418.312 105.7V105.25H432.893V105.7C429.293 105.88 428.662 108.31 431.092 113.71L445.492 145.93L459.893 113.71C462.323 108.31 461.063 105.88 458.633 105.7V105.25H468.353V105.7C465.293 106.78 463.493 108.13 460.973 113.71L443.062 153.49Z" fill="black"/>
<path d="M395.733 145.66C395.733 150.25 397.263 152.59 400.503 153.04V153.49H385.203V153.04C388.443 152.59 389.973 150.34 389.973 146.02V112.9C389.973 108.4 387.903 107.05 385.383 106.87V106.42L394.203 105.25L395.733 105.7V119.56C397.803 110.65 406.803 102.64 416.073 104.35V110.11C414.903 109.93 413.733 109.84 412.563 109.84C403.383 109.84 395.733 116.23 395.733 123.43V145.66Z" fill="black"/>
<path d="M375.96 145.66C375.96 150.25 377.49 152.59 380.73 153.04V153.49H365.43V153.04C368.67 152.59 370.2 150.34 370.2 146.02V98.14C370.2 93.64 368.13 92.29 365.61 92.11V91.66L374.43 90.49L375.96 90.94V145.66Z" fill="black"/>
<path d="M361.397 140.8C359.507 145.93 353.027 153.76 341.507 153.76C328.637 153.76 319.367 143.86 319.367 129.46C319.367 114.07 330.077 104.89 341.867 104.89C351.857 104.89 359.327 111.46 359.327 118.84V119.92H326.207C325.577 122.44 325.217 125.14 325.217 127.93C325.217 141.88 333.407 150.79 344.027 150.79C353.207 150.79 359.057 144.13 360.857 140.53L361.397 140.8ZM340.967 105.79C333.767 105.79 328.547 111.37 326.387 119.2H353.567C353.567 112.09 348.617 105.79 340.967 105.79Z" fill="black"/>
<path d="M321.118 105.7C318.058 106.78 316.078 107.95 313.738 113.71L297.628 153.49H297.088L280.978 113.08L264.598 153.49H264.058L248.128 113.71C245.788 107.95 243.628 106.42 241.648 105.7V105.25H256.228V105.7C252.628 105.88 252.268 108.22 254.428 113.71L266.848 145.57L283.048 105.25H284.128L299.878 145.57L312.658 113.71C314.908 108.13 313.828 105.88 311.398 105.7V105.25H321.118V105.7Z" fill="black"/>
<path d="M243.444 140.8C241.554 145.93 235.074 153.76 223.554 153.76C210.684 153.76 201.414 143.86 201.414 129.46C201.414 114.07 212.124 104.89 223.914 104.89C233.904 104.89 241.374 111.46 241.374 118.84V119.92H208.254C207.624 122.44 207.264 125.14 207.264 127.93C207.264 141.88 215.454 150.79 226.074 150.79C235.254 150.79 241.104 144.13 242.904 140.53L243.444 140.8ZM223.014 105.79C215.814 105.79 210.594 111.37 208.434 119.2H235.614C235.614 112.09 230.664 105.79 223.014 105.79Z" fill="black"/>
<path d="M196.528 95.1699C196.528 97.5999 194.907 100.03 191.577 100.03C188.247 100.03 186.628 97.5999 186.628 95.1699C186.628 92.8299 188.247 90.3999 191.577 90.3999C194.907 90.3999 196.528 92.8299 196.528 95.1699ZM195.358 151.96C195.358 160.15 186.808 172.12 178.438 172.57L179.608 167.53C189.418 167.53 189.598 167.71 189.598 151.33V112.99C189.598 108.49 187.528 107.05 185.008 106.87V106.42L193.828 105.25L195.358 105.7V151.96Z" fill="black"/>
<path d="M156.853 146.2C156.583 148.18 153.433 153.49 147.853 153.49C142.903 153.49 140.563 149.26 140.563 144.85V112.36C140.563 108.94 137.953 106.6 134.173 106.6H133.453V105.61C138.223 105.61 143.803 101.02 145.693 95.4399H146.323V105.25H156.223L155.233 106.6H146.323V144.13C146.323 148.09 148.123 150.34 150.913 150.34C154.063 150.34 155.863 147.46 156.313 146.2C156.403 145.93 156.853 145.93 156.853 146.2Z" fill="black"/>
<path d="M130.762 143.23C130.762 150.34 123.832 154.21 115.192 154.21C106.732 154.21 101.152 150.52 98.4522 150.52L96.7422 136.66H97.1922C99.9822 143.14 105.202 153.4 115.912 153.4C121.942 153.4 127.522 150.16 127.522 145.12C127.522 133.51 98.3622 129.55 98.3622 115.06C98.3622 110.02 101.962 104.62 112.042 104.62C117.982 104.62 122.752 106.51 125.362 106.51L127.882 118.93H127.342C124.912 113.44 118.882 105.79 109.882 105.79C103.312 105.79 101.512 109.84 101.512 112.54C101.512 123.43 130.762 128.65 130.762 143.23Z" fill="black"/>
<path d="M93.155 140.8C91.265 145.93 84.785 153.76 73.265 153.76C60.395 153.76 51.125 143.86 51.125 129.46C51.125 114.07 61.835 104.89 73.625 104.89C83.615 104.89 91.085 111.46 91.085 118.84V119.92H57.965C57.335 122.44 56.975 125.14 56.975 127.93C56.975 141.88 65.165 150.79 75.785 150.79C84.965 150.79 90.815 144.13 92.615 140.53L93.155 140.8ZM72.725 105.79C65.525 105.79 60.305 111.37 58.145 119.2H85.325C85.325 112.09 80.375 105.79 72.725 105.79Z" fill="black"/>
<path d="M46.7719 125.68C46.7719 143.05 32.0119 153.76 15.9919 153.76C12.1219 153.76 8.52188 153.13 4.92188 153.13C3.48188 153.13 2.13188 153.22 0.691875 153.49V153.04C3.30188 152.14 5.01188 148.36 5.01188 143.32V98.05C5.01188 93.64 2.94188 92.29 0.421875 92.11V91.66L9.33188 90.49L10.7719 90.94V123.97C13.0219 112.36 19.7719 105.07 29.1319 105.07C38.9419 105.07 46.7719 113.08 46.7719 125.68ZM10.7719 144.76C10.7719 150.16 13.3819 152.68 18.9619 152.68C30.8419 152.68 40.5619 141.16 40.5619 126.94C40.5619 115.96 34.8019 108.67 26.6119 108.67C17.7919 108.67 11.5819 117.22 10.7719 129.73V144.76Z" fill="black"/>
<path fill-rule="evenodd" clip-rule="evenodd" d="M425.028 255.265C421.788 254.815 420.258 252.475 420.258 247.885V193.165L418.728 192.715L409.908 193.885V194.335C412.428 194.515 414.498 195.865 414.498 200.365V248.245C414.498 252.565 412.968 254.815 409.728 255.265V255.715H425.028V255.265ZM425.428 254.916V256.115H409.328V254.916L409.673 254.868C411.204 254.656 412.285 254.029 412.997 252.981C413.721 251.916 414.098 250.366 414.098 248.245V200.365C414.098 198.17 413.593 196.82 412.851 195.998C412.112 195.179 411.08 194.819 409.88 194.734L409.508 194.707V193.534L418.76 192.307L420.658 192.865V247.885C420.658 250.145 421.037 251.788 421.764 252.91C422.478 254.012 423.559 254.657 425.083 254.868L425.428 254.916Z" fill="black"/>
<path fill-rule="evenodd" clip-rule="evenodd" d="M111.292 255.715C116.872 255.715 120.022 250.405 120.292 248.425C120.292 248.155 119.842 248.155 119.752 248.425C119.302 249.685 117.502 252.565 114.352 252.565C111.562 252.565 109.762 250.315 109.762 246.355V208.825H118.672L119.662 207.475H109.762V197.665H109.132C107.242 203.245 101.662 207.835 96.8922 207.835V208.825H97.6122C101.392 208.825 104.002 211.165 104.002 214.585V247.075C104.002 251.485 106.342 255.715 111.292 255.715ZM110.162 207.075V197.265H108.845L108.753 197.536C107.835 200.248 106.014 202.731 103.837 204.534C101.656 206.341 99.1556 207.435 96.8922 207.435H96.4922V209.225H97.6122C99.4202 209.225 100.917 209.783 101.957 210.719C102.994 211.652 103.602 212.982 103.602 214.585V247.075C103.602 249.344 104.203 251.594 105.471 253.288C106.748 254.995 108.687 256.115 111.292 256.115C114.219 256.115 116.499 254.72 118.071 253.09C119.63 251.473 120.539 249.576 120.689 248.479L120.692 248.452V248.425C120.692 248.232 120.606 248.065 120.465 247.956C120.336 247.857 120.185 247.822 120.056 247.822C119.812 247.822 119.49 247.955 119.374 248.293C119.167 248.871 118.637 249.851 117.785 250.681C116.938 251.507 115.795 252.165 114.352 252.165C113.077 252.165 112.05 251.656 111.33 250.703C110.601 249.738 110.162 248.28 110.162 246.355V209.225H118.875L120.452 207.075H110.162Z" fill="black"/>
<path fill-rule="evenodd" clip-rule="evenodd" d="M7.17344 202.254C10.5034 202.254 12.1234 199.824 12.1234 197.394C12.1234 195.054 10.5034 192.624 7.17344 192.624C3.84344 192.624 2.22344 195.054 2.22344 197.394C2.22344 199.824 3.84344 202.254 7.17344 202.254ZM15.7234 255.264C12.4834 254.814 10.9534 252.474 10.9534 247.884V207.924L9.42344 207.474L0.603438 208.644V209.094C3.12344 209.274 5.19344 210.624 5.19344 215.124V248.244C5.19344 252.564 3.66344 254.814 0.423437 255.264V255.714H15.7234V255.264ZM16.1234 254.916V256.114H0.0234375V254.916L0.36841 254.868C1.89901 254.656 2.98048 254.029 3.69261 252.981C4.41619 251.916 4.79344 250.366 4.79344 248.244V215.124C4.79344 212.93 4.28835 211.58 3.54648 210.757C2.80749 209.939 1.77486 209.579 0.574939 209.493L0.203437 209.467V208.294L9.45493 207.067L11.3534 207.625V247.884C11.3534 250.145 11.7319 251.787 12.4591 252.909C13.1734 254.011 14.2538 254.657 15.7785 254.868L16.1234 254.916ZM11.1943 201.004C10.2919 202.005 8.94358 202.654 7.17344 202.654C5.40329 202.654 4.05495 202.005 3.15255 201.004C2.25657 200.009 1.82344 198.695 1.82344 197.394C1.82344 196.136 2.25863 194.844 3.15421 193.862C4.05613 192.874 5.40344 192.224 7.17344 192.224C8.94344 192.224 10.2907 192.874 11.1927 193.862C12.0882 194.844 12.5234 196.136 12.5234 197.394C12.5234 198.695 12.0903 200.009 11.1943 201.004Z" fill="black"/>
<path fill-rule="evenodd" clip-rule="evenodd" d="M434.002 232.944C434.002 245.094 441.292 252.744 451.552 252.744C466.222 252.744 469.102 237.174 469.102 229.074V225.114C468.562 217.734 463.162 210.624 453.352 210.624C442.012 210.624 434.002 220.164 434.002 232.944ZM465.473 243.762C467.986 238.936 468.702 233.091 468.702 229.074V225.129C468.168 217.928 462.912 211.024 453.352 211.024C442.287 211.024 434.402 220.326 434.402 232.944C434.402 238.94 436.199 243.788 439.226 247.132C442.249 250.474 446.526 252.344 451.552 252.344C458.707 252.344 462.973 248.565 465.473 243.762Z" fill="black"/>
<path fill-rule="evenodd" clip-rule="evenodd" d="M462.46 251.097C465.291 248.369 467.398 244.692 468.702 240.31V255.559L470.506 256.122L479.942 254.896V253.723L479.571 253.696C478.419 253.61 477.407 253.252 476.677 252.443C475.946 251.631 475.442 250.302 475.442 248.154V192.883L473.826 192.306L464.112 193.532V194.707L464.483 194.733C465.683 194.819 466.716 195.179 467.455 195.997C468.197 196.82 468.702 198.17 468.702 200.364V218.727C467.443 215.738 465.62 213.138 463.164 211.178C460.137 208.764 456.177 207.344 451.192 207.344C437.438 207.344 427.752 218.088 427.752 232.854C427.752 239.959 429.984 245.842 433.752 249.955C437.521 254.069 442.805 256.384 448.852 256.384C454.351 256.384 458.952 254.48 462.46 251.097ZM469.102 236.994C468.982 237.606 468.849 238.206 468.702 238.794C466.077 249.287 459.078 255.984 448.852 255.984C436.972 255.984 428.152 246.894 428.152 232.854C428.152 218.274 437.692 207.744 451.192 207.744C460.498 207.744 466.079 212.766 468.702 219.813C468.844 220.194 468.977 220.582 469.102 220.974V200.364C469.102 195.864 467.032 194.514 464.512 194.334V193.884L473.782 192.714L475.042 193.164V248.154C475.042 252.564 477.112 253.914 479.542 254.094V254.544L470.542 255.714L469.102 255.264V236.994Z" fill="black"/>
<path d="M12.1 197.394C12.1 199.824 10.48 202.254 7.15002 202.254C3.82002 202.254 2.20002 199.824 2.20002 197.394C2.20002 195.054 3.82002 192.624 7.15002 192.624C10.48 192.624 12.1 195.054 12.1 197.394Z" fill="black"/>
<path d="M10.93 247.884C10.93 252.474 12.46 254.814 15.7 255.264V255.714H0.400024V255.264C3.64002 254.814 5.17002 252.564 5.17002 248.244V215.124C5.17002 210.624 3.10002 209.274 0.580024 209.094V208.644L9.40002 207.474L10.93 207.924V247.884Z" fill="black"/>
<path d="M425.005 255.264C421.765 254.814 420.235 252.474 420.235 247.884V193.164L418.705 192.714L409.885 193.884V194.334C412.405 194.514 414.475 195.864 414.475 200.364V248.244C414.475 252.564 412.945 254.814 409.705 255.264V255.714H425.005V255.264Z" fill="black"/>
<path d="M111.269 255.714C116.849 255.714 119.999 250.404 120.269 248.424C120.269 248.154 119.819 248.154 119.729 248.424C119.279 249.684 117.479 252.564 114.329 252.564C111.539 252.564 109.739 250.314 109.739 246.354V208.824H118.649L119.639 207.474H109.739V197.664H109.109C107.219 203.244 101.639 207.834 96.8688 207.834V208.824H97.5888C101.369 208.824 103.979 211.164 103.979 214.584V247.074C103.979 251.484 106.319 255.714 111.269 255.714Z" fill="black"/>
<path fill-rule="evenodd" clip-rule="evenodd" d="M393.888 209.883C390.865 212.276 388.44 215.554 387.066 219.13V207.625L385.167 207.067L375.916 208.294V209.467L376.287 209.493C377.487 209.579 378.52 209.939 379.259 210.757C380.001 211.58 380.506 212.93 380.506 215.124V248.244C380.506 250.366 380.129 251.916 379.405 252.981C378.693 254.029 377.612 254.656 376.081 254.868L375.736 254.916V256.114H391.836V254.916L391.491 254.868C389.966 254.657 388.886 254.011 388.172 252.909C387.444 251.787 387.066 250.145 387.066 247.884V225.654C387.066 222.201 388.902 218.909 391.891 216.469C394.879 214.031 398.997 212.464 403.496 212.464C404.645 212.464 405.795 212.553 406.945 212.73L407.406 212.801V206.242L407.079 206.181C402.305 205.301 397.623 206.927 393.888 209.883ZM391.436 255.264C388.196 254.814 386.666 252.474 386.666 247.884V225.654C386.666 218.454 394.316 212.064 403.496 212.064C404.533 212.064 405.569 212.135 406.606 212.276C406.739 212.295 406.873 212.314 407.006 212.334V206.574C398.242 204.958 389.72 212.029 387.066 220.334C386.913 220.814 386.779 221.298 386.666 221.784V207.924L385.136 207.474L376.316 208.644V209.094C378.836 209.274 380.906 210.624 380.906 215.124V248.244C380.906 252.564 379.376 254.814 376.136 255.264V255.714H391.436V255.264Z" fill="black"/>
<path fill-rule="evenodd" clip-rule="evenodd" d="M327.572 231.775C327.572 244.825 335.312 255.265 347.012 255.265C358.532 255.265 366.272 244.825 366.272 231.775C366.272 218.814 358.532 208.105 347.012 208.105C335.312 208.105 327.572 218.814 327.572 231.775ZM347.012 254.865C335.611 254.865 327.972 244.691 327.972 231.775C327.972 218.943 335.615 208.505 347.012 208.505C358.226 208.505 365.872 218.94 365.872 231.775C365.872 244.694 358.231 254.865 347.012 254.865Z" fill="black"/>
<path fill-rule="evenodd" clip-rule="evenodd" d="M347.012 256.565C362.445 256.565 372.522 245.583 372.522 231.775C372.522 218.06 362.45 206.805 347.012 206.805C331.578 206.805 321.322 218.056 321.322 231.775C321.322 245.587 331.583 256.565 347.012 256.565ZM372.122 231.775C372.122 245.365 362.222 256.165 347.012 256.165C331.802 256.165 321.722 245.365 321.722 231.775C321.722 218.275 331.802 207.204 347.012 207.204C362.222 207.204 372.122 218.275 372.122 231.775Z" fill="black"/>
<path fill-rule="evenodd" clip-rule="evenodd" d="M283.33 216.377L267.223 256.114H266.142L250.113 216.085L250.112 216.084C248.952 213.23 247.849 211.454 246.812 210.308C245.782 209.171 244.805 208.642 243.866 208.3L243.603 208.205V207.074H258.983V208.305L258.603 208.324C257.739 208.367 257.121 208.539 256.698 208.815C256.29 209.081 256.03 209.466 255.915 210.02C255.796 210.589 255.83 211.34 256.038 212.308C256.245 213.273 256.619 214.426 257.155 215.788L257.156 215.789L269.209 246.708L285.133 207.074H286.756L302.238 246.708L314.642 215.786C315.76 213.014 316.012 211.152 315.748 209.993C315.619 209.427 315.369 209.039 315.043 208.781C314.713 208.519 314.273 208.364 313.724 208.323L313.353 208.296V207.074H323.873V208.207L323.606 208.302C322.094 208.835 320.9 209.374 319.793 210.46C318.679 211.553 317.625 213.228 316.464 216.085L300.253 256.114H299.172L283.33 216.377ZM316.093 215.934C318.433 210.174 320.413 209.004 323.473 207.924V207.474H313.753V207.924C316.183 208.104 317.263 210.354 315.013 215.934L302.233 247.794L286.483 207.474H285.403L269.203 247.794L256.783 215.934C254.623 210.444 254.983 208.104 258.583 207.924V207.474H244.003V207.924C245.983 208.644 248.143 210.174 250.483 215.934L266.413 255.714H266.953L283.333 215.304L299.443 255.714H299.983L316.093 215.934Z" fill="black"/>
<path fill-rule="evenodd" clip-rule="evenodd" d="M197.509 208.014C190.433 208.014 185.269 213.405 183.043 221.024C183.004 221.157 182.966 221.29 182.929 221.424H210.109C210.109 221.291 210.108 221.158 210.104 221.024C209.922 214.08 205.016 208.014 197.509 208.014ZM197.509 208.414C204.754 208.414 209.523 214.258 209.704 221.024H183.46C185.674 213.562 190.712 208.414 197.509 208.414Z" fill="black"/>
<path fill-rule="evenodd" clip-rule="evenodd" d="M198.409 206.714C208.544 206.714 216.269 213.394 216.269 221.064V222.544H183.063C182.487 224.947 182.159 227.51 182.159 230.154C182.159 243.947 190.229 252.614 200.569 252.614C209.547 252.614 215.283 246.092 217.042 242.576L217.221 242.218L218.439 242.827L218.315 243.163C216.381 248.413 209.774 256.384 198.049 256.384C191.507 256.384 185.863 253.866 181.859 249.505C177.856 245.147 175.509 238.971 175.509 231.684C175.509 216.08 186.392 206.714 198.409 206.714ZM217.939 243.024C216.049 248.154 209.569 255.984 198.049 255.984C185.179 255.984 175.909 246.084 175.909 231.684C175.909 216.294 186.619 207.114 198.409 207.114C208.399 207.114 215.869 213.684 215.869 221.064V222.144H182.749C182.119 224.664 181.759 227.364 181.759 230.154C181.759 244.104 189.949 253.014 200.569 253.014C209.743 253.014 215.591 246.364 217.396 242.762L217.399 242.754L217.939 243.024Z" fill="black"/>
<path fill-rule="evenodd" clip-rule="evenodd" d="M151.546 206.805C142.684 206.805 136.368 213.162 133.496 220.853V192.865L131.597 192.307L122.346 193.534V194.707L122.717 194.733C123.917 194.819 124.95 195.179 125.689 195.997C126.431 196.82 126.936 198.17 126.936 200.365V248.245C126.936 250.366 126.558 251.916 125.835 252.981C125.123 254.029 124.041 254.656 122.511 254.868L122.166 254.916V256.115H138.266V254.916L137.921 254.868C136.396 254.657 135.316 254.011 134.601 252.909C133.874 251.787 133.496 250.145 133.496 247.885V230.155C133.496 219.491 139.873 211.205 149.116 211.205C152.837 211.205 155.982 212.558 158.203 215.202C160.431 217.854 161.766 221.847 161.766 227.185V247.885C161.766 250.191 161.387 251.832 160.661 252.942C159.949 254.03 158.87 254.656 157.341 254.868L156.996 254.916V256.115H173.096V254.916L172.751 254.868C171.227 254.657 170.147 254.012 169.433 252.89C168.705 251.745 168.326 250.057 168.326 247.705V225.655C168.326 214.495 161.255 206.805 151.546 206.805ZM137.866 255.265C134.626 254.815 133.096 252.475 133.096 247.885V230.155C133.096 219.355 139.576 210.805 149.116 210.805C156.766 210.805 162.166 216.385 162.166 227.185V247.885C162.166 252.565 160.636 254.815 157.396 255.265V255.715H172.696V255.265C169.456 254.815 167.926 252.475 167.926 247.705V225.655C167.926 214.674 160.996 207.204 151.546 207.204C142.503 207.204 136.128 213.997 133.496 222.064C133.351 222.507 133.218 222.954 133.096 223.405V193.165L131.566 192.715L122.746 193.885V194.335C125.266 194.515 127.336 195.865 127.336 200.365V248.245C127.336 252.565 125.806 254.815 122.566 255.265V255.715H137.866V255.265Z" fill="black"/>
<path fill-rule="evenodd" clip-rule="evenodd" d="M29.2065 207.067L31.105 207.625V220.853C33.9774 213.162 40.2933 206.805 49.155 206.805C58.8648 206.805 65.935 214.495 65.935 225.655V247.705C65.935 250.057 66.3143 251.745 67.0425 252.89C67.7569 254.012 68.8361 254.657 70.3601 254.868L70.705 254.916V256.115H54.605V254.916L54.95 254.868C56.4793 254.656 57.5581 254.03 58.2703 252.942C58.996 251.832 59.375 250.191 59.375 247.885V227.185C59.375 221.847 58.0406 217.854 55.8125 215.202C53.591 212.558 50.4462 211.205 46.725 211.205C37.482 211.205 31.105 219.491 31.105 230.155V249.595C31.105 251.297 31.4766 252.518 32.1808 253.353C32.8813 254.184 33.9635 254.694 35.5192 254.867L35.875 254.906V256.115H19.775V254.906L20.1309 254.867C21.6975 254.693 22.7841 254.221 23.4826 253.473C24.1784 252.727 24.545 251.647 24.545 250.135V215.125C24.545 212.93 24.0399 211.58 23.2981 210.757C22.5591 209.939 21.5264 209.579 20.3265 209.493L19.955 209.467V208.294L29.2065 207.067ZM30.705 249.595C30.705 253.105 32.235 254.905 35.475 255.265V255.715H20.175V255.265C23.415 254.905 24.945 253.285 24.945 250.135V215.125C24.945 210.624 22.875 209.275 20.355 209.095V208.645L29.175 207.475L30.705 207.924V223.405C30.8269 222.954 30.9603 222.507 31.105 222.064C33.7377 213.997 40.112 207.204 49.155 207.204C58.605 207.204 65.535 214.674 65.535 225.655V247.705C65.535 252.475 67.065 254.815 70.305 255.265V255.715H55.005V255.265C58.245 254.815 59.775 252.565 59.775 247.885V227.185C59.775 216.385 54.375 210.805 46.725 210.805C37.185 210.805 30.705 219.355 30.705 230.155V249.595Z" fill="black"/>
<path fill-rule="evenodd" clip-rule="evenodd" d="M179.292 167.13L177.93 172.998L178.461 172.969C182.816 172.735 187.141 169.523 190.354 165.414C193.571 161.298 195.76 156.173 195.76 151.96V105.401L193.861 104.842L184.61 106.07V107.242L184.981 107.269C186.175 107.354 187.208 107.733 187.95 108.574C188.695 109.42 189.2 110.796 189.2 112.99V151.33C189.2 155.43 189.188 158.473 189.019 160.742C188.85 163.023 188.524 164.447 187.946 165.358C187.391 166.231 186.571 166.68 185.242 166.908C183.941 167.131 182.221 167.13 179.898 167.13L179.292 167.13ZM195.36 151.96C195.36 160.014 187.092 171.723 178.858 172.538C178.718 172.552 178.579 172.563 178.44 172.57L179.61 167.53L179.926 167.53C189.424 167.532 189.6 167.532 189.6 151.33V112.99C189.6 108.49 187.53 107.05 185.01 106.87V106.42L193.83 105.25L195.36 105.7V151.96Z" fill="black"/>
<path fill-rule="evenodd" clip-rule="evenodd" d="M191.58 100.43C193.35 100.43 194.698 99.7803 195.601 98.779C196.497 97.7849 196.93 96.4704 196.93 95.17C196.93 93.9113 196.494 92.6193 195.599 91.6379C194.697 90.6495 193.35 90 191.58 90C189.81 90 188.462 90.6495 187.56 91.6379C186.665 92.6193 186.23 93.9113 186.23 95.17C186.23 96.4704 186.663 97.7849 187.559 98.779C188.461 99.7803 189.81 100.43 191.58 100.43ZM196.53 95.17C196.53 97.6 194.91 100.03 191.58 100.03C188.25 100.03 186.63 97.6 186.63 95.17C186.63 92.83 188.25 90.4 191.58 90.4C194.91 90.4 196.53 92.83 196.53 95.17Z" fill="black"/>
<path fill-rule="evenodd" clip-rule="evenodd" d="M365.376 152.644L365.031 152.692V153.89H381.131V152.692L380.786 152.644C379.262 152.432 378.181 151.787 377.467 150.685C376.74 149.563 376.361 147.92 376.361 145.66V90.6407L374.463 90.0823L365.211 91.3096V92.4825L365.583 92.509C366.783 92.5947 367.815 92.9541 368.554 93.773C369.296 94.5951 369.801 95.9455 369.801 98.14V146.02C369.801 148.142 369.424 149.692 368.7 150.756C367.988 151.804 366.907 152.431 365.376 152.644ZM375.961 145.66C375.961 150.25 377.491 152.59 380.731 153.04V153.49H365.431V153.04C368.671 152.59 370.201 150.34 370.201 146.02V98.14C370.201 93.64 368.131 92.29 365.611 92.11V91.66L374.431 90.49L375.961 90.94V145.66Z" fill="black"/>
<path fill-rule="evenodd" clip-rule="evenodd" d="M402.964 107.659C399.941 110.051 397.517 113.33 396.142 116.905V105.401L394.244 104.842L384.992 106.07V107.242L385.364 107.269C386.564 107.355 387.597 107.714 388.336 108.533C389.077 109.355 389.582 110.705 389.582 112.9V146.02C389.582 148.142 389.205 149.692 388.482 150.756C387.77 151.804 386.688 152.431 385.157 152.644L384.812 152.692V153.89H400.913V152.692L400.568 152.644C399.043 152.432 397.962 151.787 397.248 150.685C396.521 149.563 396.142 147.92 396.142 145.66V123.43C396.142 119.977 397.978 116.685 400.968 114.245C403.956 111.806 408.074 110.24 412.573 110.24C413.722 110.24 414.872 110.328 416.022 110.505L416.482 110.576V104.017L416.155 103.957C411.381 103.076 406.7 104.702 402.964 107.659ZM400.512 153.04C397.272 152.59 395.742 150.25 395.742 145.66V123.43C395.742 116.23 403.392 109.84 412.573 109.84C413.609 109.84 414.646 109.911 415.682 110.052C415.816 110.07 415.949 110.089 416.082 110.11V104.35C407.319 102.733 398.796 109.804 396.142 118.11C395.989 118.59 395.856 119.073 395.742 119.56V105.7L394.212 105.25L385.392 106.42V106.87C387.913 107.05 389.982 108.4 389.982 112.9V146.02C389.982 150.34 388.452 152.59 385.212 153.04V153.49H400.512V153.04Z" fill="black"/>
<path fill-rule="evenodd" clip-rule="evenodd" d="M441.825 152.97C440.219 157.737 437.899 162.081 435.039 165.236C432.15 168.424 428.74 170.37 424.974 170.37C423.07 170.37 420.981 169.852 418.79 168.537L418.184 168.173V175.653L418.464 175.741C420.205 176.291 421.866 176.57 423.354 176.57C428.692 176.57 432.824 172.754 436.037 168.06C438.865 163.926 441.045 159.016 442.749 155.18L442.754 155.167C442.988 154.641 443.213 154.135 443.429 153.654L461.339 113.875C462.592 111.1 463.648 109.418 464.747 108.298C465.836 107.188 466.988 106.606 468.487 106.077L468.754 105.983V104.85H458.234V106.071L458.605 106.099C459.149 106.139 459.601 106.303 459.948 106.58C460.292 106.856 460.558 107.264 460.698 107.841C460.981 109.016 460.732 110.873 459.529 113.546L459.529 113.547L445.494 144.95L431.459 113.547L431.459 113.546C430.858 112.21 430.452 111.072 430.234 110.116C430.015 109.158 429.99 108.409 430.122 107.838C430.252 107.281 430.534 106.883 430.968 106.605C431.415 106.319 432.052 106.143 432.914 106.099L433.294 106.08V104.85H417.914V105.98L418.177 106.076C420.005 106.741 421.925 108.329 424.43 113.875L441.825 152.97ZM442.382 155.021L442.385 155.014L442.389 155.004C442.622 154.478 442.847 153.972 443.064 153.49L460.974 113.71C463.494 108.13 465.294 106.78 468.354 105.7V105.25H458.634V105.7C461.064 105.88 462.324 108.31 459.894 113.71L445.494 145.93L431.094 113.71C428.664 108.31 429.294 105.88 432.894 105.7V105.25H418.314V105.7C420.294 106.42 422.274 108.13 424.794 113.71L442.254 152.95C439.014 162.67 432.804 170.77 424.974 170.77C423.112 170.77 421.09 170.292 418.984 169.112C418.851 169.037 418.718 168.96 418.584 168.88V175.36C420.294 175.9 421.914 176.17 423.354 176.17C432.99 176.17 438.736 163.23 442.382 155.021Z" fill="black"/>
<path fill-rule="evenodd" clip-rule="evenodd" d="M326.502 118.8C328.728 111.181 333.892 105.79 340.969 105.79C348.475 105.79 353.382 111.855 353.564 118.8C353.567 118.933 353.569 119.066 353.569 119.2H326.389C326.426 119.066 326.464 118.933 326.502 118.8ZM340.969 106.19C334.172 106.19 329.134 111.337 326.919 118.8H353.163C352.982 112.034 348.213 106.19 340.969 106.19Z" fill="black"/>
<path fill-rule="evenodd" clip-rule="evenodd" d="M325.619 127.93C325.619 125.286 325.946 122.723 326.523 120.32H359.729V118.84C359.729 111.17 352.003 104.49 341.869 104.49C329.852 104.49 318.969 113.855 318.969 129.46C318.969 136.746 321.315 142.922 325.318 147.281C329.323 151.641 334.966 154.16 341.509 154.16C353.233 154.16 359.84 146.188 361.774 140.938L361.898 140.602L360.68 139.993L360.501 140.351C358.743 143.868 353.006 150.39 344.029 150.39C333.688 150.39 325.619 141.723 325.619 127.93ZM341.509 153.76C353.029 153.76 359.509 145.93 361.399 140.8L360.859 140.53C359.059 144.13 353.209 150.79 344.029 150.79C333.409 150.79 325.219 141.88 325.219 127.93C325.219 125.14 325.579 122.44 326.209 119.92H359.329V118.84C359.329 111.46 351.859 104.89 341.869 104.89C330.079 104.89 319.369 114.07 319.369 129.46C319.369 143.86 328.639 153.76 341.509 153.76Z" fill="black"/>
<path fill-rule="evenodd" clip-rule="evenodd" d="M264.869 153.89L280.977 114.152L296.819 153.89H297.9L314.111 113.861C315.271 111.003 316.326 109.328 317.44 108.236C318.547 107.15 319.741 106.611 321.253 106.077L321.52 105.983V104.85H311V106.071L311.37 106.099C311.92 106.14 312.36 106.295 312.69 106.556C313.016 106.815 313.266 107.202 313.395 107.769C313.659 108.928 313.406 110.789 312.289 113.561L299.885 144.483L284.403 104.85H282.78L266.856 144.483L254.803 113.565L254.802 113.564C254.266 112.201 253.892 111.048 253.685 110.084C253.477 109.115 253.443 108.365 253.562 107.795C253.677 107.242 253.937 106.857 254.345 106.59C254.768 106.314 255.386 106.143 256.25 106.099L256.63 106.08V104.85H241.25V105.98L241.513 106.076C242.452 106.417 243.429 106.946 244.459 108.083C245.496 109.229 246.599 111.005 247.759 113.859L247.759 113.861L263.789 153.89H264.869ZM321.12 105.7C318.06 106.78 316.08 107.95 313.74 113.71L297.63 153.49H297.09L280.98 113.08L264.6 153.49H264.06L248.13 113.71C245.79 107.95 243.63 106.42 241.65 105.7V105.25H256.23V105.7C252.63 105.88 252.27 108.22 254.43 113.71L266.85 145.57L283.05 105.25H284.13L299.88 145.57L312.66 113.71C314.91 108.13 313.83 105.88 311.4 105.7V105.25H321.12V105.7Z" fill="black"/>
<path fill-rule="evenodd" clip-rule="evenodd" d="M208.549 118.8C210.775 111.181 215.939 105.79 223.016 105.79C230.522 105.79 235.429 111.855 235.61 118.8C235.614 118.933 235.616 119.066 235.616 119.2H208.436C208.473 119.066 208.51 118.933 208.549 118.8ZM223.016 106.19C216.219 106.19 211.181 111.337 208.966 118.8H235.21C235.029 112.034 230.26 106.19 223.016 106.19Z" fill="black"/>
<path fill-rule="evenodd" clip-rule="evenodd" d="M207.666 127.93C207.666 125.286 207.993 122.723 208.569 120.32H241.776V118.84C241.776 111.17 234.05 104.49 223.916 104.49C211.899 104.49 201.016 113.855 201.016 129.46C201.016 136.746 203.362 142.922 207.365 147.281C211.37 151.641 217.013 154.16 223.556 154.16C235.28 154.16 241.887 146.188 243.821 140.938L243.945 140.602L242.727 139.993L242.548 140.351C240.789 143.868 235.053 150.39 226.076 150.39C215.735 150.39 207.666 141.723 207.666 127.93ZM223.556 153.76C235.076 153.76 241.556 145.93 243.446 140.8L242.906 140.53L242.902 140.538C241.097 144.14 235.249 150.79 226.076 150.79C215.456 150.79 207.266 141.88 207.266 127.93C207.266 125.14 207.626 122.44 208.256 119.92H241.376V118.84C241.376 111.46 233.906 104.89 223.916 104.89C212.126 104.89 201.416 114.07 201.416 129.46C201.416 143.86 210.686 153.76 223.556 153.76Z" fill="black"/>
<path fill-rule="evenodd" clip-rule="evenodd" d="M155.437 107L157.014 104.85H146.725V95.04H145.408L145.316 95.3117C144.397 98.0238 142.577 100.506 140.4 102.309C138.218 104.116 135.718 105.21 133.455 105.21H133.055V107H134.175C135.983 107 137.48 107.559 138.52 108.495C139.556 109.428 140.165 110.758 140.165 112.36V144.85C140.165 147.119 140.766 149.37 142.033 151.063C143.31 152.77 145.25 153.89 147.855 153.89C150.782 153.89 153.062 152.495 154.634 150.865C156.193 149.248 157.101 147.351 157.251 146.254L157.255 146.227V146.2C157.255 146.007 157.168 145.841 157.028 145.732C156.899 145.632 156.747 145.597 156.618 145.597C156.374 145.597 156.052 145.731 155.937 146.069C155.73 146.646 155.199 147.626 154.348 148.456C153.5 149.283 152.358 149.94 150.915 149.94C149.639 149.94 148.612 149.432 147.893 148.479C147.163 147.513 146.725 146.056 146.725 144.13V107H155.437ZM147.855 153.49C153.435 153.49 156.585 148.18 156.855 146.2C156.855 145.93 156.405 145.93 156.315 146.2C155.865 147.46 154.065 150.34 150.915 150.34C148.125 150.34 146.325 148.09 146.325 144.13V106.6H155.235L156.225 105.25H146.325V95.44H145.695C143.805 101.02 138.225 105.61 133.455 105.61V106.6H134.175C137.955 106.6 140.565 108.94 140.565 112.36V144.85C140.565 149.26 142.905 153.49 147.855 153.49Z" fill="black"/>
<path fill-rule="evenodd" clip-rule="evenodd" d="M96.2891 136.26L98.0978 150.92H98.4514C99.0535 150.92 99.8516 151.129 100.89 151.476C101.345 151.628 101.836 151.803 102.367 151.992L102.57 152.064C103.178 152.281 103.834 152.513 104.536 152.745C107.347 153.674 110.902 154.61 115.191 154.61C119.564 154.61 123.54 153.632 126.437 151.72C129.347 149.8 131.161 146.936 131.161 143.23C131.161 139.437 129.255 136.281 126.472 133.531C123.693 130.784 120 128.403 116.346 126.16C115.81 125.832 115.276 125.506 114.745 125.183C111.636 123.288 108.655 121.472 106.335 119.57C103.612 117.337 101.911 115.072 101.911 112.54C101.911 111.271 102.335 109.689 103.524 108.427C104.705 107.173 106.683 106.19 109.881 106.19C118.64 106.19 124.568 113.651 126.976 119.092L127.081 119.33H128.371L125.688 106.11H125.361C124.75 106.11 123.994 105.999 123.091 105.822C122.555 105.717 121.982 105.593 121.366 105.459L121.365 105.459C120.941 105.367 120.498 105.271 120.032 105.173C117.762 104.699 115.053 104.22 112.041 104.22C106.931 104.22 103.404 105.59 101.151 107.655C98.897 109.721 97.9614 112.444 97.9614 115.06C97.9614 118.833 99.8647 121.895 102.643 124.528C105.415 127.154 109.099 129.392 112.74 131.515C113.142 131.75 113.543 131.983 113.942 132.215L113.948 132.218C117.185 134.098 120.308 135.911 122.712 137.873C125.418 140.08 127.121 142.402 127.121 145.12C127.121 147.474 125.823 149.432 123.755 150.818C121.682 152.207 118.861 153 115.911 153C110.703 153 106.821 150.511 103.881 147.195C100.933 143.87 98.9509 139.735 97.5588 136.502L97.4547 136.26H96.2891ZM130.761 143.23C130.761 150.34 123.831 154.21 115.191 154.21C109.785 154.21 105.555 152.703 102.501 151.615C100.776 151.001 99.4261 150.52 98.4514 150.52L96.7414 136.66H97.1914C99.9814 143.14 105.201 153.4 115.911 153.4C121.941 153.4 127.521 150.16 127.521 145.12C127.521 139.636 121.016 135.859 114.151 131.873C106.481 127.42 98.3614 122.706 98.3614 115.06C98.3614 110.02 101.961 104.62 112.041 104.62C115.614 104.62 118.763 105.303 121.273 105.848C122.937 106.21 124.321 106.51 125.361 106.51L127.881 118.93H127.341C124.911 113.44 118.881 105.79 109.881 105.79C103.311 105.79 101.511 109.84 101.511 112.54C101.511 117.588 107.798 121.418 114.542 125.527C122.345 130.281 130.761 135.409 130.761 143.23Z" fill="black"/>
<path fill-rule="evenodd" clip-rule="evenodd" d="M58.2601 118.8C60.4858 111.181 65.6498 105.79 72.7266 105.79C80.2328 105.79 85.1395 111.855 85.3213 118.8C85.3248 118.933 85.3266 119.066 85.3266 119.2H58.1466C58.1835 119.066 58.2214 118.933 58.2601 118.8ZM72.7266 106.19C65.9296 106.19 60.8915 111.337 58.6771 118.8H84.9212C84.74 112.034 79.9709 106.19 72.7266 106.19Z" fill="black"/>
<path fill-rule="evenodd" clip-rule="evenodd" d="M57.3766 127.93C57.3766 125.286 57.704 122.723 58.2804 120.32H91.4866V118.84C91.4866 111.17 83.7611 104.49 73.6266 104.49C61.6096 104.49 50.7266 113.855 50.7266 129.46C50.7266 136.746 53.0727 142.922 57.0757 147.281C61.0806 151.641 66.724 154.16 73.2666 154.16C84.9907 154.16 91.5977 146.188 93.5319 140.938L93.6557 140.602L92.4377 139.993L92.2588 140.351C90.5004 143.868 84.7642 150.39 75.7866 150.39C65.446 150.39 57.3766 141.723 57.3766 127.93ZM73.2666 153.76C84.7866 153.76 91.2666 145.93 93.1566 140.8L92.6166 140.53C90.8166 144.13 84.9666 150.79 75.7866 150.79C65.1666 150.79 56.9766 141.88 56.9766 127.93C56.9766 125.14 57.3366 122.44 57.9666 119.92H91.0866V118.84C91.0866 111.46 83.6166 104.89 73.6266 104.89C61.8366 104.89 51.1266 114.07 51.1266 129.46C51.1266 143.86 60.3966 153.76 73.2666 153.76Z" fill="black"/>
<path fill-rule="evenodd" clip-rule="evenodd" d="M10.7734 144.76C10.7734 150.16 13.3834 152.68 18.9634 152.68C30.8434 152.68 40.5634 141.16 40.5634 126.94C40.5634 115.96 34.8034 108.67 26.6134 108.67C17.7934 108.67 11.5834 117.22 10.7734 129.73V144.76ZM18.9634 152.28C16.2251 152.28 14.2988 151.661 13.0539 150.457C11.8119 149.257 11.1734 147.402 11.1734 144.76V129.743C11.5765 123.549 13.3139 118.369 16.0105 114.748C18.7032 111.132 22.3485 109.07 26.6134 109.07C30.578 109.07 33.9509 110.83 36.3429 113.932C38.7406 117.041 40.1634 121.516 40.1634 126.94C40.1634 141.007 30.5603 152.28 18.9634 152.28Z" fill="black"/>
<path fill-rule="evenodd" clip-rule="evenodd" d="M9.36868 90.0819L11.1734 90.6459V120.592C14.0135 110.788 20.4452 104.67 29.1334 104.67C39.2069 104.67 47.1734 112.904 47.1734 125.68C47.1734 143.329 32.1718 154.16 15.9934 154.16C14.0388 154.16 12.1549 154.001 10.323 153.844L10.2307 153.836C8.42587 153.681 6.67337 153.53 4.92344 153.53C3.5012 153.53 2.17684 153.619 0.767153 153.883L0.293438 153.972V152.755L0.563041 152.662C1.72633 152.261 2.73941 151.198 3.46697 149.569C4.19246 147.945 4.61344 145.798 4.61344 143.32V98.05C4.61344 95.9024 4.10929 94.5748 3.36812 93.7635C2.62887 92.9543 1.59511 92.5947 0.394938 92.509L0.0234375 92.4824V91.3091L9.36868 90.0819ZM46.7734 125.68C46.7734 143.05 32.0134 153.76 15.9934 153.76C14.0235 153.76 12.1234 153.597 10.2578 153.436C8.45836 153.282 6.6909 153.13 4.92344 153.13C3.6175 153.13 2.38559 153.204 1.09344 153.419C0.960787 153.441 0.827503 153.465 0.693437 153.49V153.04C3.30344 152.14 5.01344 148.36 5.01344 143.32V98.05C5.01344 93.64 2.94344 92.29 0.423437 92.11V91.66L9.33344 90.49L10.7734 90.94V123.97C10.894 123.348 11.0274 122.739 11.1734 122.142C13.754 111.6 20.2748 105.07 29.1334 105.07C38.9434 105.07 46.7734 113.08 46.7734 125.68Z" fill="black"/>
<mask id="mask0_5_2529" style="mask-type:alpha" maskUnits="userSpaceOnUse" x="232" y="14" width="52" height="51">
<path fill-rule="evenodd" clip-rule="evenodd" d="M283.895 39.5501C283.895 53.3591 273.818 64.3401 258.385 64.3401C242.956 64.3401 232.695 53.3629 232.695 39.5501C232.695 25.832 242.952 14.5801 258.385 14.5801C273.823 14.5801 283.895 25.8359 283.895 39.5501ZM239.345 39.5501C239.345 52.4665 246.984 62.6401 258.385 62.6401C269.604 62.6401 277.245 52.4692 277.245 39.5501C277.245 26.7156 269.6 16.2801 258.385 16.2801C246.989 16.2801 239.345 26.7183 239.345 39.5501Z" fill="black"/>
</mask>
<g mask="url(#mask0_5_2529)">
<rect x="258.609" y="14.5801" width="26.4609" height="50.2123" fill="black"/>
</g>
<path d="M561.35 50.7999C559.46 55.9299 552.98 63.7599 541.46 63.7599C528.59 63.7599 519.32 53.8599 519.32 39.4599C519.32 24.0699 530.03 14.8899 541.82 14.8899C551.81 14.8899 559.28 21.4599 559.28 28.8399V29.9199H526.16C525.53 32.4399 525.17 35.1399 525.17 37.9299C525.17 51.8799 533.36 60.7899 543.98 60.7899C553.16 60.7899 559.01 54.1299 560.81 50.5299L561.35 50.7999ZM540.92 15.7899C533.72 15.7899 528.5 21.3699 526.34 29.1999H553.52C553.52 22.0899 548.57 15.7899 540.92 15.7899Z" fill="black"/>
<path d="M476.514 55.66C476.514 60.25 478.044 62.59 481.284 63.04V63.49H465.984V63.04C469.224 62.59 470.754 60.34 470.754 56.02V8.13999C470.754 3.63999 468.684 2.28999 466.164 2.10999V1.65999L474.984 0.48999L476.514 0.93999V31.18C478.854 22.54 485.424 14.98 494.964 14.98C504.414 14.98 511.344 22.45 511.344 33.43V55.48C511.344 60.25 512.874 62.59 516.114 63.04V63.49H500.814V63.04C504.054 62.59 505.584 60.34 505.584 55.66V34.96C505.584 24.16 500.184 18.58 492.534 18.58C482.994 18.58 476.514 27.13 476.514 37.93V55.66Z" fill="black"/>
<path d="M463.689 56.1999C463.419 58.1799 460.269 63.4899 454.689 63.4899C449.739 63.4899 447.399 59.2599 447.399 54.8499V22.3599C447.399 18.9399 444.789 16.5999 441.009 16.5999H440.289V15.6099C445.059 15.6099 450.639 11.0199 452.529 5.43994H453.159V15.2499H463.059L462.069 16.5999H453.159V54.1299C453.159 58.0899 454.959 60.3399 457.749 60.3399C460.899 60.3399 462.699 57.4599 463.149 56.1999C463.239 55.9299 463.689 55.9299 463.689 56.1999Z" fill="black"/>
<path d="M388.858 55.6599C388.858 60.2499 390.388 62.5899 393.628 63.0399V63.4899H378.328V63.0399C381.568 62.5899 383.098 60.3399 383.098 56.0199V22.8999C383.098 18.3999 381.028 17.0499 378.508 16.8699V16.4199L387.328 15.2499L388.858 15.6999V29.5599C390.928 20.6499 399.928 12.6399 409.198 14.3499V20.1099C408.028 19.9299 406.858 19.8399 405.688 19.8399C396.508 19.8399 388.858 26.2299 388.858 33.4299V55.6599Z" fill="black"/>
<path d="M374.288 50.7999C372.398 55.9299 365.918 63.7599 354.398 63.7599C341.528 63.7599 332.258 53.8599 332.258 39.4599C332.258 24.0699 342.968 14.8899 354.758 14.8899C364.748 14.8899 372.218 21.4599 372.218 28.8399V29.9199H339.098C338.468 32.4399 338.108 35.1399 338.108 37.9299C338.108 51.8799 346.298 60.7899 356.918 60.7899C366.098 60.7899 371.948 54.1299 373.748 50.5299L374.288 50.7999ZM353.858 15.7899C346.658 15.7899 341.438 21.3699 339.278 29.1999H366.458C366.458 22.0899 361.508 15.7899 353.858 15.7899Z" fill="black"/>
<path d="M333.61 15.7C330.55 16.78 328.75 18.13 326.23 23.71L308.32 63.49H307.78L290.05 23.71C287.53 18.13 285.55 16.42 283.57 15.7V15.25H298.15V15.7C294.55 15.88 293.92 18.31 296.35 23.71L310.75 55.93L325.15 23.71C327.58 18.31 326.32 15.88 323.89 15.7V15.25H333.61V15.7Z" fill="black"/>
<path d="M159.532 50.8001C157.642 55.9301 150.982 63.7601 139.282 63.7601C126.052 63.7601 116.602 53.8601 116.602 39.5501C116.602 23.8901 127.942 15.0701 139.912 15.0701C147.382 15.0701 151.972 18.4901 154.582 18.4901C155.482 18.4901 156.202 18.1301 156.652 17.1401H157.012V32.0801H156.472C155.482 25.9601 149.452 15.9701 140.002 15.9701C131.362 15.9701 122.452 24.1601 122.452 38.2001C122.452 51.8801 130.822 60.7901 141.712 60.7901C151.162 60.7901 157.192 54.1301 158.992 50.5301L159.532 50.8001Z" fill="black"/>
<path d="M113.004 53.2299C113.004 60.3399 106.074 64.2099 97.4344 64.2099C88.9744 64.2099 83.3944 60.5199 80.6944 60.5199L78.9844 46.6599H79.4344C82.2244 53.1399 87.4444 63.3999 98.1544 63.3999C104.184 63.3999 109.764 60.1599 109.764 55.1199C109.764 43.5099 80.6044 39.5499 80.6044 25.0599C80.6044 20.0199 84.2044 14.6199 94.2844 14.6199C100.224 14.6199 104.994 16.5099 107.604 16.5099L110.124 28.9299H109.584C107.154 23.4399 101.124 15.7899 92.1244 15.7899C85.5544 15.7899 83.7544 19.8399 83.7544 22.5399C83.7544 33.4299 113.004 38.6499 113.004 53.2299Z" fill="black"/>
<path d="M71.3562 5.16991C71.3562 7.5999 69.7363 10.0299 66.4062 10.0299C63.0763 10.0299 61.4562 7.5999 61.4562 5.16991C61.4562 2.8299 63.0763 0.399902 66.4062 0.399902C69.7363 0.399902 71.3562 2.8299 71.3562 5.16991ZM70.1862 55.6599C70.1862 60.2499 71.7163 62.5899 74.9563 63.0399V63.4899H59.6562V63.0399C62.8963 62.5899 64.4262 60.3399 64.4262 56.0199V22.8999C64.4262 18.3999 62.3563 17.0499 59.8363 16.8699V16.4199L68.6562 15.2499L70.1862 15.6999V55.6599Z" fill="black"/>
<path d="M55.5919 30.64C55.5919 49.99 41.5519 63.49 21.6619 63.49H0.421875V63.04C3.12188 61.51 3.48188 58.54 3.48188 56.02V7.95999C3.48188 5.43999 3.12188 2.46999 0.421875 0.93999V0.48999H23.1919C43.3519 0.48999 55.5919 12.64 55.5919 30.64ZM9.24188 1.38999V62.59H22.7419C38.4919 62.59 49.8319 49.72 49.8319 30.55C49.8319 12.73 40.1119 1.38999 24.1819 1.38999H9.24188Z" fill="black"/>
<path fill-rule="evenodd" clip-rule="evenodd" d="M541.462 63.76C552.982 63.76 559.462 55.93 561.352 50.8L560.812 50.53C559.012 54.13 553.162 60.79 543.982 60.79C533.362 60.79 525.172 51.88 525.172 37.93C525.172 35.14 525.532 32.44 526.162 29.92H559.282V28.84C559.282 21.46 551.812 14.89 541.822 14.89C530.032 14.89 519.322 24.07 519.322 39.46C519.322 53.86 528.592 63.76 541.462 63.76ZM526.476 30.32H559.682V28.84C559.682 21.1698 551.956 14.49 541.822 14.49C529.805 14.49 518.922 23.8552 518.922 39.46C518.922 46.7462 521.268 52.922 525.271 57.2806C529.276 61.6412 534.919 64.16 541.462 64.16C553.186 64.16 559.793 56.1882 561.727 50.9383L561.851 50.6023L560.633 49.9933L560.454 50.3511C558.696 53.868 552.959 60.39 543.982 60.39C533.641 60.39 525.572 51.7226 525.572 37.93C525.572 35.2857 525.899 32.7227 526.476 30.32ZM526.455 28.8C528.681 21.1806 533.845 15.79 540.922 15.79C548.428 15.79 553.335 21.8554 553.517 28.8C553.52 28.933 553.522 29.0664 553.522 29.2H526.342C526.379 29.066 526.417 28.9327 526.455 28.8ZM526.872 28.8H553.116C552.935 22.034 548.166 16.19 540.922 16.19C534.125 16.19 529.087 21.3372 526.872 28.8Z" fill="black"/>
<path fill-rule="evenodd" clip-rule="evenodd" d="M481.686 62.6917V63.89H465.586V62.6917L465.931 62.6438C467.461 62.4312 468.543 61.8042 469.255 60.7564C469.979 59.6917 470.356 58.1416 470.356 56.02V8.13996C470.356 5.94544 469.851 4.59502 469.109 3.77294C468.37 2.95406 467.337 2.59465 466.137 2.50894L465.766 2.4824V1.30951L475.017 0.0822754L476.916 0.640661V28.6285C479.788 20.9377 486.104 14.58 494.966 14.58C504.676 14.58 511.746 22.27 511.746 33.43V55.48C511.746 57.8326 512.125 59.5209 512.853 60.6652C513.568 61.7878 514.647 62.4321 516.171 62.6438L516.516 62.6917V63.89H500.416V62.6917L500.761 62.6438C502.29 62.4314 503.369 61.8058 504.081 60.7172C504.807 59.6079 505.186 57.9668 505.186 55.66V34.96C505.186 29.6225 503.852 25.6292 501.623 22.9773C499.402 20.3332 496.257 18.98 492.536 18.98C483.293 18.98 476.916 27.2662 476.916 37.93V55.66C476.916 57.9202 477.294 59.5629 478.022 60.6849C478.736 61.7869 479.816 62.432 481.341 62.6438L481.686 62.6917ZM476.916 29.8394C476.771 30.2827 476.638 30.7299 476.516 31.18V0.939956L474.986 0.489956L466.166 1.65996V2.10996C468.686 2.28996 470.756 3.63996 470.756 8.13996V56.02C470.756 60.34 469.226 62.59 465.986 63.04V63.49H481.286V63.04C478.046 62.59 476.516 60.25 476.516 55.66V37.93C476.516 27.13 482.996 18.58 492.536 18.58C500.186 18.58 505.586 24.16 505.586 34.96V55.66C505.586 60.34 504.056 62.59 500.816 63.04V63.49H516.116V63.04C512.876 62.59 511.346 60.25 511.346 55.48V33.43C511.346 22.45 504.416 14.98 494.966 14.98C485.923 14.98 479.548 21.7728 476.916 29.8394Z" fill="black"/>
<path fill-rule="evenodd" clip-rule="evenodd" d="M454.691 63.49C460.271 63.49 463.421 58.18 463.691 56.2C463.691 55.93 463.241 55.93 463.151 56.2C462.701 57.46 460.901 60.34 457.751 60.34C454.961 60.34 453.161 58.09 453.161 54.13V16.6H462.071L463.061 15.25H453.161V5.44004H452.531C450.641 11.02 445.061 15.61 440.291 15.61V16.6H441.011C444.791 16.6 447.401 18.94 447.401 22.36V54.85C447.401 59.26 449.741 63.49 454.691 63.49ZM453.561 14.85V5.04004H452.244L452.152 5.31172C451.233 8.02382 449.412 10.5063 447.235 12.3095C445.054 14.1162 442.554 15.21 440.291 15.21H439.891V17H441.011C442.819 17 444.316 17.5589 445.356 18.4949C446.392 19.4277 447.001 20.7577 447.001 22.36V54.85C447.001 57.1193 447.602 59.3697 448.869 61.0634C450.146 62.7701 452.086 63.89 454.691 63.89C457.617 63.89 459.898 62.4954 461.47 60.8652C463.029 59.2485 463.937 57.3516 464.087 56.2541L464.091 56.2272V56.2C464.091 56.0076 464.004 55.8406 463.864 55.7319C463.735 55.632 463.583 55.5975 463.454 55.5975C463.21 55.5975 462.888 55.7308 462.773 56.0685C462.566 56.6464 462.035 57.6261 461.184 58.4561C460.336 59.2828 459.194 59.94 457.751 59.94C456.475 59.94 455.448 59.432 454.729 58.479C453.999 57.513 453.561 56.0556 453.561 54.13V17H462.273L463.85 14.85H453.561Z" fill="black"/>
<path fill-rule="evenodd" clip-rule="evenodd" d="M393.622 63.0399C390.382 62.5899 388.852 60.2499 388.852 55.6599V33.4299C388.852 26.2299 396.502 19.8399 405.682 19.8399C406.719 19.8399 407.755 19.9106 408.792 20.0519C408.925 20.0701 409.059 20.0894 409.192 20.1099V14.3499C400.428 12.7333 391.906 19.8042 389.252 28.1098C389.099 28.5896 388.965 29.0734 388.852 29.5599V15.6999L387.322 15.2499L378.502 16.4199V16.8699C381.022 17.0499 383.092 18.3999 383.092 22.8999V56.0199C383.092 60.3399 381.562 62.5899 378.322 63.0399V63.4899H393.622V63.0399ZM389.252 26.9051V15.4006L387.353 14.8422L378.102 16.0695V17.2424L378.473 17.2689C379.673 17.3546 380.706 17.714 381.445 18.5329C382.187 19.355 382.692 20.7054 382.692 22.8999V56.0199C382.692 58.1415 382.315 59.6916 381.591 60.7563C380.879 61.8042 379.797 62.4311 378.267 62.6437L377.922 62.6916V63.8899H394.022V62.6916L393.677 62.6437C392.152 62.432 391.072 61.7869 390.358 60.6849C389.63 59.5629 389.252 57.9202 389.252 55.6599V33.4299C389.252 29.9766 391.088 26.6849 394.077 24.2448C397.065 21.8062 401.183 20.2399 405.682 20.2399C406.831 20.2399 407.981 20.3283 409.131 20.5053L409.592 20.5762V14.017L409.264 13.9566C404.491 13.076 399.809 14.7023 396.074 17.6588C393.05 20.0513 390.626 23.3298 389.252 26.9051Z" fill="black"/>
<path fill-rule="evenodd" clip-rule="evenodd" d="M354.399 63.76C365.919 63.76 372.399 55.93 374.289 50.8L373.749 50.53C373.749 50.5313 373.748 50.5326 373.747 50.534C371.945 54.1349 366.096 60.79 356.919 60.79C346.299 60.79 338.109 51.88 338.109 37.93C338.109 35.14 338.469 32.44 339.099 29.92H372.219V28.84C372.219 21.46 364.749 14.89 354.759 14.89C342.969 14.89 332.259 24.07 332.259 39.46C332.259 53.86 341.529 63.76 354.399 63.76ZM339.413 30.32H372.619V28.84C372.619 21.1698 364.894 14.49 354.759 14.49C342.742 14.49 331.859 23.8552 331.859 39.46C331.859 46.7462 334.206 52.922 338.209 57.2806C342.213 61.6412 347.857 64.16 354.399 64.16C366.124 64.16 372.731 56.1882 374.665 50.9383L374.788 50.6023L373.57 49.9933L373.392 50.3511C371.633 53.868 365.897 60.39 356.919 60.39C346.579 60.39 338.509 51.7226 338.509 37.93C338.509 35.2857 338.837 32.7227 339.413 30.32ZM339.393 28.8C341.619 21.1806 346.783 15.79 353.859 15.79C361.366 15.79 366.272 21.8554 366.454 28.8C366.458 28.933 366.459 29.0664 366.459 29.2H339.279C339.316 29.066 339.354 28.9327 339.393 28.8ZM339.81 28.8H366.054C365.873 22.034 361.104 16.19 353.859 16.19C347.062 16.19 342.024 21.3372 339.81 28.8Z" fill="black"/>
<path fill-rule="evenodd" clip-rule="evenodd" d="M326.232 23.7101C328.752 18.1301 330.552 16.7801 333.612 15.7001V15.2501H323.892V15.7001C326.322 15.8801 327.582 18.3101 325.152 23.7101L310.752 55.9301L296.352 23.7101C293.922 18.3101 294.552 15.8801 298.152 15.7001V15.2501H283.572V15.7001C285.552 16.4201 287.532 18.1301 290.052 23.7101L307.782 63.4901H308.322L326.232 23.7101ZM326.596 23.8747L308.58 63.8901H307.522L289.687 23.8747C289.687 23.8743 289.687 23.8738 289.687 23.8734C287.183 18.3293 285.263 16.7407 283.435 16.076L283.172 15.9803V14.8501H298.552V16.0806L298.172 16.0996C297.31 16.1427 296.673 16.319 296.226 16.6051C295.791 16.8831 295.51 17.2814 295.38 17.8383C295.247 18.4091 295.272 19.1581 295.492 20.1165C295.71 21.0718 296.115 22.2099 296.717 23.5459L296.717 23.5469L310.752 54.9498L324.787 23.5469L324.787 23.5459C325.99 20.8731 326.239 19.0165 325.956 17.8415C325.816 17.264 325.55 16.8559 325.206 16.5806C324.859 16.3033 324.407 16.1393 323.862 16.099L323.492 16.0716V14.8501H334.012V15.9831L333.745 16.0773C332.246 16.6064 331.094 17.1878 330.005 18.2977C328.906 19.418 327.849 21.1004 326.596 23.8747Z" fill="black"/>
<path fill-rule="evenodd" clip-rule="evenodd" d="M139.283 63.7599C150.983 63.7599 157.643 55.9299 159.533 50.7999L158.993 50.5299C158.993 50.5311 158.992 50.5323 158.991 50.5335C157.189 54.1343 151.16 60.7899 141.713 60.7899C130.823 60.7899 122.453 51.8799 122.453 38.1999C122.453 24.1599 131.363 15.9699 140.003 15.9699C149.453 15.9699 155.483 25.9599 156.473 32.0799H157.013V17.1399H156.653C156.64 17.1688 156.627 17.1971 156.613 17.2248C156.161 18.1506 155.457 18.4899 154.583 18.4899C153.614 18.4899 152.371 18.0179 150.808 17.4246C148.165 16.4208 144.608 15.0699 139.913 15.0699C127.943 15.0699 116.603 23.8899 116.603 39.5499C116.603 53.8599 126.053 63.7599 139.283 63.7599ZM160.032 50.6023L159.908 50.9382C157.972 56.1946 151.181 64.1599 139.283 64.1599C132.564 64.1599 126.787 61.6438 122.691 57.2954C118.596 52.9486 116.203 46.7939 116.203 39.5499C116.203 23.6542 127.737 14.6699 139.913 14.6699C143.712 14.6699 146.775 15.5402 149.204 16.403C149.811 16.6184 150.379 16.8336 150.906 17.0339L150.949 17.0501C151.461 17.2447 151.934 17.4241 152.373 17.5781C153.285 17.8981 154.005 18.0899 154.583 18.0899C154.98 18.0899 155.307 18.0109 155.578 17.8451C155.846 17.6805 156.091 17.4108 156.289 16.9744L156.396 16.7399H157.413V32.4799H156.133L156.078 32.1438C155.596 29.1605 153.874 25.2005 151.108 21.9911C148.344 18.7854 144.576 16.3699 140.003 16.3699C131.635 16.3699 122.853 24.3266 122.853 38.1999C122.853 51.7099 131.092 60.3899 141.713 60.3899C150.968 60.3899 156.881 53.8597 158.635 50.351L158.814 49.9933L160.032 50.6023Z" fill="black"/>
<path fill-rule="evenodd" clip-rule="evenodd" d="M97.4336 64.21C106.074 64.21 113.004 60.34 113.004 53.23C113.004 45.4091 104.587 40.2814 96.7839 35.5272C90.0399 31.4184 83.7536 27.5885 83.7536 22.54C83.7536 19.84 85.5536 15.79 92.1236 15.79C101.124 15.79 107.154 23.44 109.584 28.93H110.124L107.604 16.51C106.563 16.51 105.18 16.2096 103.515 15.8484C101.005 15.3035 97.8558 14.62 94.2836 14.62C84.2036 14.62 80.6036 20.02 80.6036 25.06C80.6036 32.7059 88.7228 37.4199 96.3927 41.8731C103.258 45.8592 109.764 49.6362 109.764 55.12C109.764 60.16 104.184 63.4 98.1536 63.4C87.4436 63.4 82.2236 53.14 79.4336 46.66H78.9836L80.6936 60.52C81.6683 60.52 83.0183 61.0008 84.7436 61.6154C87.7976 62.7032 92.0276 64.21 97.4336 64.21ZM80.34 60.92L78.5312 46.26H79.6969L79.801 46.5018C81.1931 49.7349 83.1751 53.87 86.1229 57.1946C89.0634 60.5109 92.9447 63 98.1536 63C101.103 63 103.925 62.2066 105.997 60.8177C108.065 59.4316 109.364 57.4738 109.364 55.12C109.364 52.4017 107.66 50.0799 104.955 47.8727C102.55 45.9108 99.4278 44.098 96.1908 42.2184C95.7893 41.9853 95.386 41.7511 94.9821 41.5155C91.341 39.3915 87.6568 37.1541 84.8848 34.5275C82.1069 31.8954 80.2036 28.8332 80.2036 25.06C80.2036 22.4444 81.1392 19.7214 83.3933 17.6551C85.6466 15.5897 89.1735 14.22 94.2836 14.22C97.2949 14.22 100.004 14.6991 102.274 15.1734C102.74 15.2708 103.184 15.3671 103.607 15.4591C104.223 15.5928 104.797 15.7172 105.333 15.8221C106.237 15.9985 106.992 16.11 107.604 16.11H107.931L110.613 29.33H109.323L109.218 29.0919C106.81 23.6514 100.882 16.19 92.1236 16.19C88.9251 16.19 86.9468 17.1728 85.7661 18.4267C84.5777 19.6887 84.1536 21.2713 84.1536 22.54C84.1536 25.0722 85.8545 27.337 88.5776 29.5699C90.8968 31.4716 93.8785 33.2884 96.9877 35.1829C97.5183 35.5062 98.0526 35.8317 98.5879 36.1603C102.242 38.4034 105.936 40.7844 108.714 43.5306C111.498 46.2809 113.404 49.4371 113.404 53.23C113.404 56.9363 111.589 59.7996 108.679 61.7201C105.783 63.6317 101.806 64.61 97.4336 64.61C93.1441 64.61 89.5887 63.6741 86.7781 62.7448C86.076 62.5126 85.4198 62.2807 84.812 62.0644C84.7437 62.0401 84.6761 62.016 84.6091 61.9921C84.0781 61.803 83.5872 61.6281 83.1318 61.4759C82.0938 61.129 81.2957 60.92 80.6936 60.92H80.34Z" fill="black"/>
<path fill-rule="evenodd" clip-rule="evenodd" d="M75.3656 62.6917V63.89H59.2656V62.6917L59.6106 62.6438C61.1412 62.4312 62.2227 61.8043 62.9348 60.7564C63.6584 59.6917 64.0356 58.1416 64.0356 56.02V22.9C64.0356 20.7055 63.5305 19.3551 62.7887 18.533C62.0497 17.7141 61.017 17.3547 59.8171 17.269L59.4456 17.2425V16.0696L68.6971 14.8423L70.5956 15.4007V55.66C70.5956 57.9203 70.9741 59.563 71.7013 60.6849C72.4156 61.787 73.496 62.432 75.0207 62.6438L75.3656 62.6917ZM70.4365 8.77904C69.5341 9.78032 68.1858 10.43 66.4156 10.43C64.6455 10.43 63.2971 9.78032 62.3947 8.77904C61.4988 7.78487 61.0656 6.47041 61.0656 5.17C61.0656 3.91128 61.5008 2.61934 62.3964 1.63788C63.2983 0.649482 64.6456 0 66.4156 0C68.1856 0 69.5329 0.649482 70.4349 1.63788C71.3304 2.61934 71.7656 3.91128 71.7656 5.17C71.7656 6.47041 71.3325 7.78487 70.4365 8.77904ZM59.6656 63.04C62.9056 62.59 64.4356 60.34 64.4356 56.02V22.9C64.4356 18.4 62.3656 17.05 59.8456 16.87V16.42L68.6656 15.25L70.1956 15.7V55.66C70.1956 60.25 71.7256 62.59 74.9656 63.04V63.49H59.6656V63.04ZM66.4156 10.03C69.7456 10.03 71.3656 7.6 71.3656 5.17C71.3656 2.83 69.7456 0.4 66.4156 0.4C63.0856 0.4 61.4656 2.83 61.4656 5.17C61.4656 7.6 63.0856 10.03 66.4156 10.03Z" fill="black"/>
<path fill-rule="evenodd" clip-rule="evenodd" d="M0.0234375 63.8901V62.807L0.226232 62.6921C2.71334 61.2827 3.08344 58.538 3.08344 56.0201V7.96009C3.08344 5.4422 2.71334 2.69746 0.226232 1.2881L0.0234375 1.17318V0.0900879H23.1934C33.3538 0.0900879 41.5597 3.15302 47.2286 8.52474C52.8993 13.8982 55.9934 21.5464 55.9934 30.6401C55.9934 40.4154 52.445 48.7344 46.3651 54.609C40.2863 60.4826 31.7004 63.8901 21.6634 63.8901H0.0234375ZM0.423437 63.0401C3.12344 61.5101 3.48344 58.5401 3.48344 56.0201V7.96009C3.48344 5.44009 3.12344 2.47009 0.423437 0.940088V0.490088H23.1934C43.3534 0.490088 55.5934 12.6401 55.5934 30.6401C55.5934 49.9901 41.5534 63.4901 21.6634 63.4901H0.423437V63.0401ZM9.24344 62.5901V1.39009H24.1834C40.1134 1.39009 49.8334 12.7301 49.8334 30.5501C49.8334 49.7201 38.4934 62.5901 22.7434 62.5901H9.24344ZM9.64344 1.79009V62.1901H22.7434C30.502 62.1901 37.1633 59.0234 41.8908 53.4988C46.6218 47.97 49.4334 40.0576 49.4334 30.5501C49.4334 21.7099 47.0228 14.5223 42.6809 9.55071C38.3446 4.58549 32.0474 1.79009 24.1834 1.79009H9.64344Z" fill="black"/>
<rect x="187.742" y="14.5759" width="71.6094" height="1.70703" fill="black"/>
<rect x="187.742" y="62.6331" width="71.6094" height="1.70703" fill="black"/>
<mask id="mask1_5_2529" style="mask-type:alpha" maskUnits="userSpaceOnUse" x="162" y="14" width="52" height="51">
<path fill-rule="evenodd" clip-rule="evenodd" d="M213.895 39.5501C213.895 53.3591 203.818 64.3401 188.385 64.3401C172.956 64.3401 162.695 53.3629 162.695 39.5501C162.695 25.832 172.952 14.5801 188.385 14.5801C203.823 14.5801 213.895 25.8359 213.895 39.5501ZM169.345 39.5501C169.345 52.4665 176.984 62.6401 188.385 62.6401C199.604 62.6401 207.245 52.4692 207.245 39.5501C207.245 26.7156 199.6 16.2801 188.385 16.2801C176.989 16.2801 169.345 26.7183 169.345 39.5501Z" fill="black"/>
</mask>
<g mask="url(#mask1_5_2529)">
<rect x="161.281" y="14.5759" width="26.4609" height="51.3661" fill="black"/>
</g>
</svg>
