<svg width="32" height="32" viewBox="0 0 32 32" fill="none" xmlns="http://www.w3.org/2000/svg">
<mask id="mask0_5_2477" style="mask-type:alpha" maskUnits="userSpaceOnUse" x="0" y="0" width="32" height="32">
<rect width="32" height="32" fill="#D9D9D9"/>
</mask>
<g mask="url(#mask0_5_2477)">
<path d="M7.92313 28.6665C7.40026 28.6665 6.94903 28.4767 6.56943 28.0971C6.18983 27.7175 6.00003 27.2663 6.00003 26.7434V10.5897C6.00003 10.0668 6.18983 9.61559 6.56943 9.23599C6.94903 8.85639 7.40026 8.66659 7.92313 8.66659H11.2436V8.08965C11.2436 6.75803 11.7034 5.6324 12.6231 4.71275C13.5427 3.79309 14.6684 3.33325 16 3.33325C17.3316 3.33325 18.4573 3.79309 19.3769 4.71275C20.2966 5.6324 20.7564 6.75803 20.7564 8.08965V8.66659H24.0769C24.5997 8.66659 25.051 8.85639 25.4306 9.23599C25.8102 9.61559 26 10.0668 26 10.5897V26.7434C26 27.2663 25.8102 27.7175 25.4306 28.0971C25.051 28.4767 24.5997 28.6665 24.0769 28.6665H7.92313ZM7.92313 27.1537H24.0769C24.1794 27.1537 24.2735 27.111 24.359 27.0255C24.4444 26.94 24.4872 26.846 24.4872 26.7434V10.5897C24.4872 10.4871 24.4444 10.3931 24.359 10.3076C24.2735 10.2221 24.1794 10.1794 24.0769 10.1794H20.7564V13.423C20.7564 13.6377 20.6834 13.8175 20.5375 13.9623C20.3916 14.107 20.2104 14.1794 19.9939 14.1794C19.7775 14.1794 19.5983 14.107 19.4564 13.9623C19.3145 13.8175 19.2436 13.6377 19.2436 13.423V10.1794H12.7564V13.423C12.7564 13.6377 12.6834 13.8175 12.5375 13.9623C12.3916 14.107 12.2104 14.1794 11.9939 14.1794C11.7775 14.1794 11.5983 14.107 11.4564 13.9623C11.3145 13.8175 11.2436 13.6377 11.2436 13.423V10.1794H7.92313C7.82055 10.1794 7.72652 10.2221 7.64103 10.3076C7.55556 10.3931 7.51283 10.4871 7.51283 10.5897V26.7434C7.51283 26.846 7.55556 26.94 7.64103 27.0255C7.72652 27.111 7.82055 27.1537 7.92313 27.1537ZM12.7564 8.66659H19.2436V8.08965C19.2436 7.17683 18.9312 6.40803 18.3064 5.78325C17.6816 5.15845 16.9128 4.84605 16 4.84605C15.0872 4.84605 14.3184 5.15845 13.6936 5.78325C13.0688 6.40803 12.7564 7.17683 12.7564 8.08965V8.66659Z" fill="#1C1B1F"/>
</g>
</svg>
