<svg width="42" height="42" viewBox="0 0 42 42" fill="none" xmlns="http://www.w3.org/2000/svg">
<mask id="path-1-outside-1_5_2441" maskUnits="userSpaceOnUse" x="0" y="0.0380859" width="42" height="42" fill="black">
<rect fill="white" y="0.0380859" width="42" height="42"/>
<path d="M41 21.1039C41 21.047 41 21.047 41 20.9901C41 20.9332 41 20.8763 41 20.8763L35.3101 7.10675C35.2532 6.99296 35.1394 6.87916 35.0256 6.82226L21.256 1.13236C21.0853 1.01856 20.9147 1.01856 20.8009 1.07546L7.03129 6.76536C6.9175 6.82226 6.8037 6.93606 6.7468 7.04986L1.0569 20.8194C1 20.8763 1 20.9332 1 20.9332C1 20.9901 1 20.9901 1 21.047C1 21.1039 1 21.1608 1 21.1608L6.6899 34.9304C6.7468 35.0442 6.8606 35.158 6.9744 35.2149L20.744 40.9048C20.8009 40.9048 20.8578 40.9617 20.9147 40.9617C20.9715 40.9617 21.0285 40.9617 21.0853 40.9048L34.8549 35.2149C34.9687 35.158 35.0825 35.0442 35.1394 34.9304L40.8293 21.1608C41 21.1608 41 21.1039 41 21.1039ZM17.9559 36.7511H18.0128C19.9474 36.7511 21.4836 35.158 21.4836 33.2803V28.7853L28.6529 21.616H33.1479C34.5135 21.616 35.5946 22.6971 35.5946 24.0627C35.5946 25.4282 34.5135 26.5093 33.1479 26.5093C31.7824 26.5093 30.7013 25.4282 30.7013 24.0627C30.7013 23.7782 30.4737 23.5506 30.1892 23.5506C29.9047 23.5506 29.6771 23.7782 29.6771 24.0627C29.6771 25.9972 31.2703 27.5335 33.1479 27.5335H33.2048L20.9715 39.7668L17.9559 36.7511ZM24.0441 5.28599H23.9872C22.0526 5.28599 20.5164 6.87916 20.5164 8.75683V13.2518L13.2902 20.478H8.79516C7.42959 20.478 6.34851 19.3969 6.34851 18.0314C6.34851 16.6658 7.42959 15.5847 8.79516 15.5847C10.1607 15.5847 11.2418 16.6658 11.2418 18.0314C11.2418 18.3159 11.4694 18.5435 11.7539 18.5435C12.0384 18.5435 12.266 18.3159 12.266 18.0314C12.266 16.0968 10.6728 14.5605 8.79516 14.5605H8.73827L20.9715 2.27034L24.0441 5.28599ZM20.4595 21.5591V27.3059L14.7696 21.5591H20.4595ZM14.7696 20.478L20.5164 14.7312V20.478H14.7696ZM21.5405 21.5591H27.2873L21.5405 27.249V21.5591ZM21.5405 20.478V14.7881L27.2873 20.5349H21.5405V20.478ZM8.79516 21.5591H13.2902L20.4595 28.7284V33.2234C20.4595 34.589 19.3784 35.6701 18.0128 35.6701C16.6472 35.6701 15.5661 34.589 15.5661 33.2234C15.5661 31.8578 16.6472 30.7767 18.0128 30.7767C18.2973 30.7767 18.5249 30.5491 18.5249 30.2646C18.5249 29.9802 18.2973 29.7526 18.0128 29.7526C16.0782 29.7526 14.542 31.3457 14.542 33.2234V33.2803L2.25178 21.047L5.26743 18.0314V18.0883C5.26743 19.9659 6.8606 21.5591 8.79516 21.5591ZM33.2048 20.478H28.7098L21.5405 13.3087V8.81372C21.5405 7.44815 22.6216 6.36707 23.9872 6.36707C25.3528 6.36707 26.4339 7.44815 26.4339 8.81372C26.4339 10.1793 25.3528 11.2604 23.9872 11.2604C23.7027 11.2604 23.4751 11.488 23.4751 11.7725C23.4751 12.057 23.7027 12.2846 23.9872 12.2846C25.9218 12.2846 27.458 10.6914 27.458 8.81372V8.75683L39.7482 21.047L36.7326 24.0627V24.0058C36.7326 22.0712 35.1394 20.478 33.2048 20.478ZM39.0085 18.8279L23.1906 3.01003L34.3428 7.61885L39.0085 18.8279ZM7.60028 7.61885L18.7525 3.01003L2.99147 18.8279L7.60028 7.61885ZM2.99147 23.2092L18.8094 39.0271L7.65718 34.4183L2.99147 23.2092ZM34.3997 34.4183L23.1906 39.0271L39.0085 23.2092L34.3997 34.4183Z"/>
</mask>
<path d="M41 21.1039C41 21.047 41 21.047 41 20.9901C41 20.9332 41 20.8763 41 20.8763L35.3101 7.10675C35.2532 6.99296 35.1394 6.87916 35.0256 6.82226L21.256 1.13236C21.0853 1.01856 20.9147 1.01856 20.8009 1.07546L7.03129 6.76536C6.9175 6.82226 6.8037 6.93606 6.7468 7.04986L1.0569 20.8194C1 20.8763 1 20.9332 1 20.9332C1 20.9901 1 20.9901 1 21.047C1 21.1039 1 21.1608 1 21.1608L6.6899 34.9304C6.7468 35.0442 6.8606 35.158 6.9744 35.2149L20.744 40.9048C20.8009 40.9048 20.8578 40.9617 20.9147 40.9617C20.9715 40.9617 21.0285 40.9617 21.0853 40.9048L34.8549 35.2149C34.9687 35.158 35.0825 35.0442 35.1394 34.9304L40.8293 21.1608C41 21.1608 41 21.1039 41 21.1039ZM17.9559 36.7511H18.0128C19.9474 36.7511 21.4836 35.158 21.4836 33.2803V28.7853L28.6529 21.616H33.1479C34.5135 21.616 35.5946 22.6971 35.5946 24.0627C35.5946 25.4282 34.5135 26.5093 33.1479 26.5093C31.7824 26.5093 30.7013 25.4282 30.7013 24.0627C30.7013 23.7782 30.4737 23.5506 30.1892 23.5506C29.9047 23.5506 29.6771 23.7782 29.6771 24.0627C29.6771 25.9972 31.2703 27.5335 33.1479 27.5335H33.2048L20.9715 39.7668L17.9559 36.7511ZM24.0441 5.28599H23.9872C22.0526 5.28599 20.5164 6.87916 20.5164 8.75683V13.2518L13.2902 20.478H8.79516C7.42959 20.478 6.34851 19.3969 6.34851 18.0314C6.34851 16.6658 7.42959 15.5847 8.79516 15.5847C10.1607 15.5847 11.2418 16.6658 11.2418 18.0314C11.2418 18.3159 11.4694 18.5435 11.7539 18.5435C12.0384 18.5435 12.266 18.3159 12.266 18.0314C12.266 16.0968 10.6728 14.5605 8.79516 14.5605H8.73827L20.9715 2.27034L24.0441 5.28599ZM20.4595 21.5591V27.3059L14.7696 21.5591H20.4595ZM14.7696 20.478L20.5164 14.7312V20.478H14.7696ZM21.5405 21.5591H27.2873L21.5405 27.249V21.5591ZM21.5405 20.478V14.7881L27.2873 20.5349H21.5405V20.478ZM8.79516 21.5591H13.2902L20.4595 28.7284V33.2234C20.4595 34.589 19.3784 35.6701 18.0128 35.6701C16.6472 35.6701 15.5661 34.589 15.5661 33.2234C15.5661 31.8578 16.6472 30.7767 18.0128 30.7767C18.2973 30.7767 18.5249 30.5491 18.5249 30.2646C18.5249 29.9802 18.2973 29.7526 18.0128 29.7526C16.0782 29.7526 14.542 31.3457 14.542 33.2234V33.2803L2.25178 21.047L5.26743 18.0314V18.0883C5.26743 19.9659 6.8606 21.5591 8.79516 21.5591ZM33.2048 20.478H28.7098L21.5405 13.3087V8.81372C21.5405 7.44815 22.6216 6.36707 23.9872 6.36707C25.3528 6.36707 26.4339 7.44815 26.4339 8.81372C26.4339 10.1793 25.3528 11.2604 23.9872 11.2604C23.7027 11.2604 23.4751 11.488 23.4751 11.7725C23.4751 12.057 23.7027 12.2846 23.9872 12.2846C25.9218 12.2846 27.458 10.6914 27.458 8.81372V8.75683L39.7482 21.047L36.7326 24.0627V24.0058C36.7326 22.0712 35.1394 20.478 33.2048 20.478ZM39.0085 18.8279L23.1906 3.01003L34.3428 7.61885L39.0085 18.8279ZM7.60028 7.61885L18.7525 3.01003L2.99147 18.8279L7.60028 7.61885ZM2.99147 23.2092L18.8094 39.0271L7.65718 34.4183L2.99147 23.2092ZM34.3997 34.4183L23.1906 39.0271L39.0085 23.2092L34.3997 34.4183Z" fill="#1C1C1C"/>
<path d="M41 21.1039C41 21.047 41 21.047 41 20.9901C41 20.9332 41 20.8763 41 20.8763L35.3101 7.10675C35.2532 6.99296 35.1394 6.87916 35.0256 6.82226L21.256 1.13236C21.0853 1.01856 20.9147 1.01856 20.8009 1.07546L7.03129 6.76536C6.9175 6.82226 6.8037 6.93606 6.7468 7.04986L1.0569 20.8194C1 20.8763 1 20.9332 1 20.9332C1 20.9901 1 20.9901 1 21.047C1 21.1039 1 21.1608 1 21.1608L6.6899 34.9304C6.7468 35.0442 6.8606 35.158 6.9744 35.2149L20.744 40.9048C20.8009 40.9048 20.8578 40.9617 20.9147 40.9617C20.9715 40.9617 21.0285 40.9617 21.0853 40.9048L34.8549 35.2149C34.9687 35.158 35.0825 35.0442 35.1394 34.9304L40.8293 21.1608C41 21.1608 41 21.1039 41 21.1039ZM17.9559 36.7511H18.0128C19.9474 36.7511 21.4836 35.158 21.4836 33.2803V28.7853L28.6529 21.616H33.1479C34.5135 21.616 35.5946 22.6971 35.5946 24.0627C35.5946 25.4282 34.5135 26.5093 33.1479 26.5093C31.7824 26.5093 30.7013 25.4282 30.7013 24.0627C30.7013 23.7782 30.4737 23.5506 30.1892 23.5506C29.9047 23.5506 29.6771 23.7782 29.6771 24.0627C29.6771 25.9972 31.2703 27.5335 33.1479 27.5335H33.2048L20.9715 39.7668L17.9559 36.7511ZM24.0441 5.28599H23.9872C22.0526 5.28599 20.5164 6.87916 20.5164 8.75683V13.2518L13.2902 20.478H8.79516C7.42959 20.478 6.34851 19.3969 6.34851 18.0314C6.34851 16.6658 7.42959 15.5847 8.79516 15.5847C10.1607 15.5847 11.2418 16.6658 11.2418 18.0314C11.2418 18.3159 11.4694 18.5435 11.7539 18.5435C12.0384 18.5435 12.266 18.3159 12.266 18.0314C12.266 16.0968 10.6728 14.5605 8.79516 14.5605H8.73827L20.9715 2.27034L24.0441 5.28599ZM20.4595 21.5591V27.3059L14.7696 21.5591H20.4595ZM14.7696 20.478L20.5164 14.7312V20.478H14.7696ZM21.5405 21.5591H27.2873L21.5405 27.249V21.5591ZM21.5405 20.478V14.7881L27.2873 20.5349H21.5405V20.478ZM8.79516 21.5591H13.2902L20.4595 28.7284V33.2234C20.4595 34.589 19.3784 35.6701 18.0128 35.6701C16.6472 35.6701 15.5661 34.589 15.5661 33.2234C15.5661 31.8578 16.6472 30.7767 18.0128 30.7767C18.2973 30.7767 18.5249 30.5491 18.5249 30.2646C18.5249 29.9802 18.2973 29.7526 18.0128 29.7526C16.0782 29.7526 14.542 31.3457 14.542 33.2234V33.2803L2.25178 21.047L5.26743 18.0314V18.0883C5.26743 19.9659 6.8606 21.5591 8.79516 21.5591ZM33.2048 20.478H28.7098L21.5405 13.3087V8.81372C21.5405 7.44815 22.6216 6.36707 23.9872 6.36707C25.3528 6.36707 26.4339 7.44815 26.4339 8.81372C26.4339 10.1793 25.3528 11.2604 23.9872 11.2604C23.7027 11.2604 23.4751 11.488 23.4751 11.7725C23.4751 12.057 23.7027 12.2846 23.9872 12.2846C25.9218 12.2846 27.458 10.6914 27.458 8.81372V8.75683L39.7482 21.047L36.7326 24.0627V24.0058C36.7326 22.0712 35.1394 20.478 33.2048 20.478ZM39.0085 18.8279L23.1906 3.01003L34.3428 7.61885L39.0085 18.8279ZM7.60028 7.61885L18.7525 3.01003L2.99147 18.8279L7.60028 7.61885ZM2.99147 23.2092L18.8094 39.0271L7.65718 34.4183L2.99147 23.2092ZM34.3997 34.4183L23.1906 39.0271L39.0085 23.2092L34.3997 34.4183Z" stroke="#1C1C1C" stroke-width="0.5" mask="url(#path-1-outside-1_5_2441)"/>
</svg>
