<svg width="1440" height="80" viewBox="0 0 1440 80" fill="none" xmlns="http://www.w3.org/2000/svg">
<rect width="1440" height="80" fill="black" fill-opacity="0.8"/>
<path d="M-157.413 30.24V48H-159.597V30.24H-157.413ZM-151.027 36.648V44.4C-151.027 45.04 -150.891 45.496 -150.619 45.768C-150.347 46.024 -149.875 46.152 -149.203 46.152H-147.595V48H-149.563C-150.779 48 -151.691 47.72 -152.299 47.16C-152.907 46.6 -153.211 45.68 -153.211 44.4V36.648H-154.915V34.848H-153.211V31.536H-151.027V34.848H-147.595V36.648H-151.027ZM-142.765 36.984C-142.381 36.232 -141.837 35.648 -141.133 35.232C-140.413 34.816 -139.541 34.608 -138.517 34.608V36.864H-139.093C-141.541 36.864 -142.765 38.192 -142.765 40.848V48H-144.949V34.848H-142.765V36.984ZM-131.1 45.984L-127.02 34.848H-124.692L-129.852 48H-132.396L-137.556 34.848H-135.204L-131.1 45.984ZM-123.167 46.248C-121.135 44.616 -119.543 43.28 -118.391 42.24C-117.239 41.184 -116.271 40.088 -115.487 38.952C-114.687 37.8 -114.287 36.672 -114.287 35.568C-114.287 34.528 -114.543 33.712 -115.055 33.12C-115.551 32.512 -116.359 32.208 -117.479 32.208C-118.567 32.208 -119.415 32.552 -120.023 33.24C-120.615 33.912 -120.935 34.816 -120.983 35.952H-123.095C-123.031 34.16 -122.487 32.776 -121.463 31.8C-120.439 30.824 -119.119 30.336 -117.503 30.336C-115.855 30.336 -114.551 30.792 -113.591 31.704C-112.615 32.616 -112.127 33.872 -112.127 35.472C-112.127 36.8 -112.527 38.096 -113.327 39.36C-114.111 40.608 -115.007 41.712 -116.015 42.672C-117.023 43.616 -118.311 44.72 -119.879 45.984H-111.623V47.808H-123.167V46.248ZM-109.626 44.136V42.48L-101.202 30.816H-98.5859V42.24H-96.1859V44.136H-98.5859V48H-100.746V44.136H-109.626ZM-100.65 33.096L-107.106 42.24H-100.65V33.096ZM-84.5242 38.28V40.128H-94.1002V38.28H-84.5242ZM-73.8974 34.608C-72.9054 34.608 -72.0094 34.824 -71.2094 35.256C-70.4094 35.672 -69.7854 36.304 -69.3374 37.152C-68.8734 38 -68.6414 39.032 -68.6414 40.248V48H-70.8014V40.56C-70.8014 39.248 -71.1294 38.248 -71.7854 37.56C-72.4414 36.856 -73.3374 36.504 -74.4734 36.504C-75.6254 36.504 -76.5454 36.864 -77.2334 37.584C-77.9054 38.304 -78.2414 39.352 -78.2414 40.728V48H-80.4254V30.24H-78.2414V36.72C-77.8094 36.048 -77.2174 35.528 -76.4654 35.16C-75.6974 34.792 -74.8414 34.608 -73.8974 34.608ZM-59.3379 48.216C-60.5699 48.216 -61.6899 47.936 -62.6979 47.376C-63.6899 46.816 -64.4739 46.024 -65.0499 45C-65.6099 43.96 -65.8899 42.76 -65.8899 41.4C-65.8899 40.056 -65.6019 38.872 -65.0259 37.848C-64.4339 36.808 -63.6339 36.016 -62.6259 35.472C-61.6179 34.912 -60.4899 34.632 -59.2419 34.632C-57.9939 34.632 -56.8659 34.912 -55.8579 35.472C-54.8499 36.016 -54.0579 36.8 -53.4819 37.824C-52.8899 38.848 -52.5939 40.04 -52.5939 41.4C-52.5939 42.76 -52.8979 43.96 -53.5059 45C-54.0979 46.024 -54.9059 46.816 -55.9299 47.376C-56.9539 47.936 -58.0899 48.216 -59.3379 48.216ZM-59.3379 46.296C-58.5539 46.296 -57.8179 46.112 -57.1299 45.744C-56.4419 45.376 -55.8899 44.824 -55.4739 44.088C-55.0419 43.352 -54.8259 42.456 -54.8259 41.4C-54.8259 40.344 -55.0339 39.448 -55.4499 38.712C-55.8659 37.976 -56.4099 37.432 -57.0819 37.08C-57.7539 36.712 -58.4819 36.528 -59.2659 36.528C-60.0659 36.528 -60.8019 36.712 -61.4739 37.08C-62.1299 37.432 -62.6579 37.976 -63.0579 38.712C-63.4579 39.448 -63.6579 40.344 -63.6579 41.4C-63.6579 42.472 -63.4659 43.376 -63.0819 44.112C-62.6819 44.848 -62.1539 45.4 -61.4979 45.768C-60.8419 46.12 -60.1219 46.296 -59.3379 46.296ZM-38.0583 34.848V48H-40.2423V46.056C-40.6583 46.728 -41.2423 47.256 -41.9943 47.64C-42.7303 48.008 -43.5463 48.192 -44.4423 48.192C-45.4663 48.192 -46.3863 47.984 -47.2023 47.568C-48.0183 47.136 -48.6663 46.496 -49.1463 45.648C-49.6103 44.8 -49.8423 43.768 -49.8423 42.552V34.848H-47.6823V42.264C-47.6823 43.56 -47.3543 44.56 -46.6983 45.264C-46.0423 45.952 -45.1463 46.296 -44.0103 46.296C-42.8423 46.296 -41.9223 45.936 -41.2503 45.216C-40.5783 44.496 -40.2423 43.448 -40.2423 42.072V34.848H-38.0583ZM-32.1867 36.984C-31.8027 36.232 -31.2587 35.648 -30.5547 35.232C-29.8347 34.816 -28.9627 34.608 -27.9387 34.608V36.864H-28.5147C-30.9627 36.864 -32.1867 38.192 -32.1867 40.848V48H-34.3707V34.848H-32.1867V36.984ZM-16.8352 36.984C-16.4512 36.232 -15.9072 35.648 -15.2032 35.232C-14.4832 34.816 -13.6112 34.608 -12.5872 34.608V36.864H-13.1632C-15.6112 36.864 -16.8352 38.192 -16.8352 40.848V48H-19.0192V34.848H-16.8352V36.984ZM1.93394 40.92C1.93394 41.336 1.90994 41.776 1.86194 42.24H-8.65006C-8.57006 43.536 -8.13006 44.552 -7.33006 45.288C-6.51406 46.008 -5.53006 46.368 -4.37806 46.368C-3.43406 46.368 -2.65006 46.152 -2.02606 45.72C-1.38606 45.272 -0.938062 44.68 -0.682062 43.944H1.66994C1.31794 45.208 0.613938 46.24 -0.442062 47.04C-1.49806 47.824 -2.81006 48.216 -4.37806 48.216C-5.62606 48.216 -6.74606 47.936 -7.73806 47.376C-8.71406 46.816 -9.48206 46.024 -10.0421 45C-10.6021 43.96 -10.8821 42.76 -10.8821 41.4C-10.8821 40.04 -10.6101 38.848 -10.0661 37.824C-9.52206 36.8 -8.76206 36.016 -7.78606 35.472C-6.79406 34.912 -5.65806 34.632 -4.37806 34.632C-3.13006 34.632 -2.02606 34.904 -1.06606 35.448C-0.106062 35.992 0.629938 36.744 1.14194 37.704C1.66994 38.648 1.93394 39.72 1.93394 40.92ZM-0.322062 40.464C-0.322062 39.632 -0.506062 38.92 -0.874062 38.328C-1.24206 37.72 -1.74606 37.264 -2.38606 36.96C-3.01006 36.64 -3.70606 36.48 -4.47406 36.48C-5.57806 36.48 -6.52206 36.832 -7.30606 37.536C-8.07406 38.24 -8.51406 39.216 -8.62606 40.464H-0.322062ZM9.47275 48.216C8.46475 48.216 7.56075 48.048 6.76075 47.712C5.96075 47.36 5.32875 46.88 4.86475 46.272C4.40075 45.648 4.14475 44.936 4.09675 44.136H6.35275C6.41675 44.792 6.72075 45.328 7.26475 45.744C7.82475 46.16 8.55275 46.368 9.44875 46.368C10.2808 46.368 10.9368 46.184 11.4168 45.816C11.8968 45.448 12.1368 44.984 12.1368 44.424C12.1368 43.848 11.8808 43.424 11.3688 43.152C10.8568 42.864 10.0648 42.584 8.99275 42.312C8.01675 42.056 7.21675 41.8 6.59275 41.544C5.98475 41.272 5.45675 40.88 5.00875 40.368C4.57675 39.84 4.36075 39.152 4.36075 38.304C4.36075 37.632 4.56075 37.016 4.96075 36.456C5.36075 35.896 5.92875 35.456 6.66475 35.136C7.40075 34.8 8.24075 34.632 9.18475 34.632C10.6408 34.632 11.8168 35 12.7128 35.736C13.6088 36.472 14.0888 37.48 14.1528 38.76H11.9688C11.9208 38.072 11.6408 37.52 11.1288 37.104C10.6328 36.688 9.96075 36.48 9.11275 36.48C8.32875 36.48 7.70475 36.648 7.24075 36.984C6.77675 37.32 6.54475 37.76 6.54475 38.304C6.54475 38.736 6.68075 39.096 6.95275 39.384C7.24075 39.656 7.59275 39.88 8.00875 40.056C8.44075 40.216 9.03275 40.4 9.78475 40.608C10.7288 40.864 11.4968 41.12 12.0888 41.376C12.6808 41.616 13.1848 41.984 13.6008 42.48C14.0328 42.976 14.2568 43.624 14.2728 44.424C14.2728 45.144 14.0728 45.792 13.6728 46.368C13.2728 46.944 12.7048 47.4 11.9688 47.736C11.2488 48.056 10.4168 48.216 9.47275 48.216ZM19.5398 37.272C19.9718 36.52 20.6118 35.896 21.4598 35.4C22.3238 34.888 23.3238 34.632 24.4598 34.632C25.6278 34.632 26.6838 34.912 27.6278 35.472C28.5878 36.032 29.3398 36.824 29.8838 37.848C30.4278 38.856 30.6998 40.032 30.6998 41.376C30.6998 42.704 30.4278 43.888 29.8838 44.928C29.3398 45.968 28.5878 46.776 27.6278 47.352C26.6838 47.928 25.6278 48.216 24.4598 48.216C23.3398 48.216 22.3478 47.968 21.4838 47.472C20.6358 46.96 19.9878 46.328 19.5398 45.576V54.24H17.3558V34.848H19.5398V37.272ZM28.4678 41.376C28.4678 40.384 28.2678 39.52 27.8678 38.784C27.4678 38.048 26.9238 37.488 26.2358 37.104C25.5638 36.72 24.8198 36.528 24.0038 36.528C23.2038 36.528 22.4598 36.728 21.7718 37.128C21.0998 37.512 20.5558 38.08 20.1398 38.832C19.7398 39.568 19.5398 40.424 19.5398 41.4C19.5398 42.392 19.7398 43.264 20.1398 44.016C20.5558 44.752 21.0998 45.32 21.7718 45.72C22.4598 46.104 23.2038 46.296 24.0038 46.296C24.8198 46.296 25.5638 46.104 26.2358 45.72C26.9238 45.32 27.4678 44.752 27.8678 44.016C28.2678 43.264 28.4678 42.384 28.4678 41.376ZM39.3106 48.216C38.0786 48.216 36.9586 47.936 35.9506 47.376C34.9586 46.816 34.1746 46.024 33.5986 45C33.0386 43.96 32.7586 42.76 32.7586 41.4C32.7586 40.056 33.0466 38.872 33.6226 37.848C34.2146 36.808 35.0146 36.016 36.0226 35.472C37.0306 34.912 38.1586 34.632 39.4066 34.632C40.6546 34.632 41.7826 34.912 42.7906 35.472C43.7986 36.016 44.5906 36.8 45.1666 37.824C45.7586 38.848 46.0546 40.04 46.0546 41.4C46.0546 42.76 45.7506 43.96 45.1426 45C44.5506 46.024 43.7426 46.816 42.7186 47.376C41.6946 47.936 40.5586 48.216 39.3106 48.216ZM39.3106 46.296C40.0946 46.296 40.8306 46.112 41.5186 45.744C42.2066 45.376 42.7586 44.824 43.1746 44.088C43.6066 43.352 43.8226 42.456 43.8226 41.4C43.8226 40.344 43.6146 39.448 43.1986 38.712C42.7826 37.976 42.2386 37.432 41.5666 37.08C40.8946 36.712 40.1666 36.528 39.3826 36.528C38.5826 36.528 37.8466 36.712 37.1746 37.08C36.5186 37.432 35.9906 37.976 35.5906 38.712C35.1906 39.448 34.9906 40.344 34.9906 41.4C34.9906 42.472 35.1826 43.376 35.5666 44.112C35.9666 44.848 36.4946 45.4 37.1506 45.768C37.8066 46.12 38.5266 46.296 39.3106 46.296ZM55.3341 34.608C56.9341 34.608 58.2301 35.096 59.2221 36.072C60.2141 37.032 60.7101 38.424 60.7101 40.248V48H58.5501V40.56C58.5501 39.248 58.2221 38.248 57.5661 37.56C56.9101 36.856 56.0141 36.504 54.8781 36.504C53.7261 36.504 52.8061 36.864 52.1181 37.584C51.4461 38.304 51.1101 39.352 51.1101 40.728V48H48.9261V34.848H51.1101V36.72C51.5421 36.048 52.1261 35.528 52.8621 35.16C53.6141 34.792 54.4381 34.608 55.3341 34.608ZM68.9337 48.216C67.9257 48.216 67.0217 48.048 66.2217 47.712C65.4217 47.36 64.7897 46.88 64.3257 46.272C63.8617 45.648 63.6057 44.936 63.5577 44.136H65.8137C65.8777 44.792 66.1817 45.328 66.7257 45.744C67.2857 46.16 68.0137 46.368 68.9097 46.368C69.7417 46.368 70.3977 46.184 70.8777 45.816C71.3577 45.448 71.5977 44.984 71.5977 44.424C71.5977 43.848 71.3417 43.424 70.8297 43.152C70.3177 42.864 69.5257 42.584 68.4537 42.312C67.4777 42.056 66.6777 41.8 66.0537 41.544C65.4457 41.272 64.9177 40.88 64.4697 40.368C64.0377 39.84 63.8217 39.152 63.8217 38.304C63.8217 37.632 64.0217 37.016 64.4217 36.456C64.8217 35.896 65.3897 35.456 66.1257 35.136C66.8617 34.8 67.7017 34.632 68.6457 34.632C70.1017 34.632 71.2777 35 72.1737 35.736C73.0697 36.472 73.5497 37.48 73.6137 38.76H71.4297C71.3817 38.072 71.1017 37.52 70.5897 37.104C70.0937 36.688 69.4217 36.48 68.5737 36.48C67.7897 36.48 67.1657 36.648 66.7017 36.984C66.2377 37.32 66.0057 37.76 66.0057 38.304C66.0057 38.736 66.1417 39.096 66.4137 39.384C66.7017 39.656 67.0537 39.88 67.4697 40.056C67.9017 40.216 68.4937 40.4 69.2457 40.608C70.1897 40.864 70.9577 41.12 71.5497 41.376C72.1417 41.616 72.6457 41.984 73.0617 42.48C73.4937 42.976 73.7177 43.624 73.7337 44.424C73.7337 45.144 73.5337 45.792 73.1337 46.368C72.7337 46.944 72.1657 47.4 71.4297 47.736C70.7097 48.056 69.8777 48.216 68.9337 48.216ZM88.8168 40.92C88.8168 41.336 88.7928 41.776 88.7448 42.24H78.2328C78.3128 43.536 78.7528 44.552 79.5528 45.288C80.3688 46.008 81.3528 46.368 82.5048 46.368C83.4488 46.368 84.2328 46.152 84.8568 45.72C85.4968 45.272 85.9448 44.68 86.2008 43.944H88.5528C88.2008 45.208 87.4968 46.24 86.4408 47.04C85.3848 47.824 84.0728 48.216 82.5048 48.216C81.2568 48.216 80.1368 47.936 79.1448 47.376C78.1688 46.816 77.4008 46.024 76.8408 45C76.2808 43.96 76.0008 42.76 76.0008 41.4C76.0008 40.04 76.2728 38.848 76.8168 37.824C77.3608 36.8 78.1208 36.016 79.0968 35.472C80.0888 34.912 81.2248 34.632 82.5048 34.632C83.7528 34.632 84.8568 34.904 85.8168 35.448C86.7768 35.992 87.5128 36.744 88.0248 37.704C88.5528 38.648 88.8168 39.72 88.8168 40.92ZM86.5608 40.464C86.5608 39.632 86.3768 38.92 86.0088 38.328C85.6408 37.72 85.1368 37.264 84.4968 36.96C83.8728 36.64 83.1768 36.48 82.4088 36.48C81.3048 36.48 80.3608 36.832 79.5768 37.536C78.8088 38.24 78.3688 39.216 78.2568 40.464H86.5608ZM94.5316 31.272L94.2676 43.272H92.4436L92.1796 31.272H94.5316ZM93.4516 48.144C93.0356 48.144 92.6836 48 92.3956 47.712C92.1076 47.424 91.9636 47.072 91.9636 46.656C91.9636 46.24 92.1076 45.888 92.3956 45.6C92.6836 45.312 93.0356 45.168 93.4516 45.168C93.8516 45.168 94.1876 45.312 94.4596 45.6C94.7476 45.888 94.8916 46.24 94.8916 46.656C94.8916 47.072 94.7476 47.424 94.4596 47.712C94.1876 48 93.8516 48.144 93.4516 48.144Z" fill="white"/>
<path d="M142.5 26.5C141.02 32.6356 136.464 37.5648 130.464 39.5224L129 40L130.464 40.4776C136.464 42.4352 141.02 47.3644 142.5 53.5C143.98 47.3644 148.536 42.4352 154.536 40.4776L156 40L154.536 39.5224C148.536 37.5648 143.98 32.6356 142.5 26.5Z" fill="#F3A60D"/>
<path d="M199.367 31.272V33.048H192.095V38.688H197.999V40.464H192.095V48H189.911V31.272H199.367ZM204.188 36.984C204.572 36.232 205.116 35.648 205.82 35.232C206.54 34.816 207.412 34.608 208.436 34.608V36.864H207.86C205.412 36.864 204.188 38.192 204.188 40.848V48H202.004V34.848H204.188V36.984ZM222.957 40.92C222.957 41.336 222.933 41.776 222.885 42.24H212.373C212.453 43.536 212.893 44.552 213.693 45.288C214.509 46.008 215.493 46.368 216.645 46.368C217.589 46.368 218.373 46.152 218.997 45.72C219.637 45.272 220.085 44.68 220.341 43.944H222.693C222.341 45.208 221.637 46.24 220.581 47.04C219.525 47.824 218.213 48.216 216.645 48.216C215.397 48.216 214.277 47.936 213.285 47.376C212.309 46.816 211.541 46.024 210.981 45C210.421 43.96 210.141 42.76 210.141 41.4C210.141 40.04 210.413 38.848 210.957 37.824C211.501 36.8 212.261 36.016 213.237 35.472C214.229 34.912 215.365 34.632 216.645 34.632C217.893 34.632 218.997 34.904 219.957 35.448C220.917 35.992 221.653 36.744 222.165 37.704C222.693 38.648 222.957 39.72 222.957 40.92ZM220.701 40.464C220.701 39.632 220.517 38.92 220.149 38.328C219.781 37.72 219.277 37.264 218.637 36.96C218.013 36.64 217.317 36.48 216.549 36.48C215.445 36.48 214.501 36.832 213.717 37.536C212.949 38.24 212.509 39.216 212.397 40.464H220.701ZM237.84 40.92C237.84 41.336 237.816 41.776 237.768 42.24H227.256C227.336 43.536 227.776 44.552 228.576 45.288C229.392 46.008 230.376 46.368 231.528 46.368C232.472 46.368 233.256 46.152 233.88 45.72C234.52 45.272 234.968 44.68 235.224 43.944H237.576C237.224 45.208 236.52 46.24 235.464 47.04C234.408 47.824 233.096 48.216 231.528 48.216C230.28 48.216 229.16 47.936 228.168 47.376C227.192 46.816 226.424 46.024 225.864 45C225.304 43.96 225.024 42.76 225.024 41.4C225.024 40.04 225.296 38.848 225.84 37.824C226.384 36.8 227.144 36.016 228.12 35.472C229.112 34.912 230.248 34.632 231.528 34.632C232.776 34.632 233.88 34.904 234.84 35.448C235.8 35.992 236.536 36.744 237.048 37.704C237.576 38.648 237.84 39.72 237.84 40.92ZM235.584 40.464C235.584 39.632 235.4 38.92 235.032 38.328C234.664 37.72 234.16 37.264 233.52 36.96C232.896 36.64 232.2 36.48 231.432 36.48C230.328 36.48 229.384 36.832 228.6 37.536C227.832 38.24 227.392 39.216 227.28 40.464H235.584ZM246.305 41.376C246.305 40.032 246.577 38.856 247.121 37.848C247.665 36.824 248.409 36.032 249.353 35.472C250.313 34.912 251.385 34.632 252.569 34.632C253.593 34.632 254.545 34.872 255.425 35.352C256.305 35.816 256.977 36.432 257.441 37.2V30.24H259.649V48H257.441V45.528C257.009 46.312 256.369 46.96 255.521 47.472C254.673 47.968 253.681 48.216 252.545 48.216C251.377 48.216 250.313 47.928 249.353 47.352C248.409 46.776 247.665 45.968 247.121 44.928C246.577 43.888 246.305 42.704 246.305 41.376ZM257.441 41.4C257.441 40.408 257.241 39.544 256.841 38.808C256.441 38.072 255.897 37.512 255.209 37.128C254.537 36.728 253.793 36.528 252.977 36.528C252.161 36.528 251.417 36.72 250.745 37.104C250.073 37.488 249.537 38.048 249.137 38.784C248.737 39.52 248.537 40.384 248.537 41.376C248.537 42.384 248.737 43.264 249.137 44.016C249.537 44.752 250.073 45.32 250.745 45.72C251.417 46.104 252.161 46.296 252.977 46.296C253.793 46.296 254.537 46.104 255.209 45.72C255.897 45.32 256.441 44.752 256.841 44.016C257.241 43.264 257.441 42.392 257.441 41.4ZM275.34 40.92C275.34 41.336 275.316 41.776 275.268 42.24H264.756C264.836 43.536 265.276 44.552 266.076 45.288C266.892 46.008 267.876 46.368 269.028 46.368C269.972 46.368 270.756 46.152 271.38 45.72C272.02 45.272 272.468 44.68 272.724 43.944H275.076C274.724 45.208 274.02 46.24 272.964 47.04C271.908 47.824 270.596 48.216 269.028 48.216C267.78 48.216 266.66 47.936 265.668 47.376C264.692 46.816 263.924 46.024 263.364 45C262.804 43.96 262.524 42.76 262.524 41.4C262.524 40.04 262.796 38.848 263.34 37.824C263.884 36.8 264.644 36.016 265.62 35.472C266.612 34.912 267.748 34.632 269.028 34.632C270.276 34.632 271.38 34.904 272.34 35.448C273.3 35.992 274.036 36.744 274.548 37.704C275.076 38.648 275.34 39.72 275.34 40.92ZM273.084 40.464C273.084 39.632 272.9 38.92 272.532 38.328C272.164 37.72 271.66 37.264 271.02 36.96C270.396 36.64 269.7 36.48 268.932 36.48C267.828 36.48 266.884 36.832 266.1 37.536C265.332 38.24 264.892 39.216 264.78 40.464H273.084ZM280.407 30.24V48H278.223V30.24H280.407ZM285.257 32.712C284.841 32.712 284.489 32.568 284.201 32.28C283.913 31.992 283.769 31.64 283.769 31.224C283.769 30.808 283.913 30.456 284.201 30.168C284.489 29.88 284.841 29.736 285.257 29.736C285.657 29.736 285.993 29.88 286.265 30.168C286.553 30.456 286.697 30.808 286.697 31.224C286.697 31.64 286.553 31.992 286.265 32.28C285.993 32.568 285.657 32.712 285.257 32.712ZM286.313 34.848V48H284.129V34.848H286.313ZM294.932 45.984L299.012 34.848H301.34L296.18 48H293.636L288.476 34.848H290.828L294.932 45.984ZM315.489 40.92C315.489 41.336 315.465 41.776 315.417 42.24H304.905C304.985 43.536 305.425 44.552 306.225 45.288C307.041 46.008 308.025 46.368 309.177 46.368C310.121 46.368 310.905 46.152 311.529 45.72C312.169 45.272 312.617 44.68 312.873 43.944H315.225C314.873 45.208 314.169 46.24 313.113 47.04C312.057 47.824 310.745 48.216 309.177 48.216C307.929 48.216 306.809 47.936 305.817 47.376C304.841 46.816 304.073 46.024 303.513 45C302.953 43.96 302.673 42.76 302.673 41.4C302.673 40.04 302.945 38.848 303.489 37.824C304.033 36.8 304.793 36.016 305.769 35.472C306.761 34.912 307.897 34.632 309.177 34.632C310.425 34.632 311.529 34.904 312.489 35.448C313.449 35.992 314.185 36.744 314.697 37.704C315.225 38.648 315.489 39.72 315.489 40.92ZM313.233 40.464C313.233 39.632 313.049 38.92 312.681 38.328C312.313 37.72 311.809 37.264 311.169 36.96C310.545 36.64 309.849 36.48 309.081 36.48C307.977 36.48 307.033 36.832 306.249 37.536C305.481 38.24 305.041 39.216 304.929 40.464H313.233ZM320.555 36.984C320.939 36.232 321.483 35.648 322.187 35.232C322.907 34.816 323.779 34.608 324.803 34.608V36.864H324.227C321.779 36.864 320.555 38.192 320.555 40.848V48H318.371V34.848H320.555V36.984ZM338.653 34.848L330.733 54.192H328.477L331.069 47.856L325.765 34.848H328.189L332.317 45.504L336.397 34.848H338.653Z" fill="white"/>
<path d="M384.5 26.5C383.02 32.6356 378.464 37.5648 372.464 39.5224L371 40L372.464 40.4776C378.464 42.4352 383.02 47.3644 384.5 53.5C385.98 47.3644 390.536 42.4352 396.536 40.4776L398 40L396.536 39.5224C390.536 37.5648 385.98 32.6356 384.5 26.5Z" fill="#F3A60D"/>
<path d="M438.011 48.168C436.907 48.168 435.915 47.976 435.035 47.592C434.171 47.192 433.491 46.648 432.995 45.96C432.499 45.256 432.243 44.448 432.227 43.536H434.555C434.635 44.32 434.955 44.984 435.515 45.528C436.091 46.056 436.923 46.32 438.011 46.32C439.051 46.32 439.867 46.064 440.459 45.552C441.067 45.024 441.371 44.352 441.371 43.536C441.371 42.896 441.195 42.376 440.843 41.976C440.491 41.576 440.051 41.272 439.523 41.064C438.995 40.856 438.283 40.632 437.387 40.392C436.283 40.104 435.395 39.816 434.723 39.528C434.067 39.24 433.499 38.792 433.019 38.184C432.555 37.56 432.323 36.728 432.323 35.688C432.323 34.776 432.555 33.968 433.019 33.264C433.483 32.56 434.131 32.016 434.963 31.632C435.811 31.248 436.779 31.056 437.867 31.056C439.435 31.056 440.715 31.448 441.707 32.232C442.715 33.016 443.283 34.056 443.411 35.352H441.011C440.931 34.712 440.595 34.152 440.003 33.672C439.411 33.176 438.627 32.928 437.651 32.928C436.739 32.928 435.995 33.168 435.419 33.648C434.843 34.112 434.555 34.768 434.555 35.616C434.555 36.224 434.723 36.72 435.059 37.104C435.411 37.488 435.835 37.784 436.331 37.992C436.843 38.184 437.555 38.408 438.467 38.664C439.571 38.968 440.459 39.272 441.131 39.576C441.803 39.864 442.379 40.32 442.859 40.944C443.339 41.552 443.579 42.384 443.579 43.44C443.579 44.256 443.363 45.024 442.931 45.744C442.499 46.464 441.859 47.048 441.011 47.496C440.163 47.944 439.163 48.168 438.011 48.168ZM458.457 34.848V48H456.273V46.056C455.857 46.728 455.273 47.256 454.521 47.64C453.785 48.008 452.969 48.192 452.073 48.192C451.049 48.192 450.129 47.984 449.313 47.568C448.497 47.136 447.849 46.496 447.369 45.648C446.905 44.8 446.673 43.768 446.673 42.552V34.848H448.833V42.264C448.833 43.56 449.161 44.56 449.817 45.264C450.473 45.952 451.369 46.296 452.505 46.296C453.673 46.296 454.593 45.936 455.265 45.216C455.937 44.496 456.273 43.448 456.273 42.072V34.848H458.457ZM464.329 37.272C464.761 36.52 465.401 35.896 466.249 35.4C467.113 34.888 468.113 34.632 469.249 34.632C470.417 34.632 471.473 34.912 472.417 35.472C473.377 36.032 474.129 36.824 474.673 37.848C475.217 38.856 475.489 40.032 475.489 41.376C475.489 42.704 475.217 43.888 474.673 44.928C474.129 45.968 473.377 46.776 472.417 47.352C471.473 47.928 470.417 48.216 469.249 48.216C468.129 48.216 467.137 47.968 466.273 47.472C465.425 46.96 464.777 46.328 464.329 45.576V54.24H462.145V34.848H464.329V37.272ZM473.257 41.376C473.257 40.384 473.057 39.52 472.657 38.784C472.257 38.048 471.713 37.488 471.025 37.104C470.353 36.72 469.609 36.528 468.793 36.528C467.993 36.528 467.249 36.728 466.561 37.128C465.889 37.512 465.345 38.08 464.929 38.832C464.529 39.568 464.329 40.424 464.329 41.4C464.329 42.392 464.529 43.264 464.929 44.016C465.345 44.752 465.889 45.32 466.561 45.72C467.249 46.104 467.993 46.296 468.793 46.296C469.609 46.296 470.353 46.104 471.025 45.72C471.713 45.32 472.257 44.752 472.657 44.016C473.057 43.264 473.257 42.384 473.257 41.376ZM480.548 37.272C480.98 36.52 481.62 35.896 482.468 35.4C483.332 34.888 484.332 34.632 485.468 34.632C486.636 34.632 487.692 34.912 488.636 35.472C489.596 36.032 490.348 36.824 490.892 37.848C491.436 38.856 491.708 40.032 491.708 41.376C491.708 42.704 491.436 43.888 490.892 44.928C490.348 45.968 489.596 46.776 488.636 47.352C487.692 47.928 486.636 48.216 485.468 48.216C484.348 48.216 483.356 47.968 482.492 47.472C481.644 46.96 480.996 46.328 480.548 45.576V54.24H478.364V34.848H480.548V37.272ZM489.476 41.376C489.476 40.384 489.276 39.52 488.876 38.784C488.476 38.048 487.932 37.488 487.244 37.104C486.572 36.72 485.828 36.528 485.012 36.528C484.212 36.528 483.468 36.728 482.78 37.128C482.108 37.512 481.564 38.08 481.148 38.832C480.748 39.568 480.548 40.424 480.548 41.4C480.548 42.392 480.748 43.264 481.148 44.016C481.564 44.752 482.108 45.32 482.78 45.72C483.468 46.104 484.212 46.296 485.012 46.296C485.828 46.296 486.572 46.104 487.244 45.72C487.932 45.32 488.476 44.752 488.876 44.016C489.276 43.264 489.476 42.384 489.476 41.376ZM500.318 48.216C499.086 48.216 497.966 47.936 496.958 47.376C495.966 46.816 495.182 46.024 494.606 45C494.046 43.96 493.766 42.76 493.766 41.4C493.766 40.056 494.054 38.872 494.63 37.848C495.222 36.808 496.022 36.016 497.03 35.472C498.038 34.912 499.166 34.632 500.414 34.632C501.662 34.632 502.79 34.912 503.798 35.472C504.806 36.016 505.598 36.8 506.174 37.824C506.766 38.848 507.062 40.04 507.062 41.4C507.062 42.76 506.758 43.96 506.15 45C505.558 46.024 504.75 46.816 503.726 47.376C502.702 47.936 501.566 48.216 500.318 48.216ZM500.318 46.296C501.102 46.296 501.838 46.112 502.526 45.744C503.214 45.376 503.766 44.824 504.182 44.088C504.614 43.352 504.83 42.456 504.83 41.4C504.83 40.344 504.622 39.448 504.206 38.712C503.79 37.976 503.246 37.432 502.574 37.08C501.902 36.712 501.174 36.528 500.39 36.528C499.59 36.528 498.854 36.712 498.182 37.08C497.526 37.432 496.998 37.976 496.598 38.712C496.198 39.448 495.998 40.344 495.998 41.4C495.998 42.472 496.19 43.376 496.574 44.112C496.974 44.848 497.502 45.4 498.158 45.768C498.814 46.12 499.534 46.296 500.318 46.296ZM512.118 36.984C512.502 36.232 513.046 35.648 513.75 35.232C514.47 34.816 515.342 34.608 516.366 34.608V36.864H515.79C513.342 36.864 512.118 38.192 512.118 40.848V48H509.934V34.848H512.118V36.984ZM521.551 36.648V44.4C521.551 45.04 521.687 45.496 521.959 45.768C522.231 46.024 522.703 46.152 523.375 46.152H524.983V48H523.015C521.799 48 520.887 47.72 520.279 47.16C519.671 46.6 519.367 45.68 519.367 44.4V36.648H517.663V34.848H519.367V31.536H521.551V34.848H524.983V36.648H521.551ZM544.348 32.352L537.676 48H535.468L542.236 32.568H532.972V30.696H544.348V32.352ZM552.712 41.376C552.712 40.032 552.984 38.856 553.528 37.848C554.072 36.824 554.816 36.032 555.76 35.472C556.72 34.912 557.792 34.632 558.976 34.632C560 34.632 560.952 34.872 561.832 35.352C562.712 35.816 563.384 36.432 563.848 37.2V30.24H566.056V48H563.848V45.528C563.416 46.312 562.776 46.96 561.928 47.472C561.08 47.968 560.088 48.216 558.952 48.216C557.784 48.216 556.72 47.928 555.76 47.352C554.816 46.776 554.072 45.968 553.528 44.928C552.984 43.888 552.712 42.704 552.712 41.376ZM563.848 41.4C563.848 40.408 563.648 39.544 563.248 38.808C562.848 38.072 562.304 37.512 561.616 37.128C560.944 36.728 560.2 36.528 559.384 36.528C558.568 36.528 557.824 36.72 557.152 37.104C556.48 37.488 555.944 38.048 555.544 38.784C555.144 39.52 554.944 40.384 554.944 41.376C554.944 42.384 555.144 43.264 555.544 44.016C555.944 44.752 556.48 45.32 557.152 45.72C557.824 46.104 558.568 46.296 559.384 46.296C560.2 46.296 560.944 46.104 561.616 45.72C562.304 45.32 562.848 44.752 563.248 44.016C563.648 43.264 563.848 42.392 563.848 41.4ZM568.93 41.376C568.93 40.032 569.202 38.856 569.746 37.848C570.29 36.824 571.034 36.032 571.978 35.472C572.938 34.912 574.002 34.632 575.17 34.632C576.322 34.632 577.322 34.88 578.17 35.376C579.018 35.872 579.65 36.496 580.066 37.248V34.848H582.274V48H580.066V45.552C579.634 46.32 578.986 46.96 578.122 47.472C577.274 47.968 576.282 48.216 575.146 48.216C573.978 48.216 572.922 47.928 571.978 47.352C571.034 46.776 570.29 45.968 569.746 44.928C569.202 43.888 568.93 42.704 568.93 41.376ZM580.066 41.4C580.066 40.408 579.866 39.544 579.466 38.808C579.066 38.072 578.522 37.512 577.834 37.128C577.162 36.728 576.418 36.528 575.602 36.528C574.786 36.528 574.042 36.72 573.37 37.104C572.698 37.488 572.162 38.048 571.762 38.784C571.362 39.52 571.162 40.384 571.162 41.376C571.162 42.384 571.362 43.264 571.762 44.016C572.162 44.752 572.698 45.32 573.37 45.72C574.042 46.104 574.786 46.296 575.602 46.296C576.418 46.296 577.162 46.104 577.834 45.72C578.522 45.32 579.066 44.752 579.466 44.016C579.866 43.264 580.066 42.392 580.066 41.4ZM597.293 34.848L589.373 54.192H587.117L589.709 47.856L584.405 34.848H586.829L590.957 45.504L595.037 34.848H597.293ZM604.145 48.216C603.137 48.216 602.233 48.048 601.433 47.712C600.633 47.36 600.001 46.88 599.537 46.272C599.073 45.648 598.817 44.936 598.769 44.136H601.025C601.089 44.792 601.393 45.328 601.937 45.744C602.497 46.16 603.225 46.368 604.121 46.368C604.953 46.368 605.609 46.184 606.089 45.816C606.569 45.448 606.809 44.984 606.809 44.424C606.809 43.848 606.553 43.424 606.041 43.152C605.529 42.864 604.737 42.584 603.665 42.312C602.689 42.056 601.889 41.8 601.265 41.544C600.657 41.272 600.129 40.88 599.681 40.368C599.249 39.84 599.033 39.152 599.033 38.304C599.033 37.632 599.233 37.016 599.633 36.456C600.033 35.896 600.601 35.456 601.337 35.136C602.073 34.8 602.913 34.632 603.857 34.632C605.313 34.632 606.489 35 607.385 35.736C608.281 36.472 608.761 37.48 608.825 38.76H606.641C606.593 38.072 606.313 37.52 605.801 37.104C605.305 36.688 604.633 36.48 603.785 36.48C603.001 36.48 602.377 36.648 601.913 36.984C601.449 37.32 601.217 37.76 601.217 38.304C601.217 38.736 601.353 39.096 601.625 39.384C601.913 39.656 602.265 39.88 602.681 40.056C603.113 40.216 603.705 40.4 604.457 40.608C605.401 40.864 606.169 41.12 606.761 41.376C607.353 41.616 607.857 41.984 608.273 42.48C608.705 42.976 608.929 43.624 608.945 44.424C608.945 45.144 608.745 45.792 608.345 46.368C607.945 46.944 607.377 47.4 606.641 47.736C605.921 48.056 605.089 48.216 604.145 48.216ZM617.61 41.376C617.61 40.032 617.882 38.856 618.426 37.848C618.97 36.824 619.714 36.032 620.658 35.472C621.618 34.912 622.682 34.632 623.85 34.632C625.002 34.632 626.002 34.88 626.85 35.376C627.698 35.872 628.33 36.496 628.746 37.248V34.848H630.954V48H628.746V45.552C628.314 46.32 627.666 46.96 626.802 47.472C625.954 47.968 624.962 48.216 623.826 48.216C622.658 48.216 621.602 47.928 620.658 47.352C619.714 46.776 618.97 45.968 618.426 44.928C617.882 43.888 617.61 42.704 617.61 41.376ZM628.746 41.4C628.746 40.408 628.546 39.544 628.146 38.808C627.746 38.072 627.202 37.512 626.514 37.128C625.842 36.728 625.098 36.528 624.282 36.528C623.466 36.528 622.722 36.72 622.05 37.104C621.378 37.488 620.842 38.048 620.442 38.784C620.042 39.52 619.842 40.384 619.842 41.376C619.842 42.384 620.042 43.264 620.442 44.016C620.842 44.752 621.378 45.32 622.05 45.72C622.722 46.104 623.466 46.296 624.282 46.296C625.098 46.296 625.842 46.104 626.514 45.72C627.202 45.32 627.746 44.752 628.146 44.016C628.546 43.264 628.746 42.392 628.746 41.4ZM658.563 34.848L654.459 48H652.203L649.035 37.56L645.867 48H643.611L639.483 34.848H641.715L644.739 45.888L648.003 34.848H650.235L653.427 45.912L656.403 34.848H658.563ZM672.731 40.92C672.731 41.336 672.707 41.776 672.659 42.24H662.147C662.227 43.536 662.667 44.552 663.467 45.288C664.283 46.008 665.267 46.368 666.419 46.368C667.363 46.368 668.147 46.152 668.771 45.72C669.411 45.272 669.859 44.68 670.115 43.944H672.467C672.115 45.208 671.411 46.24 670.355 47.04C669.299 47.824 667.987 48.216 666.419 48.216C665.171 48.216 664.051 47.936 663.059 47.376C662.083 46.816 661.315 46.024 660.755 45C660.195 43.96 659.915 42.76 659.915 41.4C659.915 40.04 660.187 38.848 660.731 37.824C661.275 36.8 662.035 36.016 663.011 35.472C664.003 34.912 665.139 34.632 666.419 34.632C667.667 34.632 668.771 34.904 669.731 35.448C670.691 35.992 671.427 36.744 671.939 37.704C672.467 38.648 672.731 39.72 672.731 40.92ZM670.475 40.464C670.475 39.632 670.291 38.92 669.923 38.328C669.555 37.72 669.051 37.264 668.411 36.96C667.787 36.64 667.091 36.48 666.323 36.48C665.219 36.48 664.275 36.832 663.491 37.536C662.723 38.24 662.283 39.216 662.171 40.464H670.475ZM687.614 40.92C687.614 41.336 687.59 41.776 687.542 42.24H677.03C677.11 43.536 677.55 44.552 678.35 45.288C679.166 46.008 680.15 46.368 681.302 46.368C682.246 46.368 683.03 46.152 683.654 45.72C684.294 45.272 684.742 44.68 684.998 43.944H687.35C686.998 45.208 686.294 46.24 685.238 47.04C684.182 47.824 682.87 48.216 681.302 48.216C680.054 48.216 678.934 47.936 677.942 47.376C676.966 46.816 676.198 46.024 675.638 45C675.078 43.96 674.798 42.76 674.798 41.4C674.798 40.04 675.07 38.848 675.614 37.824C676.158 36.8 676.918 36.016 677.894 35.472C678.886 34.912 680.022 34.632 681.302 34.632C682.55 34.632 683.654 34.904 684.614 35.448C685.574 35.992 686.31 36.744 686.822 37.704C687.35 38.648 687.614 39.72 687.614 40.92ZM685.358 40.464C685.358 39.632 685.174 38.92 684.806 38.328C684.438 37.72 683.934 37.264 683.294 36.96C682.67 36.64 681.974 36.48 681.206 36.48C680.102 36.48 679.158 36.832 678.374 37.536C677.606 38.24 677.166 39.216 677.054 40.464H685.358ZM697.84 48L692.68 42.192V48H690.496V30.24H692.68V40.68L697.744 34.848H700.792L694.6 41.4L700.816 48H697.84Z" fill="white"/>
<path d="M746.5 26.5C745.02 32.6356 740.464 37.5648 734.464 39.5224L733 40L734.464 40.4776C740.464 42.4352 745.02 47.3644 746.5 53.5C747.98 47.3644 752.536 42.4352 758.536 40.4776L760 40L758.536 39.5224C752.536 37.5648 747.98 32.6356 746.5 26.5Z" fill="#F3A60D"/>
<path d="M806.895 36.12C806.431 35.144 805.759 34.392 804.879 33.864C803.999 33.32 802.975 33.048 801.807 33.048C800.639 33.048 799.583 33.32 798.639 33.864C797.711 34.392 796.975 35.16 796.431 36.168C795.903 37.16 795.639 38.312 795.639 39.624C795.639 40.936 795.903 42.088 796.431 43.08C796.975 44.072 797.711 44.84 798.639 45.384C799.583 45.912 800.639 46.176 801.807 46.176C803.439 46.176 804.783 45.688 805.839 44.712C806.895 43.736 807.511 42.416 807.687 40.752H801.015V38.976H810.015V40.656C809.887 42.032 809.455 43.296 808.719 44.448C807.983 45.584 807.015 46.488 805.815 47.16C804.615 47.816 803.279 48.144 801.807 48.144C800.255 48.144 798.839 47.784 797.559 47.064C796.279 46.328 795.263 45.312 794.511 44.016C793.775 42.72 793.407 41.256 793.407 39.624C793.407 37.992 793.775 36.528 794.511 35.232C795.263 33.92 796.279 32.904 797.559 32.184C798.839 31.448 800.255 31.08 801.807 31.08C803.583 31.08 805.151 31.52 806.511 32.4C807.887 33.28 808.887 34.52 809.511 36.12H806.895ZM824.567 34.848V48H822.383V46.056C821.967 46.728 821.383 47.256 820.631 47.64C819.895 48.008 819.079 48.192 818.183 48.192C817.159 48.192 816.239 47.984 815.423 47.568C814.607 47.136 813.959 46.496 813.479 45.648C813.015 44.8 812.783 43.768 812.783 42.552V34.848H814.943V42.264C814.943 43.56 815.271 44.56 815.927 45.264C816.583 45.952 817.479 46.296 818.615 46.296C819.783 46.296 820.703 45.936 821.375 45.216C822.047 44.496 822.383 43.448 822.383 42.072V34.848H824.567ZM827.438 41.376C827.438 40.032 827.71 38.856 828.254 37.848C828.798 36.824 829.542 36.032 830.486 35.472C831.446 34.912 832.51 34.632 833.678 34.632C834.83 34.632 835.83 34.88 836.678 35.376C837.526 35.872 838.158 36.496 838.574 37.248V34.848H840.782V48H838.574V45.552C838.142 46.32 837.494 46.96 836.63 47.472C835.782 47.968 834.79 48.216 833.654 48.216C832.486 48.216 831.43 47.928 830.486 47.352C829.542 46.776 828.798 45.968 828.254 44.928C827.71 43.888 827.438 42.704 827.438 41.376ZM838.574 41.4C838.574 40.408 838.374 39.544 837.974 38.808C837.574 38.072 837.03 37.512 836.342 37.128C835.67 36.728 834.926 36.528 834.11 36.528C833.294 36.528 832.55 36.72 831.878 37.104C831.206 37.488 830.67 38.048 830.27 38.784C829.87 39.52 829.67 40.384 829.67 41.376C829.67 42.384 829.87 43.264 830.27 44.016C830.67 44.752 831.206 45.32 831.878 45.72C832.55 46.104 833.294 46.296 834.11 46.296C834.926 46.296 835.67 46.104 836.342 45.72C837.03 45.32 837.574 44.752 837.974 44.016C838.374 43.264 838.574 42.392 838.574 41.4ZM846.657 36.984C847.041 36.232 847.585 35.648 848.289 35.232C849.009 34.816 849.881 34.608 850.905 34.608V36.864H850.329C847.881 36.864 846.657 38.192 846.657 40.848V48H844.473V34.848H846.657V36.984ZM852.61 41.376C852.61 40.032 852.882 38.856 853.426 37.848C853.97 36.824 854.714 36.032 855.658 35.472C856.618 34.912 857.682 34.632 858.85 34.632C860.002 34.632 861.002 34.88 861.85 35.376C862.698 35.872 863.33 36.496 863.746 37.248V34.848H865.954V48H863.746V45.552C863.314 46.32 862.666 46.96 861.802 47.472C860.954 47.968 859.962 48.216 858.826 48.216C857.658 48.216 856.602 47.928 855.658 47.352C854.714 46.776 853.97 45.968 853.426 44.928C852.882 43.888 852.61 42.704 852.61 41.376ZM863.746 41.4C863.746 40.408 863.546 39.544 863.146 38.808C862.746 38.072 862.202 37.512 861.514 37.128C860.842 36.728 860.098 36.528 859.282 36.528C858.466 36.528 857.722 36.72 857.05 37.104C856.378 37.488 855.842 38.048 855.442 38.784C855.042 39.52 854.842 40.384 854.842 41.376C854.842 42.384 855.042 43.264 855.442 44.016C855.842 44.752 856.378 45.32 857.05 45.72C857.722 46.104 858.466 46.296 859.282 46.296C860.098 46.296 860.842 46.104 861.514 45.72C862.202 45.32 862.746 44.752 863.146 44.016C863.546 43.264 863.746 42.392 863.746 41.4ZM876.053 34.608C877.653 34.608 878.949 35.096 879.941 36.072C880.933 37.032 881.429 38.424 881.429 40.248V48H879.269V40.56C879.269 39.248 878.941 38.248 878.285 37.56C877.629 36.856 876.733 36.504 875.597 36.504C874.445 36.504 873.525 36.864 872.837 37.584C872.165 38.304 871.829 39.352 871.829 40.728V48H869.645V34.848H871.829V36.72C872.261 36.048 872.845 35.528 873.581 35.16C874.333 34.792 875.157 34.608 876.053 34.608ZM887.66 36.648V44.4C887.66 45.04 887.796 45.496 888.068 45.768C888.34 46.024 888.812 46.152 889.484 46.152H891.092V48H889.124C887.908 48 886.996 47.72 886.388 47.16C885.78 46.6 885.476 45.68 885.476 44.4V36.648H883.772V34.848H885.476V31.536H887.66V34.848H891.092V36.648H887.66ZM905.739 40.92C905.739 41.336 905.715 41.776 905.667 42.24H895.155C895.235 43.536 895.675 44.552 896.475 45.288C897.291 46.008 898.275 46.368 899.427 46.368C900.371 46.368 901.155 46.152 901.779 45.72C902.419 45.272 902.867 44.68 903.123 43.944H905.475C905.123 45.208 904.419 46.24 903.363 47.04C902.307 47.824 900.995 48.216 899.427 48.216C898.179 48.216 897.059 47.936 896.067 47.376C895.091 46.816 894.323 46.024 893.763 45C893.203 43.96 892.923 42.76 892.923 41.4C892.923 40.04 893.195 38.848 893.739 37.824C894.283 36.8 895.043 36.016 896.019 35.472C897.011 34.912 898.147 34.632 899.427 34.632C900.675 34.632 901.779 34.904 902.739 35.448C903.699 35.992 904.435 36.744 904.947 37.704C905.475 38.648 905.739 39.72 905.739 40.92ZM903.483 40.464C903.483 39.632 903.299 38.92 902.931 38.328C902.563 37.72 902.059 37.264 901.419 36.96C900.795 36.64 900.099 36.48 899.331 36.48C898.227 36.48 897.283 36.832 896.499 37.536C895.731 38.24 895.291 39.216 895.179 40.464H903.483ZM920.621 40.92C920.621 41.336 920.597 41.776 920.549 42.24H910.037C910.117 43.536 910.557 44.552 911.357 45.288C912.173 46.008 913.157 46.368 914.309 46.368C915.253 46.368 916.037 46.152 916.661 45.72C917.301 45.272 917.749 44.68 918.005 43.944H920.357C920.005 45.208 919.301 46.24 918.245 47.04C917.189 47.824 915.877 48.216 914.309 48.216C913.061 48.216 911.941 47.936 910.949 47.376C909.973 46.816 909.205 46.024 908.645 45C908.085 43.96 907.805 42.76 907.805 41.4C907.805 40.04 908.077 38.848 908.621 37.824C909.165 36.8 909.925 36.016 910.901 35.472C911.893 34.912 913.029 34.632 914.309 34.632C915.557 34.632 916.661 34.904 917.621 35.448C918.581 35.992 919.317 36.744 919.829 37.704C920.357 38.648 920.621 39.72 920.621 40.92ZM918.365 40.464C918.365 39.632 918.181 38.92 917.813 38.328C917.445 37.72 916.941 37.264 916.301 36.96C915.677 36.64 914.981 36.48 914.213 36.48C913.109 36.48 912.165 36.832 911.381 37.536C910.613 38.24 910.173 39.216 910.061 40.464H918.365ZM935.639 48.216C934.407 48.216 933.287 47.936 932.279 47.376C931.287 46.816 930.503 46.024 929.927 45C929.367 43.96 929.087 42.76 929.087 41.4C929.087 40.056 929.375 38.872 929.951 37.848C930.543 36.808 931.343 36.016 932.351 35.472C933.359 34.912 934.487 34.632 935.735 34.632C936.983 34.632 938.111 34.912 939.119 35.472C940.127 36.016 940.919 36.8 941.495 37.824C942.087 38.848 942.383 40.04 942.383 41.4C942.383 42.76 942.079 43.96 941.471 45C940.879 46.024 940.071 46.816 939.047 47.376C938.023 47.936 936.887 48.216 935.639 48.216ZM935.639 46.296C936.423 46.296 937.159 46.112 937.847 45.744C938.535 45.376 939.087 44.824 939.503 44.088C939.935 43.352 940.151 42.456 940.151 41.4C940.151 40.344 939.943 39.448 939.527 38.712C939.111 37.976 938.567 37.432 937.895 37.08C937.223 36.712 936.495 36.528 935.711 36.528C934.911 36.528 934.175 36.712 933.503 37.08C932.847 37.432 932.319 37.976 931.919 38.712C931.519 39.448 931.319 40.344 931.319 41.4C931.319 42.472 931.511 43.376 931.895 44.112C932.295 44.848 932.823 45.4 933.479 45.768C934.135 46.12 934.855 46.296 935.639 46.296ZM950.606 36.648H947.846V48H945.662V36.648H943.958V34.848H945.662V33.912C945.662 32.44 946.038 31.368 946.79 30.696C947.558 30.008 948.782 29.664 950.462 29.664V31.488C949.502 31.488 948.822 31.68 948.422 32.064C948.038 32.432 947.846 33.048 947.846 33.912V34.848H950.606V36.648ZM958.735 41.376C958.735 40.032 959.007 38.856 959.551 37.848C960.095 36.824 960.839 36.032 961.783 35.472C962.743 34.912 963.807 34.632 964.975 34.632C966.127 34.632 967.127 34.88 967.975 35.376C968.823 35.872 969.455 36.496 969.871 37.248V34.848H972.079V48H969.871V45.552C969.439 46.32 968.791 46.96 967.927 47.472C967.079 47.968 966.087 48.216 964.951 48.216C963.783 48.216 962.727 47.928 961.783 47.352C960.839 46.776 960.095 45.968 959.551 44.928C959.007 43.888 958.735 42.704 958.735 41.376ZM969.871 41.4C969.871 40.408 969.671 39.544 969.271 38.808C968.871 38.072 968.327 37.512 967.639 37.128C966.967 36.728 966.223 36.528 965.407 36.528C964.591 36.528 963.847 36.72 963.175 37.104C962.503 37.488 961.967 38.048 961.567 38.784C961.167 39.52 960.967 40.384 960.967 41.376C960.967 42.384 961.167 43.264 961.567 44.016C961.967 44.752 962.503 45.32 963.175 45.72C963.847 46.104 964.591 46.296 965.407 46.296C966.223 46.296 966.967 46.104 967.639 45.72C968.327 45.32 968.871 44.752 969.271 44.016C969.671 43.264 969.871 42.392 969.871 41.4ZM987.434 34.848V48H985.25V46.056C984.834 46.728 984.25 47.256 983.498 47.64C982.762 48.008 981.946 48.192 981.05 48.192C980.026 48.192 979.106 47.984 978.29 47.568C977.474 47.136 976.826 46.496 976.346 45.648C975.882 44.8 975.65 43.768 975.65 42.552V34.848H977.81V42.264C977.81 43.56 978.138 44.56 978.794 45.264C979.45 45.952 980.346 46.296 981.482 46.296C982.65 46.296 983.57 45.936 984.242 45.216C984.914 44.496 985.25 43.448 985.25 42.072V34.848H987.434ZM993.785 36.648V44.4C993.785 45.04 993.921 45.496 994.193 45.768C994.465 46.024 994.937 46.152 995.609 46.152H997.217V48H995.249C994.033 48 993.121 47.72 992.513 47.16C991.905 46.6 991.601 45.68 991.601 44.4V36.648H989.897V34.848H991.601V31.536H993.785V34.848H997.217V36.648H993.785ZM1006.39 34.608C1007.38 34.608 1008.28 34.824 1009.08 35.256C1009.88 35.672 1010.5 36.304 1010.95 37.152C1011.42 38 1011.65 39.032 1011.65 40.248V48H1009.49V40.56C1009.49 39.248 1009.16 38.248 1008.5 37.56C1007.85 36.856 1006.95 36.504 1005.82 36.504C1004.66 36.504 1003.74 36.864 1003.06 37.584C1002.38 38.304 1002.05 39.352 1002.05 40.728V48H999.864V30.24H1002.05V36.72C1002.48 36.048 1003.07 35.528 1003.82 35.16C1004.59 34.792 1005.45 34.608 1006.39 34.608ZM1027.22 40.92C1027.22 41.336 1027.19 41.776 1027.14 42.24H1016.63C1016.71 43.536 1017.15 44.552 1017.95 45.288C1018.77 46.008 1019.75 46.368 1020.9 46.368C1021.85 46.368 1022.63 46.152 1023.26 45.72C1023.9 45.272 1024.34 44.68 1024.6 43.944H1026.95C1026.6 45.208 1025.9 46.24 1024.84 47.04C1023.78 47.824 1022.47 48.216 1020.9 48.216C1019.66 48.216 1018.54 47.936 1017.54 47.376C1016.57 46.816 1015.8 46.024 1015.24 45C1014.68 43.96 1014.4 42.76 1014.4 41.4C1014.4 40.04 1014.67 38.848 1015.22 37.824C1015.76 36.8 1016.52 36.016 1017.5 35.472C1018.49 34.912 1019.62 34.632 1020.9 34.632C1022.15 34.632 1023.26 34.904 1024.22 35.448C1025.18 35.992 1025.91 36.744 1026.42 37.704C1026.95 38.648 1027.22 39.72 1027.22 40.92ZM1024.96 40.464C1024.96 39.632 1024.78 38.92 1024.41 38.328C1024.04 37.72 1023.54 37.264 1022.9 36.96C1022.27 36.64 1021.58 36.48 1020.81 36.48C1019.7 36.48 1018.76 36.832 1017.98 37.536C1017.21 38.24 1016.77 39.216 1016.66 40.464H1024.96ZM1036.51 34.608C1038.11 34.608 1039.4 35.096 1040.39 36.072C1041.39 37.032 1041.88 38.424 1041.88 40.248V48H1039.72V40.56C1039.72 39.248 1039.39 38.248 1038.74 37.56C1038.08 36.856 1037.19 36.504 1036.05 36.504C1034.9 36.504 1033.98 36.864 1033.29 37.584C1032.62 38.304 1032.28 39.352 1032.28 40.728V48H1030.1V34.848H1032.28V36.72C1032.71 36.048 1033.3 35.528 1034.03 35.16C1034.79 34.792 1035.61 34.608 1036.51 34.608ZM1048.11 36.648V44.4C1048.11 45.04 1048.25 45.496 1048.52 45.768C1048.79 46.024 1049.27 46.152 1049.94 46.152H1051.55V48H1049.58C1048.36 48 1047.45 47.72 1046.84 47.16C1046.23 46.6 1045.93 45.68 1045.93 44.4V36.648H1044.23V34.848H1045.93V31.536H1048.11V34.848H1051.55V36.648H1048.11ZM1055.32 32.712C1054.9 32.712 1054.55 32.568 1054.26 32.28C1053.98 31.992 1053.83 31.64 1053.83 31.224C1053.83 30.808 1053.98 30.456 1054.26 30.168C1054.55 29.88 1054.9 29.736 1055.32 29.736C1055.72 29.736 1056.06 29.88 1056.33 30.168C1056.62 30.456 1056.76 30.808 1056.76 31.224C1056.76 31.64 1056.62 31.992 1056.33 32.28C1056.06 32.568 1055.72 32.712 1055.32 32.712ZM1056.38 34.848V48H1054.19V34.848H1056.38ZM1059.28 41.4C1059.28 40.04 1059.55 38.856 1060.1 37.848C1060.64 36.824 1061.39 36.032 1062.35 35.472C1063.33 34.912 1064.44 34.632 1065.69 34.632C1067.31 34.632 1068.63 35.024 1069.67 35.808C1070.73 36.592 1071.43 37.68 1071.76 39.072H1069.41C1069.19 38.272 1068.75 37.64 1068.09 37.176C1067.45 36.712 1066.65 36.48 1065.69 36.48C1064.44 36.48 1063.43 36.912 1062.67 37.776C1061.9 38.624 1061.51 39.832 1061.51 41.4C1061.51 42.984 1061.9 44.208 1062.67 45.072C1063.43 45.936 1064.44 46.368 1065.69 46.368C1066.65 46.368 1067.45 46.144 1068.09 45.696C1068.73 45.248 1069.17 44.608 1069.41 43.776H1071.76C1071.41 45.12 1070.71 46.2 1069.65 47.016C1068.59 47.816 1067.27 48.216 1065.69 48.216C1064.44 48.216 1063.33 47.936 1062.35 47.376C1061.39 46.816 1060.64 46.024 1060.1 45C1059.55 43.976 1059.28 42.776 1059.28 41.4ZM1075.8 32.712C1075.39 32.712 1075.04 32.568 1074.75 32.28C1074.46 31.992 1074.32 31.64 1074.32 31.224C1074.32 30.808 1074.46 30.456 1074.75 30.168C1075.04 29.88 1075.39 29.736 1075.8 29.736C1076.2 29.736 1076.54 29.88 1076.81 30.168C1077.1 30.456 1077.24 30.808 1077.24 31.224C1077.24 31.64 1077.1 31.992 1076.81 32.28C1076.54 32.568 1076.2 32.712 1075.8 32.712ZM1076.86 34.848V48H1074.68V34.848H1076.86ZM1083.25 36.648V44.4C1083.25 45.04 1083.38 45.496 1083.65 45.768C1083.93 46.024 1084.4 46.152 1085.07 46.152H1086.68V48H1084.71C1083.49 48 1082.58 47.72 1081.97 47.16C1081.37 46.6 1081.06 45.68 1081.06 44.4V36.648H1079.36V34.848H1081.06V31.536H1083.25V34.848H1086.68V36.648H1083.25ZM1100.65 34.848L1092.73 54.192H1090.48L1093.07 47.856L1087.76 34.848H1090.19L1094.32 45.504L1098.4 34.848H1100.65Z" fill="white"/>
<path d="M1146.5 26.5C1145.02 32.6356 1140.46 37.5648 1134.46 39.5224L1133 40L1134.46 40.4776C1140.46 42.4352 1145.02 47.3644 1146.5 53.5C1147.98 47.3644 1152.54 42.4352 1158.54 40.4776L1160 40L1158.54 39.5224C1152.54 37.5648 1147.98 32.6356 1146.5 26.5Z" fill="#F3A60D"/>
<path d="M1193.65 35.016C1193.76 33.544 1194.33 32.392 1195.35 31.56C1196.38 30.728 1197.71 30.312 1199.34 30.312C1200.43 30.312 1201.36 30.512 1202.15 30.912C1202.95 31.296 1203.55 31.824 1203.95 32.496C1204.36 33.168 1204.57 33.928 1204.57 34.776C1204.57 35.768 1204.28 36.624 1203.71 37.344C1203.15 38.064 1202.41 38.528 1201.5 38.736V38.856C1202.54 39.112 1203.36 39.616 1203.97 40.368C1204.58 41.12 1204.88 42.104 1204.88 43.32C1204.88 44.232 1204.67 45.056 1204.26 45.792C1203.84 46.512 1203.22 47.08 1202.39 47.496C1201.55 47.912 1200.55 48.12 1199.39 48.12C1197.69 48.12 1196.3 47.68 1195.21 46.8C1194.12 45.904 1193.51 44.64 1193.39 43.008H1195.5C1195.61 43.968 1196 44.752 1196.67 45.36C1197.35 45.968 1198.24 46.272 1199.36 46.272C1200.48 46.272 1201.33 45.984 1201.91 45.408C1202.5 44.816 1202.79 44.056 1202.79 43.128C1202.79 41.928 1202.39 41.064 1201.59 40.536C1200.79 40.008 1199.59 39.744 1197.97 39.744H1197.42V37.92H1197.99C1199.47 37.904 1200.58 37.664 1201.33 37.2C1202.08 36.72 1202.46 35.984 1202.46 34.992C1202.46 34.144 1202.18 33.464 1201.62 32.952C1201.07 32.44 1200.29 32.184 1199.27 32.184C1198.27 32.184 1197.47 32.44 1196.87 32.952C1196.26 33.464 1195.9 34.152 1195.79 35.016H1193.65ZM1207.83 39.144C1207.83 36.392 1208.28 34.248 1209.18 32.712C1210.07 31.16 1211.64 30.384 1213.88 30.384C1216.1 30.384 1217.66 31.16 1218.56 32.712C1219.46 34.248 1219.9 36.392 1219.9 39.144C1219.9 41.944 1219.46 44.12 1218.56 45.672C1217.66 47.224 1216.1 48 1213.88 48C1211.64 48 1210.07 47.224 1209.18 45.672C1208.28 44.12 1207.83 41.944 1207.83 39.144ZM1217.74 39.144C1217.74 37.752 1217.65 36.576 1217.46 35.616C1217.28 34.64 1216.9 33.856 1216.33 33.264C1215.77 32.672 1214.95 32.376 1213.88 32.376C1212.79 32.376 1211.96 32.672 1211.38 33.264C1210.82 33.856 1210.45 34.64 1210.26 35.616C1210.08 36.576 1209.99 37.752 1209.99 39.144C1209.99 40.584 1210.08 41.792 1210.26 42.768C1210.45 43.744 1210.82 44.528 1211.38 45.12C1211.96 45.712 1212.79 46.008 1213.88 46.008C1214.95 46.008 1215.77 45.712 1216.33 45.12C1216.9 44.528 1217.28 43.744 1217.46 42.768C1217.65 41.792 1217.74 40.584 1217.74 39.144ZM1240.99 34.848L1233.07 54.192H1230.81L1233.4 47.856L1228.1 34.848H1230.52L1234.65 45.504L1238.73 34.848H1240.99ZM1255.18 40.92C1255.18 41.336 1255.16 41.776 1255.11 42.24H1244.6C1244.68 43.536 1245.12 44.552 1245.92 45.288C1246.74 46.008 1247.72 46.368 1248.87 46.368C1249.82 46.368 1250.6 46.152 1251.22 45.72C1251.86 45.272 1252.31 44.68 1252.57 43.944H1254.92C1254.57 45.208 1253.86 46.24 1252.81 47.04C1251.75 47.824 1250.44 48.216 1248.87 48.216C1247.62 48.216 1246.5 47.936 1245.51 47.376C1244.54 46.816 1243.77 46.024 1243.21 45C1242.65 43.96 1242.37 42.76 1242.37 41.4C1242.37 40.04 1242.64 38.848 1243.18 37.824C1243.73 36.8 1244.49 36.016 1245.46 35.472C1246.46 34.912 1247.59 34.632 1248.87 34.632C1250.12 34.632 1251.22 34.904 1252.18 35.448C1253.14 35.992 1253.88 36.744 1254.39 37.704C1254.92 38.648 1255.18 39.72 1255.18 40.92ZM1252.93 40.464C1252.93 39.632 1252.74 38.92 1252.38 38.328C1252.01 37.72 1251.5 37.264 1250.86 36.96C1250.24 36.64 1249.54 36.48 1248.78 36.48C1247.67 36.48 1246.73 36.832 1245.94 37.536C1245.18 38.24 1244.74 39.216 1244.62 40.464H1252.93ZM1257.25 41.376C1257.25 40.032 1257.52 38.856 1258.07 37.848C1258.61 36.824 1259.35 36.032 1260.3 35.472C1261.26 34.912 1262.32 34.632 1263.49 34.632C1264.64 34.632 1265.64 34.88 1266.49 35.376C1267.34 35.872 1267.97 36.496 1268.39 37.248V34.848H1270.59V48H1268.39V45.552C1267.95 46.32 1267.31 46.96 1266.44 47.472C1265.59 47.968 1264.6 48.216 1263.47 48.216C1262.3 48.216 1261.24 47.928 1260.3 47.352C1259.35 46.776 1258.61 45.968 1258.07 44.928C1257.52 43.888 1257.25 42.704 1257.25 41.376ZM1268.39 41.4C1268.39 40.408 1268.19 39.544 1267.79 38.808C1267.39 38.072 1266.84 37.512 1266.15 37.128C1265.48 36.728 1264.74 36.528 1263.92 36.528C1263.11 36.528 1262.36 36.72 1261.69 37.104C1261.02 37.488 1260.48 38.048 1260.08 38.784C1259.68 39.52 1259.48 40.384 1259.48 41.376C1259.48 42.384 1259.68 43.264 1260.08 44.016C1260.48 44.752 1261.02 45.32 1261.69 45.72C1262.36 46.104 1263.11 46.296 1263.92 46.296C1264.74 46.296 1265.48 46.104 1266.15 45.72C1266.84 45.32 1267.39 44.752 1267.79 44.016C1268.19 43.264 1268.39 42.392 1268.39 41.4ZM1276.47 36.984C1276.85 36.232 1277.4 35.648 1278.1 35.232C1278.82 34.816 1279.69 34.608 1280.72 34.608V36.864H1280.14C1277.69 36.864 1276.47 38.192 1276.47 40.848V48H1274.29V34.848H1276.47V36.984ZM1287.89 48.216C1286.89 48.216 1285.98 48.048 1285.18 47.712C1284.38 47.36 1283.75 46.88 1283.29 46.272C1282.82 45.648 1282.57 44.936 1282.52 44.136H1284.77C1284.84 44.792 1285.14 45.328 1285.69 45.744C1286.25 46.16 1286.97 46.368 1287.87 46.368C1288.7 46.368 1289.36 46.184 1289.84 45.816C1290.32 45.448 1290.56 44.984 1290.56 44.424C1290.56 43.848 1290.3 43.424 1289.79 43.152C1289.28 42.864 1288.49 42.584 1287.41 42.312C1286.44 42.056 1285.64 41.8 1285.01 41.544C1284.41 41.272 1283.88 40.88 1283.43 40.368C1283 39.84 1282.78 39.152 1282.78 38.304C1282.78 37.632 1282.98 37.016 1283.38 36.456C1283.78 35.896 1284.35 35.456 1285.09 35.136C1285.82 34.8 1286.66 34.632 1287.61 34.632C1289.06 34.632 1290.24 35 1291.13 35.736C1292.03 36.472 1292.51 37.48 1292.57 38.76H1290.39C1290.34 38.072 1290.06 37.52 1289.55 37.104C1289.05 36.688 1288.38 36.48 1287.53 36.48C1286.75 36.48 1286.13 36.648 1285.66 36.984C1285.2 37.32 1284.97 37.76 1284.97 38.304C1284.97 38.736 1285.1 39.096 1285.37 39.384C1285.66 39.656 1286.01 39.88 1286.43 40.056C1286.86 40.216 1287.45 40.4 1288.21 40.608C1289.15 40.864 1289.92 41.12 1290.51 41.376C1291.1 41.616 1291.61 41.984 1292.02 42.48C1292.45 42.976 1292.68 43.624 1292.69 44.424C1292.69 45.144 1292.49 45.792 1292.09 46.368C1291.69 46.944 1291.13 47.4 1290.39 47.736C1289.67 48.056 1288.84 48.216 1287.89 48.216ZM1307.91 48.216C1306.68 48.216 1305.56 47.936 1304.55 47.376C1303.56 46.816 1302.78 46.024 1302.2 45C1301.64 43.96 1301.36 42.76 1301.36 41.4C1301.36 40.056 1301.65 38.872 1302.22 37.848C1302.82 36.808 1303.62 36.016 1304.62 35.472C1305.63 34.912 1306.76 34.632 1308.01 34.632C1309.26 34.632 1310.38 34.912 1311.39 35.472C1312.4 36.016 1313.19 36.8 1313.77 37.824C1314.36 38.848 1314.66 40.04 1314.66 41.4C1314.66 42.76 1314.35 43.96 1313.74 45C1313.15 46.024 1312.34 46.816 1311.32 47.376C1310.3 47.936 1309.16 48.216 1307.91 48.216ZM1307.91 46.296C1308.7 46.296 1309.43 46.112 1310.12 45.744C1310.81 45.376 1311.36 44.824 1311.78 44.088C1312.21 43.352 1312.42 42.456 1312.42 41.4C1312.42 40.344 1312.22 39.448 1311.8 38.712C1311.38 37.976 1310.84 37.432 1310.17 37.08C1309.5 36.712 1308.77 36.528 1307.98 36.528C1307.18 36.528 1306.45 36.712 1305.78 37.08C1305.12 37.432 1304.59 37.976 1304.19 38.712C1303.79 39.448 1303.59 40.344 1303.59 41.4C1303.59 42.472 1303.78 43.376 1304.17 44.112C1304.57 44.848 1305.1 45.4 1305.75 45.768C1306.41 46.12 1307.13 46.296 1307.91 46.296ZM1322.88 36.648H1320.12V48H1317.94V36.648H1316.23V34.848H1317.94V33.912C1317.94 32.44 1318.31 31.368 1319.06 30.696C1319.83 30.008 1321.06 29.664 1322.74 29.664V31.488C1321.78 31.488 1321.1 31.68 1320.7 32.064C1320.31 32.432 1320.12 33.048 1320.12 33.912V34.848H1322.88V36.648ZM1343.82 40.92C1343.82 41.336 1343.8 41.776 1343.75 42.24H1333.24C1333.32 43.536 1333.76 44.552 1334.56 45.288C1335.38 46.008 1336.36 46.368 1337.51 46.368C1338.46 46.368 1339.24 46.152 1339.86 45.72C1340.5 45.272 1340.95 44.68 1341.21 43.944H1343.56C1343.21 45.208 1342.5 46.24 1341.45 47.04C1340.39 47.824 1339.08 48.216 1337.51 48.216C1336.26 48.216 1335.14 47.936 1334.15 47.376C1333.18 46.816 1332.41 46.024 1331.85 45C1331.29 43.96 1331.01 42.76 1331.01 41.4C1331.01 40.04 1331.28 38.848 1331.82 37.824C1332.37 36.8 1333.13 36.016 1334.1 35.472C1335.1 34.912 1336.23 34.632 1337.51 34.632C1338.76 34.632 1339.86 34.904 1340.82 35.448C1341.78 35.992 1342.52 36.744 1343.03 37.704C1343.56 38.648 1343.82 39.72 1343.82 40.92ZM1341.57 40.464C1341.57 39.632 1341.38 38.92 1341.02 38.328C1340.65 37.72 1340.14 37.264 1339.5 36.96C1338.88 36.64 1338.18 36.48 1337.42 36.48C1336.31 36.48 1335.37 36.832 1334.58 37.536C1333.82 38.24 1333.38 39.216 1333.26 40.464H1341.57ZM1353.57 48L1350.45 43.104L1347.45 48H1345.17L1349.42 41.472L1345.17 34.848H1347.64L1350.76 39.72L1353.74 34.848H1356.02L1351.8 41.352L1356.04 48H1353.57ZM1360.38 37.272C1360.81 36.52 1361.45 35.896 1362.3 35.4C1363.16 34.888 1364.16 34.632 1365.3 34.632C1366.46 34.632 1367.52 34.912 1368.46 35.472C1369.42 36.032 1370.18 36.824 1370.72 37.848C1371.26 38.856 1371.54 40.032 1371.54 41.376C1371.54 42.704 1371.26 43.888 1370.72 44.928C1370.18 45.968 1369.42 46.776 1368.46 47.352C1367.52 47.928 1366.46 48.216 1365.3 48.216C1364.18 48.216 1363.18 47.968 1362.32 47.472C1361.47 46.96 1360.82 46.328 1360.38 45.576V54.24H1358.19V34.848H1360.38V37.272ZM1369.3 41.376C1369.3 40.384 1369.1 39.52 1368.7 38.784C1368.3 38.048 1367.76 37.488 1367.07 37.104C1366.4 36.72 1365.66 36.528 1364.84 36.528C1364.04 36.528 1363.3 36.728 1362.61 37.128C1361.94 37.512 1361.39 38.08 1360.98 38.832C1360.58 39.568 1360.38 40.424 1360.38 41.4C1360.38 42.392 1360.58 43.264 1360.98 44.016C1361.39 44.752 1361.94 45.32 1362.61 45.72C1363.3 46.104 1364.04 46.296 1364.84 46.296C1365.66 46.296 1366.4 46.104 1367.07 45.72C1367.76 45.32 1368.3 44.752 1368.7 44.016C1369.1 43.264 1369.3 42.384 1369.3 41.376ZM1386.41 40.92C1386.41 41.336 1386.39 41.776 1386.34 42.24H1375.83C1375.91 43.536 1376.35 44.552 1377.15 45.288C1377.96 46.008 1378.95 46.368 1380.1 46.368C1381.04 46.368 1381.83 46.152 1382.45 45.72C1383.09 45.272 1383.54 44.68 1383.79 43.944H1386.15C1385.79 45.208 1385.09 46.24 1384.03 47.04C1382.98 47.824 1381.67 48.216 1380.1 48.216C1378.85 48.216 1377.73 47.936 1376.74 47.376C1375.76 46.816 1374.99 46.024 1374.43 45C1373.87 43.96 1373.59 42.76 1373.59 41.4C1373.59 40.04 1373.87 38.848 1374.41 37.824C1374.95 36.8 1375.71 36.016 1376.69 35.472C1377.68 34.912 1378.82 34.632 1380.1 34.632C1381.35 34.632 1382.45 34.904 1383.41 35.448C1384.37 35.992 1385.11 36.744 1385.62 37.704C1386.15 38.648 1386.41 39.72 1386.41 40.92ZM1384.15 40.464C1384.15 39.632 1383.97 38.92 1383.6 38.328C1383.23 37.72 1382.73 37.264 1382.09 36.96C1381.47 36.64 1380.77 36.48 1380 36.48C1378.9 36.48 1377.95 36.832 1377.17 37.536C1376.4 38.24 1375.96 39.216 1375.85 40.464H1384.15ZM1391.48 36.984C1391.86 36.232 1392.41 35.648 1393.11 35.232C1393.83 34.816 1394.7 34.608 1395.73 34.608V36.864H1395.15C1392.7 36.864 1391.48 38.192 1391.48 40.848V48H1389.29V34.848H1391.48V36.984ZM1399.37 32.712C1398.96 32.712 1398.61 32.568 1398.32 32.28C1398.03 31.992 1397.89 31.64 1397.89 31.224C1397.89 30.808 1398.03 30.456 1398.32 30.168C1398.61 29.88 1398.96 29.736 1399.37 29.736C1399.77 29.736 1400.11 29.88 1400.38 30.168C1400.67 30.456 1400.81 30.808 1400.81 31.224C1400.81 31.64 1400.67 31.992 1400.38 32.28C1400.11 32.568 1399.77 32.712 1399.37 32.712ZM1400.43 34.848V48H1398.25V34.848H1400.43ZM1416.15 40.92C1416.15 41.336 1416.13 41.776 1416.08 42.24H1405.57C1405.65 43.536 1406.09 44.552 1406.89 45.288C1407.7 46.008 1408.69 46.368 1409.84 46.368C1410.78 46.368 1411.57 46.152 1412.19 45.72C1412.83 45.272 1413.28 44.68 1413.54 43.944H1415.89C1415.54 45.208 1414.83 46.24 1413.78 47.04C1412.72 47.824 1411.41 48.216 1409.84 48.216C1408.59 48.216 1407.47 47.936 1406.48 47.376C1405.5 46.816 1404.74 46.024 1404.18 45C1403.62 43.96 1403.34 42.76 1403.34 41.4C1403.34 40.04 1403.61 38.848 1404.15 37.824C1404.7 36.8 1405.46 36.016 1406.43 35.472C1407.42 34.912 1408.56 34.632 1409.84 34.632C1411.09 34.632 1412.19 34.904 1413.15 35.448C1414.11 35.992 1414.85 36.744 1415.36 37.704C1415.89 38.648 1416.15 39.72 1416.15 40.92ZM1413.9 40.464C1413.9 39.632 1413.71 38.92 1413.34 38.328C1412.98 37.72 1412.47 37.264 1411.83 36.96C1411.21 36.64 1410.51 36.48 1409.74 36.48C1408.64 36.48 1407.7 36.832 1406.91 37.536C1406.14 38.24 1405.7 39.216 1405.59 40.464H1413.9ZM1425.44 34.608C1427.04 34.608 1428.34 35.096 1429.33 36.072C1430.32 37.032 1430.82 38.424 1430.82 40.248V48H1428.66V40.56C1428.66 39.248 1428.33 38.248 1427.68 37.56C1427.02 36.856 1426.12 36.504 1424.99 36.504C1423.84 36.504 1422.92 36.864 1422.23 37.584C1421.56 38.304 1421.22 39.352 1421.22 40.728V48H1419.04V34.848H1421.22V36.72C1421.65 36.048 1422.24 35.528 1422.97 35.16C1423.72 34.792 1424.55 34.608 1425.44 34.608ZM1433.57 41.4C1433.57 40.04 1433.84 38.856 1434.39 37.848C1434.93 36.824 1435.68 36.032 1436.64 35.472C1437.62 34.912 1438.73 34.632 1439.98 34.632C1441.6 34.632 1442.92 35.024 1443.96 35.808C1445.02 36.592 1445.72 37.68 1446.05 39.072H1443.7C1443.48 38.272 1443.04 37.64 1442.38 37.176C1441.74 36.712 1440.94 36.48 1439.98 36.48C1438.73 36.48 1437.72 36.912 1436.96 37.776C1436.19 38.624 1435.8 39.832 1435.8 41.4C1435.8 42.984 1436.19 44.208 1436.96 45.072C1437.72 45.936 1438.73 46.368 1439.98 46.368C1440.94 46.368 1441.74 46.144 1442.38 45.696C1443.02 45.248 1443.46 44.608 1443.7 43.776H1446.05C1445.7 45.12 1445 46.2 1443.94 47.016C1442.88 47.816 1441.56 48.216 1439.98 48.216C1438.73 48.216 1437.62 47.936 1436.64 47.376C1435.68 46.816 1434.93 46.024 1434.39 45C1433.84 43.976 1433.57 42.776 1433.57 41.4ZM1460.97 40.92C1460.97 41.336 1460.94 41.776 1460.89 42.24H1450.38C1450.46 43.536 1450.9 44.552 1451.7 45.288C1452.52 46.008 1453.5 46.368 1454.65 46.368C1455.6 46.368 1456.38 46.152 1457.01 45.72C1457.65 45.272 1458.09 44.68 1458.35 43.944H1460.7C1460.35 45.208 1459.65 46.24 1458.59 47.04C1457.53 47.824 1456.22 48.216 1454.65 48.216C1453.41 48.216 1452.29 47.936 1451.29 47.376C1450.32 46.816 1449.55 46.024 1448.99 45C1448.43 43.96 1448.15 42.76 1448.15 41.4C1448.15 40.04 1448.42 38.848 1448.97 37.824C1449.51 36.8 1450.27 36.016 1451.25 35.472C1452.24 34.912 1453.37 34.632 1454.65 34.632C1455.9 34.632 1457.01 34.904 1457.97 35.448C1458.93 35.992 1459.66 36.744 1460.17 37.704C1460.7 38.648 1460.97 39.72 1460.97 40.92ZM1458.71 40.464C1458.71 39.632 1458.53 38.92 1458.16 38.328C1457.79 37.72 1457.29 37.264 1456.65 36.96C1456.02 36.64 1455.33 36.48 1454.56 36.48C1453.45 36.48 1452.51 36.832 1451.73 37.536C1450.96 38.24 1450.52 39.216 1450.41 40.464H1458.71Z" fill="white"/>
</svg>
