<svg width="32" height="33" viewBox="0 0 32 33" fill="none" xmlns="http://www.w3.org/2000/svg">
<mask id="mask0_5_2682" style="mask-type:alpha" maskUnits="userSpaceOnUse" x="0" y="0" width="32" height="33">
<rect y="0.5" width="32" height="32" fill="#D9D9D9"/>
</mask>
<g mask="url(#mask0_5_2682)">
<path d="M8.82049 28.5C8.20682 28.5 7.69443 28.2944 7.28332 27.8833C6.87221 27.4722 6.66666 26.9598 6.66666 26.3462V11.9872C6.66666 11.3735 6.87221 10.8611 7.28332 10.45C7.69443 10.0389 8.20682 9.83333 8.82049 9.83333H11.3333V9.16667C11.3333 7.87093 11.7872 6.76922 12.6949 5.86153C13.6025 4.95384 14.7043 4.5 16 4.5C17.2957 4.5 18.3974 4.95384 19.3051 5.86153C20.2128 6.76922 20.6667 7.87093 20.6667 9.16667V9.83333H23.1795C23.7932 9.83333 24.3055 10.0389 24.7167 10.45C25.1278 10.8611 25.3333 11.3735 25.3333 11.9872V26.3462C25.3333 26.9598 25.1278 27.4722 24.7167 27.8833C24.3055 28.2944 23.7932 28.5 23.1795 28.5H8.82049ZM8.82049 27.1667H23.1795C23.3846 27.1667 23.5726 27.0812 23.7436 26.9103C23.9145 26.7393 24 26.5513 24 26.3462V11.9872C24 11.7821 23.9145 11.594 23.7436 11.4231C23.5726 11.2521 23.3846 11.1667 23.1795 11.1667H20.6667V14.5C20.6667 14.6897 20.603 14.8483 20.4756 14.9756C20.3483 15.103 20.1897 15.1667 20 15.1667C19.8102 15.1667 19.6517 15.103 19.5244 14.9756C19.397 14.8483 19.3333 14.6897 19.3333 14.5V11.1667H12.6667V14.5C12.6667 14.6897 12.603 14.8483 12.4756 14.9756C12.3483 15.103 12.1897 15.1667 12 15.1667C11.8102 15.1667 11.6517 15.103 11.5244 14.9756C11.397 14.8483 11.3333 14.6897 11.3333 14.5V11.1667H8.82049C8.61538 11.1667 8.42735 11.2521 8.25639 11.4231C8.08546 11.594 7.99999 11.7821 7.99999 11.9872V26.3462C7.99999 26.5513 8.08546 26.7393 8.25639 26.9103C8.42735 27.0812 8.61538 27.1667 8.82049 27.1667ZM12.6667 9.83333H19.3333V9.16667C19.3333 8.2282 19.0124 7.43803 18.3705 6.79617C17.7286 6.15428 16.9385 5.83333 16 5.83333C15.0615 5.83333 14.2714 6.15428 13.6295 6.79617C12.9876 7.43803 12.6667 8.2282 12.6667 9.16667V9.83333Z" fill="white"/>
</g>
</svg>
